<?xml version="1.0" encoding="UTF-8"?>
<svg width="30px" height="24px" viewBox="0 0 30 24" version="1.1" xmlns="http://www.w3.org/2000/svg" xmlns:xlink="http://www.w3.org/1999/xlink">
    <!-- Generator: Sketch 52.6 (67491) - http://www.bohemiancoding.com/sketch -->
    <title>“</title>
    <desc>Created with Sketch.</desc>
    <g id="Page-1" stroke="none" stroke-width="1" fill="none" fill-rule="evenodd">
        <path d="M28.4319926,0.592773438 L28.4319926,2.26757812 C26.0621891,3.13346787 24.2051113,4.49494514 22.8607035,6.35205078 C21.5162958,8.20915642 20.844102,10.1402895 20.844102,12.1455078 C20.844102,12.5784527 20.9124607,12.8974599 21.0491801,13.1025391 C21.1403264,13.2392585 21.2428644,13.3076172 21.3567973,13.3076172 C21.4707301,13.3076172 21.6416269,13.2278654 21.8694926,13.0683594 C22.5986629,12.5442682 23.5215052,12.2822266 24.6380473,12.2822266 C25.9368819,12.2822266 27.0875865,12.8120064 28.0901957,13.871582 C29.0928049,14.9311576 29.594102,16.1900969 29.594102,17.6484375 C29.594102,19.1751378 29.0187496,20.5195254 27.8680277,21.6816406 C26.7173058,22.8437558 25.3216492,23.4248047 23.681016,23.4248047 C21.766944,23.4248047 20.1149422,22.6386797 18.7249613,21.0664062 C17.3349804,19.4941328 16.6400004,17.3864064 16.6400004,14.7431641 C16.6400004,11.6669768 17.585629,8.90984292 19.4769145,6.47167969 C21.3682,4.03351646 24.3531962,2.07390063 28.4319926,0.592773438 Z M11.9915629,0.592773438 L11.9915629,2.26757812 C9.62175939,3.13346787 7.7646816,4.49494514 6.42027384,6.35205078 C5.07586608,8.20915642 4.40367228,10.1402895 4.40367228,12.1455078 C4.40367228,12.5784527 4.47203097,12.8974599 4.6087504,13.1025391 C4.69989669,13.2392585 4.80243473,13.3076172 4.91636759,13.3076172 C5.03030045,13.3076172 5.20119718,13.2278654 5.4290629,13.0683594 C6.15823322,12.5442682 7.08107555,12.2822266 8.19761759,12.2822266 C9.49645221,12.2822266 10.6471568,12.8120064 11.649766,13.871582 C12.6523752,14.9311576 13.1536723,16.1900969 13.1536723,17.6484375 C13.1536723,19.1751378 12.57832,20.5195254 11.4275981,21.6816406 C10.2768762,22.8437558 8.88121954,23.4248047 7.24058634,23.4248047 C5.32651427,23.4248047 3.67451256,22.6386797 2.28453165,21.0664062 C0.894550745,19.4941328 0.199570715,17.3864064 0.199570715,14.7431641 C0.199570715,11.6669768 1.14519928,8.90984292 3.03648478,6.47167969 C4.92777028,4.03351646 7.91276647,2.07390063 11.9915629,0.592773438 Z" id="“" fill="#CACED3"></path>
    </g>
</svg>