<svg id="svg" version="1.1" xmlns="http://www.w3.org/2000/svg" xmlns:xlink="http://www.w3.org/1999/xlink" width="400" height="121.59187129551228" viewBox="0, 0, 400,121.59187129551228"><g id="svgg"><path id="path0" d="M180.000 0.390 C 176.100 1.772,173.164 5.813,173.167 9.792 C 173.167 9.959,182.795 9.992,221.037 9.959 L 268.908 9.917 269.212 8.333 C 269.963 4.426,268.974 1.853,266.189 0.468 L 265.417 0.083 223.250 0.045 L 181.083 0.006 180.000 0.390 M129.083 26.667 C 129.027 26.758,129.011 26.833,129.048 26.833 C 129.179 26.833,167.425 31.323,168.103 31.418 L 168.790 31.514 168.638 32.299 C 168.555 32.730,168.416 33.212,168.329 33.368 C 168.243 33.525,168.216 33.769,168.271 33.910 C 168.325 34.051,168.298 34.167,168.212 34.167 C 168.126 34.167,168.052 34.260,168.047 34.375 C 168.042 34.490,167.992 34.808,167.936 35.083 C 167.880 35.358,167.794 35.808,167.744 36.083 C 167.694 36.358,167.616 36.709,167.570 36.862 C 167.524 37.015,167.459 37.277,167.425 37.445 C 167.392 37.613,166.936 39.887,166.412 42.500 C 165.007 49.510,165.428 51.469,168.685 53.057 C 170.312 53.851,169.337 53.833,212.148 53.830 C 256.875 53.827,254.122 53.889,256.269 52.835 C 259.763 51.119,260.740 49.430,262.158 42.651 C 262.703 40.047,263.307 37.204,263.501 36.333 C 263.842 34.799,265.500 26.700,265.500 26.566 C 265.500 26.407,129.182 26.508,129.083 26.667 M169.093 68.844 C 166.632 69.256,166.592 69.359,164.167 81.667 C 163.056 87.304,161.434 95.504,160.564 99.887 C 158.599 109.781,158.653 109.374,159.263 109.774 C 159.963 110.232,165.798 110.239,166.634 109.783 C 167.311 109.413,167.238 109.612,167.928 106.225 C 168.243 104.680,168.537 103.267,168.582 103.083 C 168.778 102.287,168.856 101.925,169.461 99.000 L 170.098 95.917 174.007 95.815 C 185.119 95.526,191.401 90.712,192.768 81.437 C 193.747 74.794,190.926 70.578,184.603 69.234 C 182.307 68.746,171.328 68.470,169.093 68.844 M364.187 71.838 C 362.642 72.160,362.634 72.177,361.813 76.458 L 361.262 79.333 359.506 79.336 C 357.472 79.339,357.078 79.483,356.550 80.420 C 355.806 81.741,355.356 85.289,355.867 85.800 C 355.999 85.932,356.707 86.000,357.950 86.000 C 359.324 86.000,359.833 86.055,359.833 86.204 C 359.833 86.592,358.153 95.087,357.900 95.978 C 357.760 96.470,357.615 97.070,357.578 97.312 C 357.518 97.702,357.326 98.673,356.855 100.972 C 356.137 104.470,357.076 107.952,359.115 109.355 C 359.891 109.889,362.239 110.745,362.495 110.586 C 362.577 110.536,362.683 110.558,362.731 110.635 C 362.830 110.797,365.998 110.847,366.250 110.691 C 366.342 110.635,366.604 110.578,366.833 110.566 C 369.650 110.416,371.075 109.092,371.663 106.079 C 372.180 103.426,371.777 102.738,370.033 103.299 C 366.902 104.308,365.295 103.609,365.313 101.246 C 365.319 100.414,367.709 87.597,368.101 86.292 C 368.181 86.027,368.491 86.000,371.496 86.000 L 374.804 86.000 375.231 85.492 C 375.806 84.809,376.331 83.045,376.449 81.398 C 376.598 79.323,376.618 79.333,372.750 79.333 C 371.054 79.333,369.665 79.277,369.662 79.208 C 369.660 79.140,369.939 77.674,370.282 75.951 C 370.957 72.556,370.952 72.451,370.068 72.006 C 369.492 71.716,365.339 71.597,364.187 71.838 M180.663 75.747 C 184.027 76.642,184.801 80.629,182.465 85.035 C 181.966 85.977,179.500 88.496,179.500 88.064 C 179.500 88.000,179.369 88.065,179.208 88.207 C 178.406 88.918,171.500 89.669,171.500 89.046 C 171.500 88.958,171.835 87.168,172.245 85.068 C 172.655 82.968,173.231 79.956,173.526 78.375 L 174.062 75.500 176.906 75.502 C 178.862 75.503,180.035 75.580,180.663 75.747 M203.346 78.837 C 197.169 80.137,192.770 85.395,190.940 93.667 C 189.116 101.912,190.576 107.774,195.000 109.965 C 196.562 110.738,196.635 110.752,199.167 110.735 C 201.140 110.722,201.398 110.696,202.000 110.447 C 202.137 110.390,202.753 110.164,203.369 109.945 C 205.059 109.342,206.781 108.234,208.125 106.886 C 208.790 106.219,209.333 105.748,209.333 105.840 C 209.333 105.931,209.178 106.722,208.988 107.598 C 208.460 110.035,208.628 110.167,212.229 110.166 C 215.755 110.164,215.850 110.089,216.507 106.804 C 216.770 105.491,217.895 99.842,219.007 94.250 C 220.120 88.658,221.103 83.746,221.193 83.333 C 221.282 82.921,221.391 82.396,221.435 82.167 C 221.479 81.938,221.586 81.487,221.673 81.167 C 222.086 79.647,221.655 79.331,219.008 79.209 C 215.574 79.052,214.655 79.471,214.319 81.346 L 214.115 82.490 213.061 81.504 C 210.560 79.164,206.756 78.120,203.346 78.837 M268.108 78.931 C 266.474 79.326,263.737 80.733,262.439 81.845 C 261.855 82.344,260.975 83.229,260.563 83.729 C 260.153 84.227,260.138 84.232,260.230 83.833 C 261.225 79.523,261.041 79.180,257.731 79.171 C 254.186 79.160,254.072 79.271,253.264 83.526 C 252.928 85.299,252.575 86.904,252.482 87.093 C 252.388 87.281,252.328 87.506,252.349 87.593 C 252.369 87.679,252.341 87.862,252.285 88.000 C 252.193 88.229,251.990 89.210,251.421 92.167 C 251.307 92.763,251.013 94.225,250.769 95.417 C 249.111 103.505,248.065 109.127,248.165 109.407 C 248.365 109.964,249.258 110.141,251.917 110.150 C 256.552 110.166,256.096 110.772,257.740 102.405 C 259.433 93.783,259.623 93.166,261.447 90.354 C 264.248 86.038,268.663 84.380,269.753 87.235 C 270.265 88.575,270.034 90.380,268.094 100.212 C 266.164 109.997,266.189 109.685,267.294 109.992 C 268.107 110.218,272.320 110.217,273.218 109.991 C 274.655 109.629,274.519 109.999,276.078 102.165 C 276.854 98.270,277.630 94.671,277.804 94.167 C 280.364 86.748,287.921 82.727,288.297 88.584 C 288.391 90.042,288.405 89.957,286.319 100.564 C 285.401 105.228,284.673 109.166,284.701 109.314 C 284.902 110.398,291.617 110.568,292.571 109.513 C 292.729 109.339,293.156 107.547,293.668 104.906 C 294.129 102.528,294.580 100.366,294.670 100.100 C 294.760 99.834,294.833 99.416,294.833 99.170 C 294.833 98.924,294.885 98.670,294.949 98.607 C 295.012 98.543,295.086 98.325,295.113 98.121 C 295.140 97.917,295.236 97.450,295.326 97.083 C 297.526 88.111,297.437 83.483,295.014 80.941 C 291.156 76.893,283.422 78.291,278.689 83.893 C 278.390 84.246,278.128 84.508,278.105 84.476 C 278.083 84.443,277.966 84.004,277.846 83.500 C 276.951 79.748,272.792 77.797,268.108 78.931 M311.485 78.926 C 307.522 79.643,303.726 81.997,301.367 85.201 C 300.982 85.724,300.667 86.224,300.667 86.312 C 300.667 86.400,300.606 86.497,300.531 86.528 C 299.868 86.800,297.817 92.291,297.307 95.162 C 295.822 103.520,298.041 108.661,303.766 110.123 C 304.399 110.284,304.954 110.460,305.000 110.512 C 305.205 110.746,311.748 110.832,313.058 110.618 C 319.832 109.512,320.815 108.830,321.349 104.863 C 321.651 102.618,321.217 102.265,319.068 103.006 C 310.216 106.060,305.070 104.669,305.114 99.235 C 305.135 96.617,304.855 96.833,308.232 96.833 C 318.715 96.833,324.506 94.232,325.748 88.964 C 327.392 81.992,320.671 77.262,311.485 78.926 M344.250 78.912 C 341.387 79.540,336.167 82.922,336.167 84.149 C 336.167 84.281,336.120 84.342,336.063 84.285 C 336.006 84.228,336.134 83.274,336.348 82.164 C 336.893 79.331,336.601 79.074,333.000 79.222 C 329.589 79.362,330.107 78.356,328.001 88.917 C 327.087 93.500,326.223 97.662,326.081 98.167 C 325.939 98.671,325.856 99.215,325.896 99.375 C 325.936 99.535,325.888 99.667,325.790 99.667 C 325.692 99.667,325.654 99.710,325.707 99.763 C 325.760 99.815,325.737 100.089,325.656 100.372 C 325.575 100.654,325.465 101.155,325.413 101.484 C 325.360 101.814,324.991 103.658,324.592 105.583 C 323.635 110.212,323.586 110.144,327.833 110.153 C 332.365 110.163,331.884 110.822,333.595 102.276 C 334.358 98.468,335.090 94.992,335.222 94.551 C 337.120 88.222,343.844 83.478,345.807 87.083 C 346.438 88.242,346.206 90.151,344.270 99.750 C 342.309 109.474,342.290 109.650,343.167 109.949 C 344.766 110.494,349.829 110.146,350.430 109.449 C 350.811 109.007,354.340 91.607,354.670 88.542 C 355.441 81.394,351.125 77.405,344.250 78.912 M224.645 79.328 C 223.105 79.605,222.731 80.111,222.917 81.667 C 223.014 82.475,226.183 101.404,227.253 107.566 C 227.475 108.840,227.602 109.969,227.536 110.076 C 227.315 110.433,220.598 119.246,220.297 119.573 C 219.131 120.841,220.385 121.491,224.007 121.496 C 228.099 121.502,228.795 121.237,230.272 119.106 C 230.789 118.360,231.363 117.584,231.546 117.381 C 231.730 117.178,231.963 116.866,232.065 116.686 C 232.167 116.507,232.969 115.360,233.848 114.138 C 236.536 110.399,239.104 106.629,240.766 103.979 C 244.082 98.694,246.639 93.651,248.913 87.917 C 252.371 79.197,252.380 79.246,247.167 79.255 C 243.397 79.262,243.269 79.325,242.630 81.500 C 242.375 82.371,242.116 83.196,242.055 83.333 C 241.995 83.471,241.936 83.621,241.925 83.667 C 241.914 83.712,241.824 83.900,241.725 84.083 C 241.627 84.267,241.493 84.642,241.427 84.917 C 241.071 86.412,238.199 93.257,237.091 95.250 C 236.786 95.800,236.256 96.775,235.914 97.417 C 235.572 98.058,235.189 98.702,235.063 98.846 C 234.937 98.991,234.832 99.179,234.830 99.263 C 234.826 99.432,234.176 100.309,234.170 100.153 C 234.160 99.871,232.302 87.289,232.167 86.583 C 231.866 85.009,231.827 84.747,231.731 83.669 C 231.679 83.074,231.577 82.474,231.506 82.335 C 231.434 82.197,231.323 81.650,231.258 81.120 C 231.047 79.381,230.830 79.259,227.891 79.221 C 226.530 79.203,225.070 79.251,224.645 79.328 M380.522 79.757 C 379.519 80.601,378.701 84.129,379.221 85.373 L 379.481 85.995 384.448 86.039 L 389.416 86.083 388.916 86.614 C 388.642 86.906,388.192 87.424,387.917 87.764 C 386.804 89.142,381.132 96.019,380.437 96.833 C 380.241 97.063,379.782 97.625,379.416 98.083 C 379.050 98.542,378.694 98.942,378.625 98.972 C 378.556 99.003,378.500 99.097,378.500 99.181 C 378.500 99.265,378.369 99.470,378.208 99.637 C 376.228 101.701,374.583 103.963,374.263 105.062 C 373.621 107.272,373.493 109.011,373.926 109.630 L 374.186 110.000 384.253 110.000 L 394.320 110.000 394.727 109.561 C 395.321 108.921,395.857 107.140,395.950 105.500 C 396.074 103.315,396.558 103.481,390.121 103.495 C 387.121 103.502,384.667 103.464,384.667 103.410 C 384.667 103.297,389.115 97.667,389.402 97.417 C 389.714 97.145,391.328 95.222,393.949 92.000 C 399.566 85.097,399.984 84.327,399.996 80.884 C 400.002 79.220,400.721 79.333,390.142 79.333 L 381.026 79.333 380.522 79.757 M316.097 84.930 C 317.351 85.378,318.096 86.593,317.893 87.863 C 317.510 90.252,314.439 91.488,308.864 91.497 L 306.644 91.500 306.759 91.125 C 308.276 86.166,312.224 83.547,316.097 84.930 M208.682 86.200 C 209.696 86.667,210.993 87.762,211.496 88.578 L 211.832 89.121 211.345 91.519 C 210.823 94.091,210.834 94.049,210.216 95.647 C 206.931 104.146,199.049 106.876,198.701 99.635 C 198.282 90.938,203.556 83.839,208.682 86.200 " stroke="none" fill="#1c74bc" fill-rule="evenodd"></path><path id="path1" d="M130.833 10.917 C 130.833 11.054,130.890 11.168,130.958 11.170 C 131.525 11.187,171.697 15.974,171.754 16.032 C 171.796 16.073,171.418 18.177,170.915 20.708 C 170.412 23.238,170.000 25.426,170.000 25.571 C 170.000 25.810,174.363 25.830,217.862 25.792 L 265.725 25.750 267.197 18.417 C 268.007 14.383,268.634 10.990,268.590 10.875 C 268.459 10.531,130.833 10.573,130.833 10.917 M16.833 68.483 C 9.121 70.169,4.634 76.007,5.659 83.019 C 6.247 87.041,8.001 89.037,14.124 92.651 C 17.565 94.682,18.668 95.963,18.666 97.928 C 18.660 103.994,10.931 105.706,3.593 101.266 C 1.631 100.078,0.893 100.610,0.248 103.678 C -0.404 106.776,-0.022 107.791,2.208 108.888 C 3.364 109.456,6.060 110.333,6.652 110.333 C 6.807 110.333,7.027 110.427,7.142 110.542 C 7.296 110.696,8.319 110.750,11.083 110.750 C 13.848 110.750,14.871 110.696,15.025 110.542 C 15.140 110.427,15.360 110.333,15.515 110.333 C 17.024 110.333,21.558 108.302,23.285 106.852 C 28.748 102.263,29.657 93.940,25.179 89.508 C 23.410 87.758,23.027 87.484,19.182 85.228 C 15.420 83.020,14.254 81.510,14.659 79.372 C 15.550 74.678,20.559 73.483,26.637 76.515 L 28.690 77.540 29.182 77.068 C 30.198 76.095,30.927 71.807,30.252 70.777 C 28.959 68.803,21.332 67.499,16.833 68.483 M44.597 78.840 C 35.473 80.276,29.411 88.662,29.423 99.833 C 29.429 105.770,31.605 108.984,36.417 110.160 C 36.875 110.273,37.430 110.451,37.651 110.557 C 38.207 110.825,45.797 110.824,46.350 110.556 C 46.570 110.450,47.405 110.240,48.205 110.090 C 52.155 109.350,53.163 108.567,53.736 105.790 C 54.373 102.708,53.900 102.144,51.401 103.007 C 42.053 106.234,37.145 104.480,37.741 98.126 L 37.858 96.877 41.887 96.789 C 53.321 96.541,58.417 93.471,58.417 86.830 C 58.417 81.059,52.443 77.604,44.597 78.840 M72.333 78.839 C 64.143 79.807,58.372 87.189,57.481 97.837 C 56.907 104.699,59.174 108.944,64.083 110.198 C 64.542 110.315,64.970 110.487,65.036 110.581 C 65.206 110.824,71.001 110.804,71.516 110.559 C 71.736 110.453,72.442 110.239,73.083 110.082 C 76.961 109.132,78.247 107.851,78.988 104.200 C 79.656 100.904,78.921 100.284,76.303 101.936 C 72.779 104.159,68.914 104.459,67.216 102.639 C 64.574 99.806,66.801 89.587,70.683 86.738 C 73.131 84.941,76.089 85.013,78.768 86.935 C 80.182 87.949,80.906 88.094,81.517 87.483 C 82.602 86.398,83.417 82.336,82.743 81.373 C 81.427 79.495,76.638 78.329,72.333 78.839 M128.529 78.917 C 126.503 79.486,124.269 81.039,122.909 82.821 C 122.108 83.872,122.077 83.832,122.414 82.182 C 122.963 79.486,122.731 79.252,119.500 79.255 C 116.773 79.257,115.807 79.599,115.578 80.644 C 115.535 80.840,115.467 81.131,115.426 81.292 C 115.139 82.422,110.000 108.726,110.000 109.064 C 110.000 110.038,113.938 110.584,116.750 110.000 C 118.246 109.689,118.133 109.989,119.644 102.304 C 121.418 93.282,121.851 92.066,124.356 89.079 C 126.311 86.747,127.867 86.069,129.886 86.668 C 131.585 87.173,131.974 87.096,132.448 86.167 C 133.301 84.493,134.031 80.243,133.583 79.559 C 133.098 78.819,130.191 78.449,128.529 78.917 M146.083 78.843 C 137.782 79.963,131.980 87.173,130.987 97.601 C 130.314 104.676,132.517 108.745,137.750 110.089 C 138.392 110.254,139.022 110.470,139.151 110.569 C 139.475 110.819,147.528 110.818,147.849 110.568 C 147.978 110.468,148.646 110.291,149.333 110.174 C 154.021 109.377,155.474 107.839,155.299 103.859 L 155.250 102.750 154.417 102.758 C 153.943 102.762,152.749 103.027,151.650 103.372 C 147.181 104.775,142.911 104.866,141.023 103.598 C 139.526 102.592,138.756 99.651,139.379 97.314 L 139.495 96.878 143.456 96.787 C 154.653 96.529,160.042 93.324,160.053 86.917 C 160.064 81.145,154.190 77.750,146.083 78.843 M87.109 79.323 C 85.455 79.554,85.329 79.728,84.742 82.599 C 84.462 83.965,84.177 85.203,84.108 85.350 C 84.040 85.497,83.996 85.684,84.011 85.767 C 84.027 85.849,84.025 85.954,84.007 86.000 C 83.879 86.328,81.865 96.373,81.484 98.583 C 80.667 103.324,81.242 106.902,83.111 108.698 C 83.701 109.265,85.660 110.333,86.111 110.333 C 86.218 110.333,86.337 110.427,86.375 110.542 C 86.470 110.826,91.442 110.836,92.016 110.552 C 92.236 110.444,93.070 110.095,93.868 109.778 C 95.749 109.031,97.304 107.985,98.728 106.511 C 99.357 105.859,99.831 105.431,99.782 105.560 C 99.571 106.110,99.114 109.289,99.210 109.539 C 99.624 110.619,105.701 110.329,106.139 109.208 C 106.385 108.577,111.833 80.985,111.833 80.370 C 111.833 79.442,110.152 79.047,107.000 79.233 C 103.451 79.442,103.806 78.869,102.262 86.869 C 101.081 92.985,100.677 94.631,99.916 96.417 C 97.417 102.280,91.790 105.614,90.085 102.239 C 89.469 101.020,89.634 99.641,91.571 89.789 C 93.600 79.471,93.551 79.907,92.728 79.564 C 92.012 79.264,88.580 79.118,87.109 79.323 M48.461 84.925 C 51.027 85.997,50.926 88.994,48.278 90.358 C 46.742 91.150,39.167 92.038,39.167 91.426 C 39.167 91.138,40.099 89.016,40.604 88.154 C 42.173 85.477,46.009 83.900,48.461 84.925 M150.294 85.095 C 151.880 85.885,152.321 87.500,151.363 89.009 C 150.359 90.590,148.071 91.313,143.626 91.454 L 140.668 91.548 140.993 90.603 C 142.601 85.930,146.882 83.395,150.294 85.095 " stroke="none" fill="#444444" fill-rule="evenodd"></path><path id="path2" d="M295.000 80.917 C 295.311 81.237,295.603 81.500,295.649 81.500 C 295.695 81.500,295.478 81.237,295.167 80.917 C 294.856 80.596,294.564 80.333,294.518 80.333 C 294.472 80.333,294.689 80.596,295.000 80.917 M384.666 103.375 C 384.667 103.444,387.010 103.484,389.875 103.464 C 395.059 103.429,394.471 103.374,388.041 103.293 C 386.185 103.269,384.666 103.306,384.666 103.375 M308.792 110.951 C 308.998 110.991,309.335 110.991,309.542 110.951 C 309.748 110.911,309.579 110.879,309.167 110.879 C 308.754 110.879,308.585 110.911,308.792 110.951 " stroke="none" fill="#305cc0" fill-rule="evenodd"></path><path id="path3" d="M295.000 80.917 C 295.311 81.237,295.603 81.500,295.649 81.500 C 295.695 81.500,295.478 81.237,295.167 80.917 C 294.856 80.596,294.564 80.333,294.518 80.333 C 294.472 80.333,294.689 80.596,295.000 80.917 M384.666 103.375 C 384.667 103.444,387.010 103.484,389.875 103.464 C 395.059 103.429,394.471 103.374,388.041 103.293 C 386.185 103.269,384.666 103.306,384.666 103.375 M308.792 110.951 C 308.998 110.991,309.335 110.991,309.542 110.951 C 309.748 110.911,309.579 110.879,309.167 110.879 C 308.754 110.879,308.585 110.911,308.792 110.951 " stroke="none" fill="#305cc0" fill-rule="evenodd"></path><path id="path4" d="M295.000 80.917 C 295.311 81.237,295.603 81.500,295.649 81.500 C 295.695 81.500,295.478 81.237,295.167 80.917 C 294.856 80.596,294.564 80.333,294.518 80.333 C 294.472 80.333,294.689 80.596,295.000 80.917 M384.666 103.375 C 384.667 103.444,387.010 103.484,389.875 103.464 C 395.059 103.429,394.471 103.374,388.041 103.293 C 386.185 103.269,384.666 103.306,384.666 103.375 M308.792 110.951 C 308.998 110.991,309.335 110.991,309.542 110.951 C 309.748 110.911,309.579 110.879,309.167 110.879 C 308.754 110.879,308.585 110.911,308.792 110.951 " stroke="none" fill="#305cc0" fill-rule="evenodd"></path></g></svg>