<svg xmlns="http://www.w3.org/2000/svg" viewBox="0 0 900 900"><title>drawkit-developer-woman</title><path d="M330.22,75.1c16.55.88,40.23,14,40.23,36.87s-23.84,31.85-45.26,35.58c14.53,17.32,20.49,20.67,19,28.12s-14.9,27.94-16,51.41-64.82,152.54-76.92,156.27S263,411,179.57,413.63c-22.25,0-62.62-33-62.62-76-1-93.73,96.42-111.52,150.59-216.09C292.4,73.54,322.54,74.68,330.22,75.1Z"/><path d="M91.5,516.55h717V825H91.5Z" style="fill:#f3f3f3"/><path d="M175.87,589.5H746.55" style="fill:none;stroke:#fff;stroke-linecap:round;stroke-linejoin:round;stroke-width:12.979999542236328px"/><path d="M532.61,599.35l20.23-11.68,14.33,24.84-20.23,11.67Z" style="fill:#e49d75"/><path d="M222.36,671.41H671.5" style="fill:none;stroke:#fff;stroke-linecap:round;stroke-linejoin:round;stroke-width:12.979999542236328px"/><path d="M381.93,646.28,403,656.41l-12.31,25.81-21.08-10.07Z" style="fill:#e49d75"/><path d="M499.11,427.26c20.5,0,50.65,122.85,63.61,158.87-2.71,7.54-18.09,19.28-26.53,19.28-16.28-27.28-52.75-85.76-59.23-94.8C471.77,503.41,478.61,427.26,499.11,427.26Z" style="fill:#0061f2"/><path d="M491.38,184.84c3.5-2.19,1.85-.72,4.61-4.76" style="opacity:0.27000001072883606;isolation:isolate"/><path d="M264,404.69c-17.77,0-32.41-3.83-32.41,38s45.66,76.67,99.85,76.67,78.17-1.44,83.11-2.64c1.46,13.83-30.48,108.6-33.91,133,2.45,6.52,18.3,14.64,25,14.64s95.84-144.79,93.52-234.26c.31-14-51.19-17.87-83.73-17.87S313.64,416,304.88,416" style="fill:#207ded"/><path d="M237.8,408.8c-2.26-9.31-14.44-209.38,58.63-205.81s72.32,181.86,64,210C327.08,427.11,240.18,418.63,237.8,408.8Z" style="fill:#f4a100"/><path d="M321.08,187.12c-1.15,2.73-7.35,17.27-8.5,23.21s-32.56-1.57-30.8-4.54c10.4-17.56,12.1-36,13.79-45.23C297.12,152.12,328.69,169,321.08,187.12Z" style="fill:#d18c65"/><path d="M312.06,304.66,267,309.46c-3.07,3.78-1.74,12.72-1.79,17.32-.2,17,.56,36,10.84,50.32,4,5.57,10.55,11,17,10.91,10.1,4,27,8.61,27,8.61l25.57,5.64s43.14,7.65,64.44,7.15c7.09-.18,14.3-1,21.38-.8,4.11.11,10.63,1.39,14.47,0,1.12-.41.85-2.88.58-3.85-.92-3.39-4.16-5.77-7.14-7.25-6.92-3.44-10.84-1.26-17.94-1.14-5.81.1-12.74-2.86-22.82-6.81-11.89-4.66-25.45-10.35-37.57-14.43-13.81-4.65-27.9-9.67-41.38-15.19-2.66-1.09-5.49-1.88-8.28-2.75a144.83,144.83,0,0,0,2.16-22c.31-8,.44-16.4-.73-24.28C312.42,308.88,312.91,306.54,312.06,304.66Z" style="fill:#e49d75"/><path d="M255,310.7c-7.67-20.38-1-84.08,23.9-88.25,34.64-5.14,45,75.34,41.57,84.75C314.32,310.88,280,323.05,255,310.7Z" style="fill:#f9b95a"/><path d="M358.13,118.41a104.28,104.28,0,0,1-68.85,28.78,8.64,8.64,0,0,0-1.86,5.31,9,9,0,0,0,7.69,8.86c2.23,13.63,9.44,24.31,20.06,27.54,17,5.18,36.41-10.77,43.29-35.63C361.94,140.71,361.55,128.3,358.13,118.41Z" style="fill:#e49d75"/><path d="M384.62,410.74c18,0,83-.52,94.93-.52" style="fill:#ffc88e"/><path d="M373.5,411.58c19,0,84.58-1.55,95.46-1.55,8.44-13,47.64-81.48,50.23-86.66" style="fill:none;stroke:#9d9d9d;stroke-linecap:round;stroke-linejoin:round;stroke-width:5.789999961853027px"/><path d="M372.69,665.84,359,692.06l69.8,36.52,3.89-7.43-34.56-42Z"/><path d="M542.69,617.51l15.25,25.36,67.51-40.59-4.32-7.19-53.86,7.64Z"/><path d="M170,636.25l-44.77-44.76L170,546.72" style="fill:none;stroke:#dfdfdf;stroke-linecap:round;stroke-linejoin:round;stroke-width:12.979999542236328px"/><path d="M725.94,796.17l44.75-44.76-44.76-44.76" style="fill:none;stroke:#dfdfdf;stroke-linecap:round;stroke-linejoin:round;stroke-width:12.979999542236328px"/><path d="M175.87,750.86H690.36" style="fill:none;stroke:#fff;stroke-linecap:round;stroke-linejoin:round;stroke-width:12.979999542236328px"/></svg>