<?xml version="1.0" encoding="UTF-8"?>
<svg width="20px" height="20px" viewBox="0 0 20 20" version="1.1" xmlns="http://www.w3.org/2000/svg" xmlns:xlink="http://www.w3.org/1999/xlink">
    <!-- Generator: Sketch 52.6 (67491) - http://www.bohemiancoding.com/sketch -->
    <title>F_icon</title>
    <desc>Created with Sketch.</desc>
    <g id="Page-1" stroke="none" stroke-width="1" fill="none" fill-rule="evenodd">
        <g id="F_icon">
            <path d="M18.8480309,19.9464865 C19.4545174,19.9464865 19.946332,19.4546718 19.946332,18.8480309 L19.946332,1.14378378 C19.946332,0.537065637 19.4545946,0.0454054054 18.8480309,0.0454054054 L1.14378378,0.0454054054 C0.537065637,0.0454054054 0.0454054054,0.537065637 0.0454054054,1.14378378 L0.0454054054,18.8480309 C0.0454054054,19.4545946 0.536988417,19.9464865 1.14378378,19.9464865 L18.8480309,19.9464865 Z" id="Blue_1_" fill="#3C5A99"></path>
            <path d="M13.7767568,19.9464865 L13.7767568,12.2396911 L16.3635521,12.2396911 L16.750888,9.23621622 L13.7767568,9.23621622 L13.7767568,7.31868726 C13.7767568,6.44911197 14.0182239,5.8565251 15.2651737,5.8565251 L16.8555985,5.85583012 L16.8555985,3.16949807 C16.5805405,3.13289575 15.6364479,3.05111969 14.5380695,3.05111969 C12.2450193,3.05111969 10.6751351,4.45081081 10.6751351,7.02123552 L10.6751351,9.23621622 L8.08169884,9.23621622 L8.08169884,12.2396911 L10.6751351,12.2396911 L10.6751351,19.9464865 L13.7767568,19.9464865 Z" id="f" fill="#FFFFFF"></path>
        </g>
    </g>
</svg>