<?xml version="1.0" encoding="UTF-8"?>
<svg width="20px" height="20px" viewBox="0 0 20 20" version="1.1" xmlns="http://www.w3.org/2000/svg" xmlns:xlink="http://www.w3.org/1999/xlink">
    <!-- Generator: Sketch 52.6 (67491) - http://www.bohemiancoding.com/sketch -->
    <title>Fill 5</title>
    <desc>Created with Sketch.</desc>
    <g id="Page-1" stroke="none" stroke-width="1" fill="none" fill-rule="evenodd">
        <path d="M10.0000828,0 C4.47791348,0 0,4.59039482 0,10.2531721 C0,14.7832921 2.86532809,18.6266187 6.83866694,19.9823778 C7.33843925,20.0772894 7.52192093,19.7599552 7.52192093,19.489143 C7.52192093,19.2446479 7.51264748,18.4369652 7.50834196,17.5802138 C4.72630925,18.2004502 4.13926723,16.3704726 4.13926723,16.3704726 C3.68437177,15.1853507 3.02893811,14.8702237 3.02893811,14.8702237 C2.12163113,14.2338574 3.09732975,14.2469311 3.09732975,14.2469311 C4.10151107,14.3192609 4.63026289,15.3035233 4.63026289,15.3035233 C5.52216932,16.8710083 6.96965432,16.4178435 7.54030221,16.1558603 C7.63005589,15.4931768 7.88921548,15.0408609 8.17520182,14.7848202 C5.95404678,14.5255536 3.61912647,13.6463901 3.61912647,9.71766004 C3.61912647,8.59824619 4.00977023,7.68359695 4.64947216,6.96556249 C4.54564272,6.70731457 4.20335334,5.66447521 4.74634651,4.25217665 C4.74634651,4.25217665 5.58608984,3.97661033 7.49708135,5.30316584 C8.29476299,5.07598918 9.15023805,4.96206127 10.0000828,4.95815614 C10.8499276,4.96206127 11.706065,5.07598918 12.505237,5.30316584 C14.4139102,3.97661033 15.2524943,4.25217665 15.2524943,4.25217665 C15.7968123,5.66447521 15.4543573,6.70731457 15.3505278,6.96556249 C15.9917201,7.68359695 16.3797143,8.59824619 16.3797143,9.71766004 C16.3797143,13.6557284 14.0403229,14.522837 11.8135376,14.7766704 C12.1722211,15.0948536 12.4918236,15.7188253 12.4918236,16.6754123 C12.4918236,18.0473012 12.4802318,19.1514342 12.4802318,19.489143 C12.4802318,19.7619927 12.660236,20.0817039 13.167129,19.9810195 C17.138315,18.6237323 20,14.781764 20,10.2531721 C20,4.59039482 15.5227489,0 10.0000828,0" id="Fill-5" fill="#161514"></path>
    </g>
</svg>