<?xml version="1.0" encoding="UTF-8"?>
<svg width="20px" height="20px" viewBox="0 0 20 20" version="1.1" xmlns="http://www.w3.org/2000/svg" xmlns:xlink="http://www.w3.org/1999/xlink">
    <!-- Generator: Sketch 52.6 (67491) - http://www.bohemiancoding.com/sketch -->
    <title>Google__G__Logo</title>
    <desc>Created with Sketch.</desc>
    <g id="Page-1" stroke="none" stroke-width="1" fill="none" fill-rule="evenodd">
        <g id="Google__G__Logo">
            <g id="Group">
                <path d="M19.3367501,10.1079289 C19.3367501,9.43864938 19.2824842,8.76575219 19.1667169,8.1073259 L9.88001206,8.1073259 L9.88001206,11.8987036 L15.1980705,11.8987036 C14.9773892,13.1214953 14.2683147,14.2031957 13.2300271,14.8905638 L13.2300271,17.350618 L16.4027736,17.350618 C18.2659029,15.6358155 19.3367501,13.1034067 19.3367501,10.1079289 Z" id="Path" fill="#4285F4"></path>
                <path d="M9.88001206,19.7274646 C12.5354236,19.7274646 14.7747965,18.8555924 16.4063913,17.350618 L13.2336449,14.8905638 C12.3509195,15.4911064 11.2113355,15.8311727 9.88362979,15.8311727 C7.31504371,15.8311727 5.13717214,14.0982816 4.35574314,11.7684655 L1.08170033,11.7684655 L1.08170033,14.304492 C2.75309014,17.629183 6.15737112,19.7274646 9.88001206,19.7274646 Z" id="Path" fill="#34A853"></path>
                <path d="M4.35212541,11.7684655 C3.93970455,10.5456738 3.93970455,9.22158577 4.35212541,7.99879409 L4.35212541,5.46276756 L1.08170033,5.46276756 C-0.314742237,8.24479952 -0.314742237,11.5224601 1.08170033,14.304492 L4.35212541,11.7684655 Z" id="Path" fill="#FBBC04"></path>
                <path d="M9.88001206,3.9324691 C11.2836901,3.91076274 12.6403377,4.43895086 13.6569189,5.40850166 L16.4678927,2.59752789 C14.6879711,0.926138077 12.3255954,0.00723545372 9.88001206,0.0361772686 C6.15737112,0.0361772686 2.75309014,2.13445885 1.08170033,5.46276756 L4.35212541,7.99879409 C5.12993669,5.66536027 7.31142599,3.9324691 9.88001206,3.9324691 Z" id="Path" fill="#EA4335"></path>
            </g>
        </g>
    </g>
</svg>