<?xml version="1.0" encoding="UTF-8"?>
<svg width="25px" height="20px" viewBox="0 0 25 20" version="1.1" xmlns="http://www.w3.org/2000/svg" xmlns:xlink="http://www.w3.org/1999/xlink">
    <!-- Generator: Sketch 52.6 (67491) - http://www.bohemiancoding.com/sketch -->
    <title>Path</title>
    <desc>Created with Sketch.</desc>
    <g id="Page-1" stroke="none" stroke-width="1" fill="none" fill-rule="evenodd">
        <path d="M7.74048635,20 C17.0286762,20 22.1089241,12.3048027 22.1089241,5.63156222 C22.1089241,5.41299342 22.1089241,5.19540915 22.094156,4.97880943 C23.0824723,4.26394259 23.9356036,3.3788064 24.6136045,2.36484463 C23.6919521,2.7732353 22.7142507,3.04105778 21.7131374,3.15937179 C22.7673321,2.5282613 23.5563257,1.53563394 23.9332845,0.366219945 C22.9420036,0.954441099 21.8575169,1.36899003 20.7266241,1.59197745 C19.1612803,-0.0724985744 16.6739639,-0.479884934 14.6594191,0.598257247 C12.6448742,1.67639943 11.6041085,3.97194143 12.1207234,6.19767513 C8.06036056,5.99412016 4.27732835,4.07630069 1.71310687,0.921502863 C0.372770831,3.22892464 1.05738852,6.18079953 3.27656303,7.66267687 C2.47292018,7.63885833 1.68679924,7.42206725 0.984544181,7.03059951 C0.984544181,7.05127493 0.984544181,7.07293491 0.984544181,7.09459488 C0.985201987,9.49845103 2.67968459,11.5688905 5.03594349,12.044883 C4.29248424,12.2476401 3.51244071,12.2772791 2.75573916,12.1315229 C3.41730158,14.188652 5.31316608,15.5978902 7.47367488,15.6384693 C5.68548178,17.0438391 3.47648409,17.8067582 1.20212844,17.8044665 C0.800339478,17.8036951 0.398941305,17.779368 0,17.7316102 C2.30938222,19.2136215 4.99647646,19.9997213 7.74048635,19.9960618" id="Path" fill="#1DA1F2"></path>
    </g>
</svg>