<?xml version="1.0" encoding="UTF-8"?>
<svg width="300px" height="300px" viewBox="0 0 300 300" version="1.1" xmlns="http://www.w3.org/2000/svg" xmlns:xlink="http://www.w3.org/1999/xlink">
    <!-- Generator: Sketch 52.6 (67491) - http://www.bohemiancoding.com/sketch -->
    <title>Slice</title>
    <desc>Created with Sketch.</desc>
    <g id="Page-1" stroke="none" stroke-width="1" fill="none" fill-rule="evenodd">
        <g id="app-logo">
            <g id="aws" transform="translate(45.000000, 87.000000)">
                <path d="M59.1156686,45.5581395 C59.1156686,48.1395349 59.3947383,50.2325581 59.8831104,51.7674419 C60.44125,53.3023256 61.1389244,54.9767442 62.1156686,56.7906977 C62.4645058,57.3488372 62.6040407,57.9069767 62.6040407,58.3953488 C62.6040407,59.0930233 62.185436,59.7906977 61.2784593,60.4883721 L56.8831104,63.4186047 C56.2552035,63.8372093 55.6265988,64.0465116 55.0691569,64.0465116 C54.3714825,64.0465116 53.6738081,63.6976744 52.9761337,63.0697674 C51.9993895,62.0232558 51.1621802,60.9069767 50.4645058,59.7906977 C49.7668314,58.6046512 49.0691569,57.2790698 48.3017151,55.6744186 C42.8591569,62.0930233 36.0226453,65.3023256 27.7900872,65.3023256 C21.9296221,65.3023256 17.2552035,63.627907 13.8365988,60.2790698 C10.4179942,56.9302326 8.67380811,52.4651163 8.67380811,46.8837209 C8.67380811,40.9534884 10.7661337,36.1395349 15.0226453,32.5116279 C19.2784593,28.8837209 24.9296221,27.0697674 32.1156686,27.0697674 C34.4870639,27.0697674 36.9296221,27.2790698 39.5110174,27.627907 C42.0924128,27.9767442 44.7435755,28.5348837 47.5342732,29.1627907 L47.5342732,24.0697674 C47.5342732,18.7674419 46.4179942,15.0697674 44.2552035,12.9069767 C42.0226453,10.744186 38.2552035,9.69767442 32.8831104,9.69767442 C30.44125,9.69767442 27.9296221,9.97674419 25.3482267,10.6046512 C22.7668314,11.2325581 20.2552035,12 17.813343,12.9767442 C16.6970639,13.4651163 15.8598546,13.744186 15.3714825,13.8837209 C14.8831104,14.0232558 14.5342732,14.0930233 14.2545058,14.0930233 C13.2784593,14.0930233 12.7900872,13.3953488 12.7900872,11.9302326 L12.7900872,8.51162791 C12.7900872,7.39534884 12.9296221,6.55813953 13.2784593,6.06976744 C13.6272965,5.58139535 14.2545058,5.09302326 15.2319476,4.60465116 C17.6731104,3.34883721 20.6040407,2.30232558 24.0226453,1.46511628 C27.44125,0.558139535 31.0691569,0.139534884 34.9063662,0.139534884 C43.2086918,0.139534884 49.2784593,2.02325581 53.185436,5.79069767 C57.0226453,9.55813953 58.9761337,15.2790698 58.9761337,22.9534884 L58.9761337,45.5581395 L59.1156686,45.5581395 Z M30.7900872,56.1627907 C33.0924128,56.1627907 35.4638081,55.744186 37.9761337,54.9069767 C40.4877616,54.0697674 42.7203197,52.5348837 44.6040407,50.4418605 C45.7203197,49.1162791 46.5568314,47.6511628 46.9761337,45.9767442 C47.3947383,44.3023256 47.6738081,42.2790698 47.6738081,39.9069767 L47.6738081,36.9767442 C45.6505523,36.4883721 43.4877616,36.0697674 41.2552035,35.7906977 C39.0226453,35.5116279 36.8598546,35.372093 34.6970639,35.372093 C30.0226453,35.372093 26.6040407,36.2790698 24.3017151,38.1627907 C21.9993895,40.0465116 20.8831104,42.6976744 20.8831104,46.1860465 C20.8831104,49.4651163 21.7203197,51.9069767 23.4645058,53.5813953 C25.1389244,55.3255814 27.5807849,56.1627907 30.7900872,56.1627907 Z M86.813343,63.6976744 C85.557529,63.6976744 84.7203197,63.4883721 84.1621802,63 C83.6040407,62.5813953 83.1156686,61.6046512 82.6970639,60.2790698 L66.3017151,6.34883721 C65.8824128,4.95348837 65.6738081,4.04651163 65.6738081,3.55813953 C65.6738081,2.44186047 66.23125,1.81395349 67.3482267,1.81395349 L74.185436,1.81395349 C75.5103197,1.81395349 76.4179942,2.02325581 76.9063662,2.51162791 C77.4645058,2.93023256 77.8831104,3.90697674 78.3017151,5.23255814 L90.0226453,51.4186047 L100.905669,5.23255814 C101.255203,3.8372093 101.67311,2.93023256 102.231948,2.51162791 C102.790087,2.09302326 103.766134,1.81395349 105.022645,1.81395349 L110.604041,1.81395349 C111.928924,1.81395349 112.836599,2.02325581 113.394738,2.51162791 C113.952878,2.93023256 114.44125,3.90697674 114.72032,5.23255814 L125.742878,51.9767442 L137.813343,5.23255814 C138.231948,3.8372093 138.72032,2.93023256 139.208692,2.51162791 C139.766831,2.09302326 140.673808,1.81395349 141.929622,1.81395349 L148.417994,1.81395349 C149.534273,1.81395349 150.16218,2.37209302 150.16218,3.55813953 C150.16218,3.90697674 150.092413,4.25581395 150.022645,4.6744186 C149.95218,5.09302326 149.813343,5.65116279 149.534273,6.41860465 L132.72032,60.3488372 C132.301017,61.744186 131.812645,62.6511628 131.254506,63.0697674 C130.697064,63.4883721 129.790087,63.7674419 128.604041,63.7674419 L122.603343,63.7674419 C121.278459,63.7674419 120.371483,63.5581395 119.812645,63.0697674 C119.254506,62.5813953 118.766134,61.6744186 118.487762,60.2790698 L107.673808,15.2790698 L96.9296221,60.2093023 C96.5800872,61.6046512 96.1621802,62.5116279 95.6040407,63 C95.0459011,63.4883721 94.0691569,63.6976744 92.813343,63.6976744 L86.813343,63.6976744 Z M176.464506,65.5813953 C172.836599,65.5813953 169.208692,65.1627907 165.72032,64.3255814 C162.231948,63.4883721 159.511017,62.5813953 157.697064,61.5348837 C156.580785,60.9069767 155.812645,60.2093023 155.534273,59.5813953 C155.255203,58.9534884 155.115669,58.255814 155.115669,57.627907 L155.115669,54.0697674 C155.115669,52.6046512 155.673808,51.9069767 156.72032,51.9069767 C157.138924,51.9069767 157.556831,51.9767442 157.975436,52.1162791 C158.394738,52.255814 159.021948,52.5348837 159.72032,52.8139535 C162.091715,53.8604651 164.673808,54.6976744 167.394041,55.255814 C170.185436,55.8139535 172.905669,56.0930233 175.697064,56.0930233 C180.092413,56.0930233 183.511017,55.3255814 185.882413,53.7906977 C188.255203,52.255814 189.511017,50.0232558 189.511017,47.1627907 C189.511017,45.2093023 188.88311,43.6046512 187.626599,42.2790698 C186.371483,40.9534884 183.99939,39.7674419 180.580087,38.6511628 L170.464506,35.5116279 C165.371483,33.9069767 161.604041,31.5348837 159.301715,28.3953488 C156.99939,25.3255814 155.812645,21.9069767 155.812645,18.2790698 C155.812645,15.3488372 156.44125,12.7674419 157.697064,10.5348837 C158.95218,8.30232558 160.627296,6.34883721 162.72032,4.81395349 C164.813343,3.20930233 167.185436,2.02325581 169.976134,1.18604651 C172.766831,0.348837209 175.697064,0 178.766831,0 C180.301017,0 181.906366,0.0697674419 183.440552,0.279069767 C185.045901,0.488372093 186.51032,0.76744186 187.975436,1.04651163 C189.370785,1.39534884 190.696366,1.74418605 191.952878,2.1627907 C193.207994,2.58139535 194.185436,3 194.88311,3.41860465 C195.859855,3.97674419 196.557529,4.53488372 196.976134,5.1627907 C197.394738,5.72093023 197.604041,6.48837209 197.604041,7.46511628 L197.604041,10.744186 C197.604041,12.2093023 197.045901,12.9767442 195.99939,12.9767442 C195.44125,12.9767442 194.534273,12.6976744 193.348227,12.1395349 C189.371483,10.3255814 184.906366,9.41860465 179.952878,9.41860465 C175.976134,9.41860465 172.836599,10.0465116 170.673808,11.372093 C168.511017,12.6976744 167.394738,14.7209302 167.394738,17.5813953 C167.394738,19.5348837 168.092413,21.2093023 169.487762,22.5348837 C170.88311,23.8604651 173.464506,25.1860465 177.16218,26.372093 L187.069157,29.5116279 C192.092413,31.1162791 195.72032,33.3488372 197.88311,36.2093023 C200.045901,39.0697674 201.092413,42.3488372 201.092413,45.9767442 C201.092413,48.9767442 200.464506,51.6976744 199.278459,54.0697674 C198.022645,56.4418605 196.348227,58.5348837 194.185436,60.2093023 C192.022645,61.9534884 189.44125,63.2093023 186.44125,64.1162791 C183.301715,65.0930233 180.022645,65.5813953 176.464506,65.5813953 Z" id="Fill-1" fill="#252F3E"></path>
                <path d="M189.649855,99.4883721 C166.696366,116.44186 133.347529,125.44186 104.673808,125.44186 C64.4877616,125.44186 28.2784593,110.581395 0.929622061,85.8837209 C-1.23386631,83.9302326 0.720319736,81.2790698 3.30171508,82.8139535 C32.8831104,99.9767442 69.3707849,110.372093 107.115669,110.372093 C132.580785,110.372093 160.557529,105.069767 186.301715,94.1860465 C190.138924,92.4418605 193.417994,96.6976744 189.649855,99.4883721 Z M199.208692,88.6046512 C196.277762,84.8372093 179.813343,86.7906977 172.348227,87.6976744 C170.114971,87.9767442 169.766134,86.0232558 171.790087,84.5581395 C184.906366,75.3488372 206.463808,78 208.976134,81.0697674 C211.487762,84.2093023 208.278459,105.767442 195.998692,116.093023 C194.115669,117.697674 192.301715,116.860465 193.138227,114.767442 C195.928924,107.860465 202.138924,92.3023256 199.208692,88.6046512 Z" id="Fill-2" fill="#FF9900"></path>
            </g>
        </g>
    </g>
</svg>