<?xml version="1.0" encoding="UTF-8"?>
<svg width="200px" height="90px" viewBox="0 0 200 90" version="1.1" xmlns="http://www.w3.org/2000/svg" xmlns:xlink="http://www.w3.org/1999/xlink">
    <!-- Generator: Sketch 52.6 (67491) - http://www.bohemiancoding.com/sketch -->
    <title>Slice</title>
    <desc>Created with Sketch.</desc>
    <g id="Page-1" stroke="none" stroke-width="1" fill="none" fill-rule="evenodd">
        <g id="1">
            <rect id="Rectangle" fill-rule="nonzero" x="0" y="0" width="200" height="90"></rect>
            <g id="company-logo-1" transform="translate(15.000000, 17.000000)">
                <path d="M72.8796296,29.7059259 C72.8796296,37.7462963 66.5896296,43.6711111 58.8703704,43.6711111 C51.1511111,43.6711111 44.8611111,37.7462963 44.8611111,29.7059259 C44.8611111,21.6088889 51.1511111,15.7407407 58.8703704,15.7407407 C66.5896296,15.7407407 72.8796296,21.6088889 72.8796296,29.7059259 Z M66.747037,29.7059259 C66.747037,24.6814815 63.1014815,21.2437037 58.8703704,21.2437037 C54.6392593,21.2437037 50.9937037,24.6814815 50.9937037,29.7059259 C50.9937037,34.68 54.6392593,38.1681481 58.8703704,38.1681481 C63.1014815,38.1681481 66.747037,34.6737037 66.747037,29.7059259 Z" id="Shape" fill="#EA4335" fill-rule="nonzero"></path>
                <path d="M103.101852,29.7059259 C103.101852,37.7462963 96.8118519,43.6711111 89.0925926,43.6711111 C81.3733333,43.6711111 75.0833333,37.7462963 75.0833333,29.7059259 C75.0833333,21.6151852 81.3733333,15.7407407 89.0925926,15.7407407 C96.8118519,15.7407407 103.101852,21.6088889 103.101852,29.7059259 Z M96.9692593,29.7059259 C96.9692593,24.6814815 93.3237037,21.2437037 89.0925926,21.2437037 C84.8614815,21.2437037 81.2159259,24.6814815 81.2159259,29.7059259 C81.2159259,34.68 84.8614815,38.1681481 89.0925926,38.1681481 C93.3237037,38.1681481 96.9692593,34.6737037 96.9692593,29.7059259 Z" id="Shape" fill="#FBBC05" fill-rule="nonzero"></path>
                <path d="M132.064815,16.5844444 L132.064815,41.6562963 C132.064815,51.9696296 125.982593,56.1818519 118.792222,56.1818519 C112.023704,56.1818519 107.95,51.6548148 106.413704,47.9525926 L111.752963,45.73 C112.703704,48.002963 115.033333,50.6851852 118.785926,50.6851852 C123.388519,50.6851852 126.240741,47.8455556 126.240741,42.5 L126.240741,40.4914815 L126.026667,40.4914815 C124.654074,42.1851852 122.00963,43.6648148 118.672593,43.6648148 C111.69,43.6648148 105.292963,37.5825926 105.292963,29.7562963 C105.292963,21.8733333 111.69,15.7407407 118.672593,15.7407407 C122.003333,15.7407407 124.647778,17.2203704 126.026667,18.8637037 L126.240741,18.8637037 L126.240741,16.5907407 L132.064815,16.5907407 L132.064815,16.5844444 Z M126.675185,29.7562963 C126.675185,24.8388889 123.394815,21.2437037 119.22037,21.2437037 C114.989259,21.2437037 111.444444,24.8388889 111.444444,29.7562963 C111.444444,34.6233333 114.989259,38.1681481 119.22037,38.1681481 C123.394815,38.1681481 126.675185,34.6233333 126.675185,29.7562963 Z" id="Shape" fill="#4285F4" fill-rule="nonzero"></path>
                <polygon id="Path" fill="#34A853" points="141.666667 1.88888889 141.666667 42.8148148 135.685185 42.8148148 135.685185 1.88888889"></polygon>
                <path d="M164.975556,34.3022222 L169.735556,37.4755556 C168.199259,39.7485185 164.497037,43.6648148 158.1,43.6648148 C150.166667,43.6648148 144.241852,37.5322222 144.241852,29.6996296 C144.241852,21.3948148 150.217037,15.7344444 157.413704,15.7344444 C164.660741,15.7344444 168.205556,21.5018519 169.364074,24.6185185 L170,26.2051852 L151.331481,33.937037 C152.760741,36.7388889 154.983333,38.1681481 158.1,38.1681481 C161.222963,38.1681481 163.388889,36.6318519 164.975556,34.3022222 Z M150.324074,29.2777778 L162.803333,24.0959259 C162.117037,22.3518519 160.051852,21.1366667 157.621481,21.1366667 C154.504815,21.1366667 150.166667,23.8881481 150.324074,29.2777778 Z" id="Shape" fill="#EA4335" fill-rule="nonzero"></path>
                <path d="M22.2196296,26.072963 L22.2196296,20.1481481 L42.1851852,20.1481481 C42.3803704,21.1807407 42.4811111,22.4022222 42.4811111,23.7244444 C42.4811111,28.1696296 41.2659259,33.6662963 37.3496296,37.5825926 C33.5403704,41.5492593 28.6733333,43.6648148 22.2259259,43.6648148 C10.2755556,43.6648148 0.226666667,33.9307407 0.226666667,21.9803704 C0.226666667,10.03 10.2755556,0.295925926 22.2259259,0.295925926 C28.837037,0.295925926 33.5466667,2.89 37.0851852,6.27111111 L32.9044444,10.4518519 C30.367037,8.07185185 26.9292593,6.22074074 22.2196296,6.22074074 C13.492963,6.22074074 6.66777778,13.2537037 6.66777778,21.9803704 C6.66777778,30.707037 13.492963,37.74 22.2196296,37.74 C27.88,37.74 31.1037037,35.467037 33.1688889,33.4018519 C34.8437037,31.727037 35.9455556,29.3344444 36.38,26.0666667 L22.2196296,26.072963 Z" id="Path" fill="#4285F4"></path>
            </g>
        </g>
    </g>
</svg>