<?xml version="1.0" encoding="UTF-8"?>
<svg width="200px" height="90px" viewBox="0 0 200 90" version="1.1" xmlns="http://www.w3.org/2000/svg" xmlns:xlink="http://www.w3.org/1999/xlink">
    <!-- Generator: Sketch 52.6 (67491) - http://www.bohemiancoding.com/sketch -->
    <title>Slice</title>
    <desc>Created with Sketch.</desc>
    <g id="Page-1" stroke="none" stroke-width="1" fill="none" fill-rule="evenodd">
        <g id="7" transform="translate(10.000000, 33.000000)" fill="#F80000" fill-rule="nonzero">
            <g id="company-logo-7">
                <path d="M74.8117097,14.9390691 L86.2450594,14.9390691 L80.1995119,5.2126875 L69.1038478,22.7984119 L64.0540181,22.7984119 L77.5500441,1.67420812 C78.1368412,0.820701562 79.1147869,0.305055 80.1995119,0.305055 C81.2485406,0.305055 82.2265031,0.802929375 82.7955281,1.63864687 L96.3448875,22.7984119 L91.2950437,22.7984119 L88.9123219,18.8687419 L77.3366259,18.8687419 L74.8117097,14.9390691 Z M127.266609,18.8687419 L127.266609,0.518430937 L122.981316,0.518430937 L122.981316,20.6646609 C122.981316,21.2158828 123.194728,21.7493156 123.603666,22.1582812 C124.012575,22.5672609 124.563825,22.7984119 125.1684,22.7984119 L144.7101,22.7984119 L147.235022,18.8687419 L127.266609,18.8687419 Z M56.3724928,15.5791997 C60.5333841,15.5791997 63.911835,12.2185378 63.911835,8.05770281 C63.911835,3.89688188 60.5333841,0.518430937 56.3724928,0.518430937 L37.6255884,0.518430937 L37.6255884,22.7984119 L41.9091834,22.7984119 L41.9091834,4.44810375 L56.0879803,4.44810375 C58.0795622,4.44810375 59.6798494,6.06619125 59.6798494,8.05770281 C59.6798494,10.0492116 58.0795622,11.6673159 56.0879803,11.6673159 L44.0074041,11.6495269 L56.7991884,22.7984119 L63.0227531,22.7984119 L54.4166016,15.5791997 L56.3724928,15.5791997 Z M11.2560216,22.7984119 C5.10539625,22.7984119 0.114148125,17.8196456 0.114148125,11.6673159 C0.114148125,5.51497219 5.10539625,0.518430937 11.2560216,0.518430937 L24.2060569,0.518430937 C30.3583866,0.518430937 35.3460825,5.51497219 35.3460825,11.6673159 C35.3460825,17.8196456 30.3583866,22.7984119 24.2060569,22.7984119 L11.2560216,22.7984119 Z M23.9179922,18.8687419 C27.9028575,18.8687419 31.1301647,15.6503194 31.1301647,11.6673159 C31.1301647,7.68429562 27.9028575,4.44810375 23.9179922,4.44810375 L11.5422384,4.44810375 C7.55922094,4.44810375 4.33006312,7.68429562 4.33006312,11.6673159 C4.33006312,15.6503194 7.55922094,18.8687419 11.5422384,18.8687419 L23.9179922,18.8687419 Z M105.288863,22.7984119 C99.1365188,22.7984119 94.1400281,17.8196456 94.1400281,11.6673159 C94.1400281,5.51497219 99.1365188,0.518430937 105.288863,0.518430937 L120.669694,0.518430937 L118.162547,4.44810375 L105.573375,4.44810375 C101.590341,4.44810375 98.3542219,7.68429562 98.3542219,11.6673159 C98.3542219,15.6503194 101.590341,18.8687419 105.573375,18.8687419 L121.025278,18.8687419 L118.500384,22.7984119 L105.288863,22.7984119 Z M157.690434,18.8687419 C154.40085,18.8687419 151.609191,16.6638544 150.755653,13.6232494 L169.070456,13.6232494 L171.595378,9.69357937 L150.755653,9.69357937 C151.609191,6.67076062 154.40085,4.44810375 157.690434,4.44810375 L170.261831,4.44810375 L172.804528,0.518430937 L157.405922,0.518430937 C151.253578,0.518430937 146.257088,5.51497219 146.257088,11.6673159 C146.257088,17.8196456 151.253578,22.7984119 157.405922,22.7984119 L170.617444,22.7984119 L173.142337,18.8687419 L157.690434,18.8687419 Z" id="path16197"></path>
                <path d="M175.098375,2.88334687 C175.098375,1.79867531 175.969547,0.927396563 177.054272,0.927396563 C178.156772,0.927396563 179.027944,1.79867531 179.027944,2.88334687 C179.027944,3.98577375 178.156772,4.85706938 177.054272,4.85706938 C175.969547,4.85706938 175.098375,3.98577375 175.098375,2.88334687 Z M177.054272,5.40828844 C178.441144,5.40828844 179.561419,4.28805844 179.561419,2.90111906 C179.561419,1.51417969 178.441144,0.39396375 177.054272,0.39396375 C175.685034,0.39396375 174.5649,1.51417969 174.5649,2.90111906 C174.5649,4.28805844 175.685034,5.40828844 177.054272,5.40828844 Z M176.823084,1.40749875 C177.214247,1.40749875 177.374334,1.42527094 177.552197,1.49639062 C178.050009,1.65643594 178.103306,2.10096 178.103306,2.2787775 C178.103306,2.31433875 178.103306,2.40324469 178.067756,2.50992562 C178.050009,2.61662344 177.978909,2.82999938 177.729947,2.99002781 C177.694397,3.00781406 177.676622,3.02558906 177.605522,3.0611475 L178.245647,4.21693875 L177.623297,4.21693875 L177.054272,3.15005625 L176.663137,3.15005625 L176.663137,4.21693875 L176.111887,4.21693875 L176.111887,1.40749875 L176.823084,1.40749875 Z M177.018722,2.68774313 C177.196472,2.66997094 177.374334,2.66997094 177.480984,2.50992562 C177.534281,2.43880594 177.552197,2.36768625 177.552197,2.26098844 C177.552197,2.11874906 177.463209,1.99427906 177.338784,1.92314531 C177.214247,1.86981187 177.089822,1.86981187 176.823084,1.86981187 L176.663137,1.86981187 L176.663137,2.68774313 L177.018722,2.68774313 Z" id="path16199"></path>
            </g>
        </g>
    </g>
</svg>