<?xml version="1.0" encoding="UTF-8"?>
<svg width="200px" height="90px" viewBox="0 0 200 90" version="1.1" xmlns="http://www.w3.org/2000/svg" xmlns:xlink="http://www.w3.org/1999/xlink">
    <!-- Generator: Sketch 52.6 (67491) - http://www.bohemiancoding.com/sketch -->
    <title>Slice</title>
    <desc>Created with Sketch.</desc>
    <g id="Page-1" stroke="none" stroke-width="1" fill="none" fill-rule="evenodd">
        <g id="3">
            <rect id="Rectangle-Copy-2" fill-rule="nonzero" x="0" y="0" width="200" height="90"></rect>
            <g id="company-logo-3" transform="translate(22.000000, 25.000000)">
                <g id="Group" transform="translate(50.078740, 0.629921)" fill="#000000">
                    <path d="M0.157480315,30.7086614 L2.11023622,26.1732283 C4.22047244,27.7480315 7.02362205,28.5669291 9.79527559,28.5669291 C11.8425197,28.5669291 13.1338583,27.7795276 13.1338583,26.5826772 C13.1023622,23.2440945 0.881889764,25.8582677 0.787401575,17.480315 C0.755905512,13.2283465 4.53543307,9.95275591 9.88976378,9.95275591 C13.0708661,9.95275591 16.2519685,10.7401575 18.519685,12.5354331 L16.6929134,17.1653543 C14.6141732,15.8425197 12.0314961,14.8976378 9.57480315,14.8976378 C7.90551181,14.8976378 6.80314961,15.6850394 6.80314961,16.6929134 C6.83464567,19.9685039 19.1496063,18.1732283 19.2755906,26.1732283 C19.2755906,30.519685 15.5905512,33.5748031 10.2992126,33.5748031 C6.42519685,33.5748031 2.86614173,32.6614173 0.157480315,30.7086614" id="Path"></path>
                    <path d="M75.0866142,24.5354331 C74.1102362,26.2362205 72.2834646,27.4015748 70.1732283,27.4015748 C67.0551181,27.4015748 64.5354331,24.8818898 64.5354331,21.7637795 C64.5354331,18.6456693 67.0551181,16.1259843 70.1732283,16.1259843 C72.2834646,16.1259843 74.1102362,17.2913386 75.0866142,18.992126 L80.4724409,16 C78.4566929,12.4094488 74.5826772,9.95275591 70.1732283,9.95275591 C63.6535433,9.95275591 58.3622047,15.2440945 58.3622047,21.7637795 C58.3622047,28.2834646 63.6535433,33.5748031 70.1732283,33.5748031 C74.6141732,33.5748031 78.4566929,31.1496063 80.4724409,27.5275591 L75.0866142,24.5354331 Z" id="Path"></path>
                    <rect id="Rectangle" x="21.984252" y="0.157480315" width="6.74015748" height="32.976378"></rect>
                    <polygon id="Path" points="83.1181102 0.157480315 83.1181102 33.1338583 89.8582677 33.1338583 89.8582677 23.2440945 97.8582677 33.1338583 106.488189 33.1338583 96.3149606 21.3858268 105.732283 10.4251969 97.480315 10.4251969 89.8582677 19.5275591 89.8582677 0.157480315"></polygon>
                    <path d="M48.7559055,24.5984252 C47.7795276,26.2047244 45.7637795,27.4015748 43.496063,27.4015748 C40.3779528,27.4015748 37.8582677,24.8818898 37.8582677,21.7637795 C37.8582677,18.6456693 40.3779528,16.1259843 43.496063,16.1259843 C45.7637795,16.1259843 47.7795276,17.3858268 48.7559055,19.023622 L48.7559055,24.5984252 Z M48.7559055,10.4251969 L48.7559055,13.1023622 C47.6535433,11.2440945 44.9133858,9.95275591 42.0472441,9.95275591 C36.1259843,9.95275591 31.4645669,15.1811024 31.4645669,21.7322835 C31.4645669,28.2834646 36.1259843,33.5748031 42.0472441,33.5748031 C44.9133858,33.5748031 47.6535433,32.2834646 48.7559055,30.4251969 L48.7559055,33.1023622 L55.496063,33.1023622 L55.496063,10.4251969 L48.7559055,10.4251969 Z" id="Shape" fill-rule="nonzero"></path>
                </g>
                <g id="Group">
                    <g transform="translate(0.000000, 20.787402)" fill="#E01E5A" id="Path">
                        <path d="M8.56692913,4.40944882 C8.56692913,6.70866142 6.70866142,8.56692913 4.40944882,8.56692913 C2.11023622,8.56692913 0.251968504,6.70866142 0.251968504,4.40944882 C0.251968504,2.11023622 2.11023622,0.251968504 4.40944882,0.251968504 L8.56692913,0.251968504 L8.56692913,4.40944882 Z"></path>
                        <path d="M10.6456693,4.40944882 C10.6456693,2.11023622 12.503937,0.251968504 14.8031496,0.251968504 C17.1023622,0.251968504 18.9606299,2.11023622 18.9606299,4.40944882 L18.9606299,14.8031496 C18.9606299,17.1023622 17.1023622,18.9606299 14.8031496,18.9606299 C12.503937,18.9606299 10.6456693,17.1023622 10.6456693,14.8031496 L10.6456693,4.40944882 Z"></path>
                    </g>
                    <g fill="#36C5F0" id="Path">
                        <path d="M14.8031496,8.50393701 C12.503937,8.50393701 10.6456693,6.64566929 10.6456693,4.34645669 C10.6456693,2.04724409 12.503937,0.188976378 14.8031496,0.188976378 C17.1023622,0.188976378 18.9606299,2.04724409 18.9606299,4.34645669 L18.9606299,8.50393701 L14.8031496,8.50393701 Z"></path>
                        <path d="M14.8031496,10.6141732 C17.1023622,10.6141732 18.9606299,12.4724409 18.9606299,14.7716535 C18.9606299,17.0708661 17.1023622,18.9291339 14.8031496,18.9291339 L4.37795276,18.9291339 C2.07874016,18.9291339 0.220472441,17.0708661 0.220472441,14.7716535 C0.220472441,12.4724409 2.07874016,10.6141732 4.37795276,10.6141732 L14.8031496,10.6141732 Z"></path>
                    </g>
                    <g transform="translate(20.787402, 0.000000)" fill="#2EB67D" id="Path">
                        <path d="M10.6771654,14.7716535 C10.6771654,12.4724409 12.5354331,10.6141732 14.8346457,10.6141732 C17.1338583,10.6141732 18.992126,12.4724409 18.992126,14.7716535 C18.992126,17.0708661 17.1338583,18.9291339 14.8346457,18.9291339 L10.6771654,18.9291339 L10.6771654,14.7716535 Z"></path>
                        <path d="M8.5984252,14.7716535 C8.5984252,17.0708661 6.74015748,18.9291339 4.44094488,18.9291339 C2.14173228,18.9291339 0.283464567,17.0708661 0.283464567,14.7716535 L0.283464567,4.34645669 C0.283464567,2.04724409 2.14173228,0.188976378 4.44094488,0.188976378 C6.74015748,0.188976378 8.5984252,2.04724409 8.5984252,4.34645669 L8.5984252,14.7716535 Z"></path>
                    </g>
                    <g transform="translate(20.787402, 20.787402)" fill="#ECB22E" id="Path">
                        <path d="M4.44094488,10.6456693 C6.74015748,10.6456693 8.5984252,12.503937 8.5984252,14.8031496 C8.5984252,17.1023622 6.74015748,18.9606299 4.44094488,18.9606299 C2.14173228,18.9606299 0.283464567,17.1023622 0.283464567,14.8031496 L0.283464567,10.6456693 L4.44094488,10.6456693 Z"></path>
                        <path d="M4.44094488,8.56692913 C2.14173228,8.56692913 0.283464567,6.70866142 0.283464567,4.40944882 C0.283464567,2.11023622 2.14173228,0.251968504 4.44094488,0.251968504 L14.8661417,0.251968504 C17.1653543,0.251968504 19.023622,2.11023622 19.023622,4.40944882 C19.023622,6.70866142 17.1653543,8.56692913 14.8661417,8.56692913 L4.44094488,8.56692913 Z"></path>
                    </g>
                </g>
            </g>
        </g>
    </g>
</svg>