<?xml version="1.0" encoding="UTF-8"?>
<svg width="200px" height="90px" viewBox="0 0 200 90" version="1.1" xmlns="http://www.w3.org/2000/svg" xmlns:xlink="http://www.w3.org/1999/xlink">
    <!-- Generator: Sketch 52.6 (67491) - http://www.bohemiancoding.com/sketch -->
    <title>Slice</title>
    <desc>Created with Sketch.</desc>
    <g id="Page-1" stroke="none" stroke-width="1" fill="none" fill-rule="evenodd">
        <g id="4">
            <rect id="Rectangle-Copy-3" fill-rule="nonzero" x="0" y="0" width="200" height="90"></rect>
            <g id="company-logo-4" transform="translate(25.000000, 30.000000)">
                <path d="M92.440794,35.1161195 C83.7817674,41.4985083 71.2310349,44.9037432 60.425094,44.9037432 C45.2734137,44.9037432 31.6330167,39.299698 21.3135288,29.9790805 C20.5027599,29.2461392 21.229206,28.2472733 22.2021343,28.8180522 C33.3388743,35.2977333 47.1090025,39.1959179 61.3331583,39.1959179 C70.9261868,39.1959179 81.4791755,37.2111482 91.1824763,33.0924382 C92.6483483,32.4697619 93.8742333,34.0523896 92.440794,35.1161195" id="path8" fill="#FF9900"></path>
                <path d="M96.0406152,30.9974081 C94.9379632,29.5834247 88.7242202,30.3293325 85.9351724,30.6601272 C85.0854815,30.7639073 84.9557637,30.0244828 85.7211258,29.4926141 C90.6700694,26.0095455 98.7907485,27.0149022 99.7377273,28.1824093 C100.684705,29.3564071 99.491254,37.496545 94.8406724,41.3817526 C94.1271944,41.978478 93.4461477,41.6606603 93.7639714,40.8693457 C94.8082425,38.2619071 97.1497505,32.4178778 96.0406152,30.9974081" id="path10" fill="#FF9900"></path>
                <path d="M86.1297571,4.90357118 L86.1297571,1.51779472 C86.1297571,1.00538808 86.5189267,0.661621753 86.9859313,0.661621753 L102.14409,0.661621753 C102.630555,0.661621753 103.019725,1.01187508 103.019725,1.51779472 L103.019725,4.41710985 C103.013243,4.90357118 102.60461,5.5392151 101.878157,6.54457008 L94.0234157,17.7591472 C96.9421917,17.6878043 100.02312,18.1223717 102.669474,19.6141902 C103.2662,19.9514697 103.428355,20.4444179 103.473757,20.9308843 L103.473757,24.543678 C103.473757,25.0366247 102.928919,25.6138882 102.358137,25.3155278 C97.6945843,22.8702427 91.5002985,22.6043106 86.3437992,25.3414743 C85.8184212,25.6268667 85.2670982,25.0560849 85.2670982,24.5631338 L85.2670982,21.1319553 C85.2670982,20.5806323 85.27358,19.6401338 85.824903,18.8034199 L94.9249922,5.75325939 L87.0053886,5.75325939 C86.5189267,5.75325939 86.1297571,5.40949589 86.1297571,4.90357118" id="path12" fill="#000000"></path>
                <path d="M30.8352159,26.0290043 L26.2235548,26.0290043 C25.7824982,25.9965775 25.4322447,25.6657828 25.3998119,25.2441775 L25.3998119,1.57617477 C25.3998119,1.10268478 25.7954692,0.726484336 26.2884159,0.726484336 L30.5887411,0.726484336 C31.0362914,0.7459297 31.3930252,1.08970839 31.4254594,1.51779472 L31.4254594,4.61169849 L31.5097793,4.61169849 C32.6318841,1.62157351 34.7398853,0.227048409 37.5808262,0.227048409 C40.4671679,0.227048409 42.2703224,1.62157351 43.5675546,4.61169849 C44.6831747,1.62157351 47.2192629,0.227048409 49.9369679,0.227048409 C51.8698445,0.227048409 53.9843334,1.02484641 55.275081,2.8150276 C56.7344667,4.80627939 56.4361018,7.69910767 56.4361018,10.2352007 L56.42962,25.1728346 C56.42962,25.6463225 56.0339627,26.0290043 55.5410161,26.0290043 L50.9358368,26.0290043 C50.4753228,25.9965775 50.1056121,25.6268667 50.1056121,25.1728346 L50.1056121,12.6285935 C50.1056121,11.6297253 50.1964123,9.13903838 49.9758869,8.19205584 C49.6321212,6.60295028 48.6008225,6.15540055 47.2646682,6.15540055 C46.1490482,6.15540055 44.9815411,6.90130982 44.5080502,8.09476659 C44.0345593,9.28822068 44.0799631,11.2859546 44.0799631,12.6285935 L44.0799631,25.1728346 C44.0799631,25.6463225 43.6843073,26.0290043 43.1913576,26.0290043 L38.5861858,26.0290043 C38.1191811,25.9965775 37.7559551,25.6268667 37.7559551,25.1728346 L37.7494733,12.6285935 C37.7494733,9.98872644 38.1840407,6.10351227 34.9085339,6.10351227 C31.5941007,6.10351227 31.7238243,9.89142988 31.7238243,12.6285935 L31.7238243,25.1728346 C31.7238243,25.6463225 31.3281671,26.0290043 30.8352204,26.0290043" id="path14" fill="#000000"></path>
                <path d="M116.069886,0.227048409 C122.912788,0.227048409 126.616384,6.10351227 126.616384,13.5755735 C126.616384,20.7946714 122.523611,26.5219525 116.069886,26.5219525 C109.350219,26.5219525 105.692022,20.6454889 105.692022,13.3226124 C105.692022,5.95432982 109.395621,0.227048409 116.069886,0.227048409 M116.1088,5.05924301 C112.710053,5.05924301 112.496007,9.69035916 112.496007,12.5767053 C112.496007,15.4695338 112.450604,21.6443593 116.069886,21.6443593 C119.64376,21.6443593 119.812403,16.6629904 119.812403,13.6274592 C119.812403,11.6297253 119.728082,9.24281702 119.124866,7.34885449 C118.605973,5.70137379 117.574677,5.05924301 116.1088,5.05924301" id="path16" fill="#000000"></path>
                <path d="M135.489457,26.0290043 L130.897255,26.0290043 C130.436735,25.9965775 130.067024,25.6268667 130.067024,25.1728346 L130.060542,1.49833639 C130.09946,1.06376321 130.482146,0.726484336 130.949148,0.726484336 L135.223532,0.726484336 C135.62567,0.7459297 135.956465,1.01836194 136.047275,1.38807329 L136.047275,5.00734982 L136.131591,5.00734982 C137.422341,1.77075596 139.231974,0.227048409 142.416681,0.227048409 C144.485768,0.227048409 146.502966,0.972958276 147.800198,3.01609833 C149.006623,4.91005803 149.006623,8.09476659 149.006623,10.3843781 L149.006623,25.2830995 C148.954735,25.6982096 148.572049,26.0290043 148.118023,26.0290043 L143.493386,26.0290043 C143.071783,25.9965775 142.721529,25.6852416 142.676131,25.2830995 L142.676131,12.4275232 C142.676131,9.83954414 142.974493,6.05162161 139.789785,6.05162161 C138.667682,6.05162161 137.63638,6.80402056 137.123973,7.94558161 C136.475359,9.39199962 136.391038,10.8319278 136.391038,12.4275232 L136.391038,25.1728346 C136.384556,25.6463225 135.982411,26.0290043 135.489464,26.0290043" id="path18" fill="#000000"></path>
                <path d="M74.0460338,14.7236239 C74.0460338,16.5202897 74.0914361,18.018593 73.1833733,19.6141902 C72.4504381,20.911427 71.2829295,21.7092233 69.9921849,21.7092233 C68.2214618,21.7092233 67.1836753,20.360098 67.1836753,18.3688465 C67.1836753,14.4382332 70.7056599,13.7247561 74.0460338,13.7247561 L74.0460338,14.7236239 M78.6966139,25.9641432 C78.3917672,26.2365616 77.9507031,26.2560189 77.6069389,26.0744096 C76.0762013,24.8031224 75.7972982,24.2128833 74.9605843,22.9999709 C72.4309793,25.5814614 70.6343096,26.3533127 67.3587983,26.3533127 C63.4735863,26.3533127 60.4575238,23.9599177 60.4575238,19.1666488 C60.4575238,15.42413 62.4812096,12.8750679 65.3740376,11.6297253 C67.8776945,10.5270738 71.3737311,10.3324925 74.0460338,10.0276432 L74.0460338,9.43091627 C74.0460338,8.33475129 74.1303551,7.03751841 73.4817382,6.09054348 C72.923929,5.24085273 71.847222,4.89059985 70.8937584,4.89059985 C69.1360063,4.89059985 67.5728449,5.79217619 67.1901586,7.66019086 C67.112325,8.07530811 66.8074783,8.48393627 66.385873,8.5033946 L61.9169096,8.02341522 C61.5407096,7.93909967 61.1191118,7.63424553 61.2293767,7.05698166 C62.2541906,1.6345499 67.1577318,3.23463695e-05 71.5423738,3.23463695e-05 C73.7865879,3.23463695e-05 76.718332,0.596760661 78.4890551,2.29613409 C80.7332647,4.39116452 80.5192242,7.18670086 80.5192242,10.2287138 L80.5192242,17.4153815 C80.5192242,19.5752772 81.4143144,20.5222515 82.2575146,21.6897661 C82.5493962,22.1048762 82.6142573,22.6043106 82.2380379,22.9156465 C81.2975454,23.7004763 79.6241131,25.1598621 78.7030793,25.9771172 L78.6965975,25.9641238" id="path28" fill="#000000"></path>
                <path d="M13.5885119,14.7236239 C13.5885119,16.5202897 13.6339105,18.018593 12.725852,19.6141902 C11.9929116,20.911427 10.8318895,21.7092233 9.53465662,21.7092233 C7.76393374,21.7092233 6.73263581,20.360098 6.73263581,18.3688465 C6.73263581,14.4382332 10.2546209,13.7247561 13.5885119,13.7247561 L13.5885119,14.7236239 M18.2390886,25.9641432 C17.9342404,26.2365616 17.4931763,26.2560189 17.1494106,26.0744096 C15.6186805,24.8031224 15.3462576,24.2128833 14.5030572,22.9999709 C11.9734531,25.5814614 10.1832768,26.3533127 6.90127406,26.3533127 C3.02254689,26.3533127 -3.19045679e-07,23.9599177 -3.19045679e-07,19.1666488 C-3.19045679e-07,15.42413 2.03016815,12.8750679 4.91650942,11.6297253 C7.42016772,10.5270738 10.9162098,10.3324925 13.5885119,10.0276432 L13.5885119,9.43091627 C13.5885119,8.33475129 13.6728323,7.03751841 13.0307016,6.09054348 C12.4664016,5.24085273 11.3897024,4.89059985 10.4427198,4.89059985 C8.68497348,4.89059985 7.11531864,5.79217619 6.73263581,7.66019086 C6.65480012,8.07530811 6.34995075,8.48393627 5.93483841,8.5033946 L1.45938639,8.02341522 C1.08318816,7.93909967 0.668073248,7.63424553 0.77185198,7.05698166 C1.80315238,1.6345499 6.70020363,3.23463695e-05 11.0848531,3.23463695e-05 C13.3290614,3.23463695e-05 16.2608066,0.596760661 18.0315298,2.29613409 C20.2757439,4.39116452 20.0616974,7.18670086 20.0616974,10.2287138 L20.0616974,17.4153815 C20.0616974,19.5752772 20.9567921,20.5222515 21.7999937,21.6897661 C22.0983556,22.1048762 22.1632167,22.6043106 21.7870152,22.9156465 C20.8465227,23.7004763 19.1730949,25.1598621 18.2520551,25.9771172 L18.2390916,25.9641238" id="path30" fill="#000000"></path>
            </g>
        </g>
    </g>
</svg>