<?xml version="1.0" encoding="UTF-8"?>
<svg width="200px" height="90px" viewBox="0 0 200 90" version="1.1" xmlns="http://www.w3.org/2000/svg" xmlns:xlink="http://www.w3.org/1999/xlink">
    <!-- Generator: Sketch 52.6 (67491) - http://www.bohemiancoding.com/sketch -->
    <title>Slice</title>
    <desc>Created with Sketch.</desc>
    <defs>
        <linearGradient x1="99.684716%" y1="15.8138128%" x2="39.8444399%" y2="97.4388388%" id="linearGradient-1">
            <stop stop-color="#0052CC" offset="0%"></stop>
            <stop stop-color="#2684FF" offset="92.3%"></stop>
        </linearGradient>
    </defs>
    <g id="Page-1" stroke="none" stroke-width="1" fill="none" fill-rule="evenodd">
        <g id="2">
            <rect id="Rectangle-Copy" fill-rule="nonzero" x="0" y="0" width="200" height="90"></rect>
            <g id="company-logo-2" transform="translate(0.000000, 32.000000)">
                <path d="M7.62322097,11.6535581 C7.4755441,11.4603126 7.2376087,11.3583028 6.99581922,11.3845726 C6.75402974,11.4108424 6.54355373,11.561571 6.44082397,11.7820225 L0.449438202,23.7610487 C0.338463289,23.983022 0.350326032,24.246628 0.480790388,24.4577361 C0.611254744,24.6688442 0.841719183,24.7973548 1.08988764,24.7973783 L9.43258427,24.7973783 C9.70557957,24.8037163 9.95664925,24.648523 10.0730337,24.4014981 C11.8726592,20.6827715 10.7820225,15.0284644 7.62322097,11.6535581 Z" id="Path" fill="url(#linearGradient-1)"></path>
                <path d="M12.017603,0.758052434 C8.98048249,5.43120849 8.62995254,11.3587653 11.0951311,16.3573034 L15.1172285,24.4014981 C15.2385146,24.6440961 15.4864509,24.7973526 15.7576779,24.7973783 L24.0988764,24.7973783 C24.3470449,24.7973548 24.5775093,24.6688442 24.7079737,24.4577361 C24.838438,24.246628 24.8503008,23.983022 24.7393258,23.7610487 C24.7393258,23.7610487 13.517603,1.31498127 13.2355805,0.753558052 C13.1218,0.520364832 12.884651,0.372810768 12.625182,0.373768218 C12.365713,0.374725668 12.1296594,0.524025868 12.017603,0.758052434 Z" id="Path" fill="#2684FF"></path>
                <path d="M109.855431,10.3629213 C109.855431,13.3292135 111.231461,15.6842697 116.613858,16.72397 C119.825094,17.3981273 120.497753,17.9164794 120.497753,18.9868914 C120.497753,20.0265918 119.823596,20.6996255 117.561798,20.6996255 C114.82813,20.6504748 112.149116,19.9255544 109.76367,18.5895131 L109.76367,23.4209738 C111.384644,24.2161049 113.525094,25.1029963 117.500749,25.1029963 C123.127715,25.1029963 125.3603,22.593633 125.3603,18.8644195 M125.3603,18.8644195 C125.3603,15.3475655 123.494757,13.6958801 118.234831,12.564794 C115.329588,11.9224719 114.626217,11.2805243 114.626217,10.3629213 C114.626217,9.20187266 115.665918,8.71161049 117.592509,8.71161049 C119.916854,8.71161049 122.210487,9.41498127 124.381648,10.393633 L124.381648,5.77565543 C122.29975,4.82807625 120.032339,4.35793301 117.745318,4.39962547 C112.546442,4.39962547 109.855431,6.66254682 109.855431,10.3629213" id="Shape" fill="#0052CC" fill-rule="nonzero"></path>
                <polygon id="Path" fill="#0052CC" points="182.146816 4.70524345 182.146816 24.7973783 186.42809 24.7973783 186.42809 9.47602996 188.232584 13.5430712 194.28764 24.7973783 199.670037 24.7973783 199.670037 4.70524345 195.388764 4.70524345 195.388764 17.6719101 193.76779 13.9101124 188.905243 4.70524345"></polygon>
                <rect id="Rectangle" fill="#0052CC" x="150.237079" y="4.70524345" width="4.67902622" height="20.0921348"></rect>
                <path d="M144.838202,18.8644195 C144.838202,15.3475655 142.972659,13.6958801 137.712734,12.564794 C134.807491,11.9224719 134.10412,11.2805243 134.10412,10.3629213 C134.10412,9.20187266 135.14382,8.71161049 137.070412,8.71161049 C139.394757,8.71161049 141.68839,9.41498127 143.859551,10.393633 L143.859551,5.77565543 C141.777653,4.82807625 139.510242,4.35793301 137.223221,4.39962547 C132.024345,4.39962547 129.333333,6.66254682 129.333333,10.3629213 C129.333333,13.3292135 130.709363,15.6842697 136.09176,16.72397 C139.302996,17.3981273 139.975655,17.9164794 139.975655,18.9868914 C139.975655,20.0265918 139.301498,20.6996255 137.0397,20.6996255 C134.306033,20.6504748 131.627018,19.9255544 129.241573,18.5895131 L129.241573,23.4209738 C130.862547,24.2161049 133.002996,25.1029963 136.978652,25.1029963 C142.605618,25.1029963 144.838202,22.593633 144.838202,18.8644195" id="Path" fill="#0052CC"></path>
                <polygon id="Path" fill="#0052CC" points="73.5074906 4.70524345 73.5074906 24.7973783 83.1247191 24.7973783 84.6389513 20.4546816 78.2168539 20.4546816 78.2168539 4.70524345"></polygon>
                <polygon id="Path" fill="#0052CC" points="54.5067416 4.70524345 54.5067416 9.04756554 59.705618 9.04756554 59.705618 24.7973783 64.4149813 24.7973783 64.4149813 9.04756554 69.9808989 9.04756554 69.9808989 4.70524345"></polygon>
                <path d="M47.6779026,4.70524345 L41.5059925,4.70524345 L34.4996255,24.7973783 L39.8501873,24.7973783 L40.8434457,21.4134831 C43.2896841,22.1317823 45.8908402,22.1317823 48.3370787,21.4134831 L49.3303371,24.7973783 L54.6820225,24.7973783 L47.6779026,4.70524345 Z M44.5917603,17.7902622 C43.720186,17.7902116 42.8531009,17.6654775 42.0168539,17.4198502 L44.5917603,8.65168539 L47.1666667,17.4228464 C46.3302725,17.66746 45.4631903,17.7911848 44.5917603,17.7902622 Z" id="Shape" fill="#0052CC" fill-rule="nonzero"></path>
                <path d="M99.7044944,4.70524345 L93.5329588,4.70524345 L86.5265918,24.7973783 L91.8782772,24.7973783 L92.8715356,21.4134831 C95.317774,22.1317823 97.9189301,22.1317823 100.365169,21.4134831 L101.358427,24.7973783 L106.710112,24.7973783 L99.7044944,4.70524345 Z M96.6187266,17.7902622 C95.7471523,17.7902116 94.8800672,17.6654775 94.0438202,17.4198502 L96.6187266,8.65168539 L99.193633,17.4228464 C98.3572388,17.66746 97.4901565,17.7911848 96.6187266,17.7902622 Z" id="Shape" fill="#0052CC" fill-rule="nonzero"></path>
                <path d="M171.776779,4.70524345 L165.605243,4.70524345 L158.598876,24.7973783 L163.950562,24.7973783 L164.94382,21.4134831 C167.390059,22.1317823 169.991215,22.1317823 172.437453,21.4134831 L173.430712,24.7973783 L178.782772,24.7973783 L171.776779,4.70524345 Z M168.689139,17.7902622 C167.817564,17.7902116 166.950479,17.6654775 166.114232,17.4198502 L168.689139,8.65168539 L171.264045,17.4228464 C170.427651,17.66746 169.560569,17.7911848 168.689139,17.7902622 Z" id="Shape" fill="#0052CC" fill-rule="nonzero"></path>
            </g>
        </g>
    </g>
</svg>