<?xml version="1.0" encoding="UTF-8"?>
<svg width="200px" height="88px" viewBox="0 0 200 88" version="1.1" xmlns="http://www.w3.org/2000/svg" xmlns:xlink="http://www.w3.org/1999/xlink">
    <!-- Generator: Sketch 52.6 (67491) - http://www.bohemiancoding.com/sketch -->
    <title>5</title>
    <desc>Created with Sketch.</desc>
    <g id="Page-1" stroke="none" stroke-width="1" fill="none" fill-rule="evenodd">
        <g id="5" transform="translate(0.000000, -2.000000)">
            <rect id="Rectangle-Copy-3" fill-rule="nonzero" x="0" y="0" width="200" height="90"></rect>
            <g id="company-logo-5" transform="translate(26.000000, 25.000000)">
                <g id="g10" transform="translate(74.295775, 19.929577) scale(-1, 1) rotate(-180.000000) translate(-74.295775, -19.929577) translate(0.000000, 0.035211)">
                    <g id="g12">
                        <path d="M17.8064437,39.5397887 L6.26485915,39.5397887 C5.47492958,39.5397887 4.80330986,38.9658451 4.68007042,38.1859155 L0.0121038732,8.59017606 C-0.0807383803,8.00644366 0.371644366,7.47978873 0.963908451,7.47978873 L6.4740493,7.47978873 C7.26383803,7.47978873 7.93545775,8.05348592 8.05869718,8.83485915 L9.31764085,16.8172183 C9.43922535,17.5987676 10.1125,18.1726056 10.9006338,18.1726056 L14.5543662,18.1726056 C22.1571127,18.1726056 26.5448944,21.8516197 27.6909155,29.1421479 C28.2072535,32.3317958 27.7127817,34.8378521 26.2191901,36.5929577 C24.578838,38.5204225 21.6693662,39.5397887 17.8064437,39.5397887 Z M19.1380282,28.7303169 C18.506831,24.5888732 15.3425,24.5888732 12.2828169,24.5888732 L10.5412324,24.5888732 L11.7630282,32.3232394 C11.835669,32.7907746 12.2405986,33.1350352 12.7132042,33.1350352 L13.5113732,33.1350352 C15.5955634,33.1350352 17.5617606,33.1350352 18.5776408,31.9470775 C19.1835563,31.238169 19.3692254,30.1851408 19.1380282,28.7303169 Z" id="path14" fill="#283B82" fill-rule="nonzero"></path>
                        <path d="M52.306338,28.8636268 L46.7795775,28.8636268 C46.3088028,28.8636268 45.9021127,28.519331 45.8292254,28.051831 L45.5848592,26.5059859 L45.1982394,27.066338 C44.0017606,28.8029577 41.3334507,29.3833803 38.6704225,29.3833803 C32.562993,29.3833803 27.3465141,24.7576408 26.3305986,18.2687324 C25.8024296,15.0319014 26.5534155,11.9367606 28.389507,9.77841549 C30.0737324,7.79380282 32.4836268,6.9668662 35.3510563,6.9668662 C40.2721831,6.9668662 43.0010563,10.1309507 43.0010563,10.1309507 L42.7545775,8.59524648 C42.6616197,8.00795775 43.1140845,7.48144366 43.703169,7.48144366 L48.681338,7.48144366 C49.4728873,7.48144366 50.1411972,8.05528169 50.2661972,8.83651408 L53.253169,27.7532042 C53.3478873,28.3354577 52.8971831,28.8636268 52.306338,28.8636268 Z M44.6024648,18.1066901 C44.0693662,14.9492606 41.5630282,12.8294014 38.3669014,12.8294014 C36.7619718,12.8294014 35.4792254,13.3442606 34.6555986,14.3197183 C33.838838,15.2884155 33.5282746,16.6671831 33.7882394,18.202993 C34.2860211,21.3334859 36.834507,23.5222183 39.9816901,23.5222183 C41.5514085,23.5222183 42.8271127,23.0008099 43.6676056,22.0170775 C44.5098592,21.0230634 44.843662,19.6357746 44.6024648,18.1066901 Z" id="path16" fill="#283B82" fill-rule="nonzero"></path>
                        <path d="M81.7419014,28.8636268 L76.1880282,28.8636268 C75.6580986,28.8636268 75.1602113,28.6003521 74.8598592,28.1597887 L67.1996479,16.8763732 L63.9528169,27.7193662 C63.7485915,28.3978873 63.1225352,28.8636268 62.4137324,28.8636268 L56.9559859,28.8636268 C56.2926056,28.8636268 55.8320423,28.2156338 56.0429577,27.5911972 L62.1605634,9.63827465 L56.4091549,1.51903521 C55.9566901,0.87959507 56.4123239,0 57.1940141,0 L62.7411972,0 C63.2676056,0 63.7605634,0.256657042 64.0591549,0.688683099 L82.5316901,27.3530986 C82.9739437,27.991162 82.5200704,28.8636268 81.7419014,28.8636268" id="path18" fill="#283B82"></path>
                        <path d="M100.130282,39.5397887 L88.5869718,39.5397887 C87.7989437,39.5397887 87.1271127,38.9658451 87.0038732,38.1859155 L82.3359155,8.59017606 C82.2433099,8.00644366 82.6954225,7.47978873 83.284507,7.47978873 L89.2080986,7.47978873 C89.7580986,7.47978873 90.2292254,7.88126761 90.3151408,8.4281338 L91.6397887,16.8172183 C91.7612676,17.5987676 92.4348592,18.1726056 93.2228873,18.1726056 L96.875,18.1726056 C104.479225,18.1726056 108.865493,21.8516197 110.013028,29.1421479 C110.531338,32.3317958 110.033451,34.8378521 108.539789,36.5929577 C106.901056,38.5204225 103.99331,39.5397887 100.130282,39.5397887 Z M101.461972,28.7303169 C100.832394,24.5888732 97.6683099,24.5888732 94.6066901,24.5888732 L92.8669014,24.5888732 L94.090493,32.3232394 C94.1630282,32.7907746 94.5644366,33.1350352 95.0387324,33.1350352 L95.8369718,33.1350352 C97.9197183,33.1350352 99.8873239,33.1350352 100.903169,31.9470775 C101.509155,31.238169 101.692958,30.1851408 101.461972,28.7303169 Z" id="path20" fill="#469BDB" fill-rule="nonzero"></path>
                        <path d="M134.628873,28.8636268 L129.105282,28.8636268 C128.630986,28.8636268 128.227465,28.519331 128.15669,28.051831 L127.911972,26.5059859 L127.523944,27.066338 C126.327465,28.8029577 123.660915,29.3833803 120.997887,29.3833803 C114.890141,29.3833803 109.675704,24.7576408 108.659507,18.2687324 C108.133099,15.0319014 108.880634,11.9367606 110.716901,9.77841549 C112.404577,7.79380282 114.810915,6.9668662 117.678169,6.9668662 C122.599296,6.9668662 125.328169,10.1309507 125.328169,10.1309507 L125.08169,8.59524648 C124.989085,8.00795775 125.441197,7.48144366 126.033803,7.48144366 L131.010563,7.48144366 C131.798592,7.48144366 132.470423,8.05528169 132.593662,8.83651408 L135.582394,27.7532042 C135.673239,28.3354577 135.221127,28.8636268 134.628873,28.8636268 Z M126.924648,18.1066901 C126.394718,14.9492606 123.885211,12.8294014 120.689085,12.8294014 C119.087324,12.8294014 117.801408,13.3442606 116.977817,14.3197183 C116.161268,15.2884155 115.853873,16.6671831 116.110563,18.202993 C116.61162,21.3334859 119.15669,23.5222183 122.304225,23.5222183 C123.873592,23.5222183 125.149296,23.0008099 125.989789,22.0170775 C126.835211,21.0230634 127.169366,19.6357746 126.924648,18.1066901 Z" id="path22" fill="#469BDB" fill-rule="nonzero"></path>
                        <path d="M141.144718,38.7278169 L136.407394,8.59017606 C136.314789,8.00644366 136.766901,7.47978873 137.355986,7.47978873 L142.11831,7.47978873 C142.909859,7.47978873 143.58169,8.05348592 143.703169,8.83485915 L148.374296,38.4288732 C148.467254,39.0130282 148.015141,39.5411972 147.426056,39.5411972 L142.092958,39.5411972 C141.622183,39.5397887 141.217254,39.1950704 141.144718,38.7278169" id="path24" fill="#469BDB"></path>
                    </g>
                </g>
            </g>
        </g>
    </g>
</svg>