<?xml version="1.0" encoding="UTF-8"?>
<svg width="200px" height="90px" viewBox="0 0 200 90" version="1.1" xmlns="http://www.w3.org/2000/svg" xmlns:xlink="http://www.w3.org/1999/xlink">
    <!-- Generator: Sketch 52.6 (67491) - http://www.bohemiancoding.com/sketch -->
    <title>8</title>
    <desc>Created with Sketch.</desc>
    <g id="Page-1" stroke="none" stroke-width="1" fill="none" fill-rule="evenodd">
        <g id="8">
            <rect id="Rectangle-Copy-6" fill-rule="nonzero" x="1" y="0" width="200" height="90"></rect>
            <g id="company-logo-8" transform="translate(8.000000, 25.000000)">
                <path d="M66.1085271,23.0387597 L64.9922481,26.2015504 L64.8992248,26.2015504 C64.7131783,25.4883721 64.372093,24.4031008 63.8139535,23.1007752 L57.8294574,8.0620155 L51.9689922,8.0620155 L51.9689922,32.0310078 L55.8449612,32.0310078 L55.8449612,17.2403101 C55.8449612,16.3100775 55.8449612,15.255814 55.8139535,13.9534884 C55.7829457,13.3023256 55.7209302,12.8062016 55.6899225,12.4341085 L55.7829457,12.4341085 C55.9689922,13.3643411 56.1860465,14.0465116 56.3410853,14.4806202 L63.5348837,31.9689922 L66.2635659,31.9689922 L73.3953488,14.3255814 C73.5503876,13.9224806 73.7054264,13.1162791 73.8604651,12.4341085 L73.9534884,12.4341085 C73.8604651,14.2015504 73.7984496,15.7829457 73.7674419,16.744186 L73.7674419,31.9379845 L77.8914729,31.9379845 L77.8914729,8 L72.248062,8 L66.1085271,23.0387597 Z M81.7984496,14.7596899 L85.8294574,14.7596899 L85.8294574,31.9379845 L81.7984496,31.9379845 L81.7984496,14.7596899 Z M83.8449612,7.50387597 C83.1627907,7.50387597 82.6046512,7.75193798 82.1395349,8.18604651 C81.6744186,8.62015504 81.4263566,9.17829457 81.4263566,9.86046512 C81.4263566,10.5116279 81.6744186,11.0697674 82.1395349,11.503876 C82.6046512,11.9379845 83.1627907,12.1550388 83.8449612,12.1550388 C84.5271318,12.1550388 85.1162791,11.9069767 85.5503876,11.503876 C86.0155039,11.0697674 86.2635659,10.5116279 86.2635659,9.86046512 C86.2635659,9.20930233 86.0155039,8.65116279 85.5503876,8.18604651 C85.1472868,7.75193798 84.5581395,7.50387597 83.8449612,7.50387597 Z M100.124031,14.6046512 C99.379845,14.4496124 98.6046512,14.3565891 97.8604651,14.3565891 C96.0310078,14.3565891 94.3565891,14.7596899 92.9612403,15.5658915 C91.5658915,16.372093 90.4496124,17.4883721 89.7364341,18.8837209 C88.9922481,20.3100775 88.620155,21.9534884 88.620155,23.8449612 C88.620155,25.4883721 88.9922481,26.9457364 89.7054264,28.2790698 C90.4186047,29.5813953 91.4108527,30.6356589 92.744186,31.3488372 C94.0155039,32.0620155 95.503876,32.4341085 97.1782946,32.4341085 C99.1007752,32.4341085 100.744186,32.0310078 102.046512,31.2868217 L102.077519,31.255814 L102.077519,27.5348837 L101.922481,27.6589147 C101.333333,28.0930233 100.651163,28.4651163 99.9689922,28.6821705 C99.255814,28.9302326 98.6046512,29.0542636 98.0465116,29.0542636 C96.4341085,29.0542636 95.1627907,28.5891473 94.2635659,27.5658915 C93.3333333,26.5736434 92.8682171,25.2093023 92.8682171,23.503876 C92.8682171,21.7364341 93.3333333,20.3410853 94.2945736,19.3178295 C95.255814,18.2945736 96.5271318,17.7674419 98.0775194,17.7674419 C99.379845,17.7674419 100.713178,18.2015504 101.922481,19.0697674 L102.077519,19.1937984 L102.077519,15.255814 L102.046512,15.2248062 C101.51938,15.0077519 100.930233,14.7596899 100.124031,14.6046512 Z M113.426357,14.4806202 C112.434109,14.4806202 111.503876,14.7906977 110.697674,15.4418605 C110.015504,16 109.550388,16.8062016 109.147287,17.7674419 L109.116279,17.7674419 L109.116279,14.7596899 L105.085271,14.7596899 L105.085271,31.9379845 L109.116279,31.9379845 L109.116279,23.1627907 C109.116279,21.6744186 109.426357,20.4341085 110.108527,19.5348837 C110.790698,18.6046512 111.658915,18.1395349 112.713178,18.1395349 C113.085271,18.1395349 113.457364,18.2325581 113.922481,18.2945736 C114.356589,18.4186047 114.666667,18.5426357 114.883721,18.6976744 L115.03876,18.8217054 L115.03876,14.7906977 L114.945736,14.7596899 C114.666667,14.5736434 114.108527,14.4806202 113.426357,14.4806202 Z M124.403101,14.3875969 C121.581395,14.3875969 119.317829,15.2248062 117.736434,16.8682171 C116.124031,18.5116279 115.348837,20.7751938 115.348837,23.627907 C115.348837,26.2945736 116.155039,28.4651163 117.705426,30.0465116 C119.255814,31.5968992 121.364341,32.4031008 124,32.4031008 C126.75969,32.4031008 128.96124,31.5658915 130.542636,29.8914729 C132.155039,28.2170543 132.930233,25.9844961 132.930233,23.2248062 C132.930233,20.496124 132.186047,18.3255814 130.666667,16.744186 C129.209302,15.1627907 127.069767,14.3875969 124.403101,14.3875969 Z M127.627907,27.5968992 C126.883721,28.5581395 125.705426,29.0232558 124.248062,29.0232558 C122.790698,29.0232558 121.612403,28.5581395 120.775194,27.5348837 C119.937984,26.5736434 119.534884,25.1782946 119.534884,23.4108527 C119.534884,21.5813953 119.968992,20.1860465 120.775194,19.1937984 C121.612403,18.2015504 122.75969,17.7054264 124.217054,17.7054264 C125.643411,17.7054264 126.75969,18.1705426 127.565891,19.1317829 C128.372093,20.0930233 128.806202,21.4883721 128.806202,23.3178295 C128.744186,25.1782946 128.403101,26.6356589 127.627907,27.5968992 Z M141.922481,21.8914729 C140.651163,21.3643411 139.844961,20.9612403 139.472868,20.620155 C139.162791,20.3100775 139.007752,19.875969 139.007752,19.3178295 C139.007752,18.8527132 139.193798,18.3875969 139.658915,18.0775194 C140.124031,17.7674419 140.651163,17.6124031 141.426357,17.6124031 C142.108527,17.6124031 142.821705,17.7364341 143.503876,17.9224806 C144.186047,18.1085271 144.806202,18.3875969 145.302326,18.7596899 L145.457364,18.8837209 L145.457364,15.1007752 L145.364341,15.0697674 C144.899225,14.8837209 144.27907,14.6976744 143.534884,14.5426357 C142.790698,14.4186047 142.108527,14.3565891 141.550388,14.3565891 C139.627907,14.3565891 138.046512,14.8217054 136.806202,15.8449612 C135.565891,16.8062016 134.976744,18.1085271 134.976744,19.627907 C134.976744,20.4341085 135.100775,21.1472868 135.379845,21.7364341 C135.658915,22.3255814 136.062016,22.8837209 136.620155,23.3488372 C137.178295,23.7829457 137.984496,24.2790698 139.100775,24.744186 C140.031008,25.1472868 140.744186,25.4573643 141.178295,25.7054264 C141.612403,25.9534884 141.891473,26.2325581 142.108527,26.4496124 C142.263566,26.6976744 142.356589,27.0077519 142.356589,27.4108527 C142.356589,28.5581395 141.488372,29.1162791 139.72093,29.1162791 C139.03876,29.1162791 138.325581,28.9922481 137.488372,28.7131783 C136.651163,28.4341085 135.875969,28.0310078 135.224806,27.5658915 L135.069767,27.4418605 L135.069767,31.379845 L135.162791,31.4108527 C135.751938,31.6899225 136.465116,31.875969 137.333333,32.0930233 C138.20155,32.248062 138.976744,32.372093 139.658915,32.372093 C141.736434,32.372093 143.44186,31.9069767 144.651163,30.8837209 C145.891473,29.8914729 146.542636,28.620155 146.542636,26.9767442 C146.542636,25.8294574 146.232558,24.8062016 145.550388,24.0310078 C144.651163,23.2868217 143.534884,22.5116279 141.922481,21.8914729 Z M157.178295,14.3875969 C154.356589,14.3875969 152.093023,15.2248062 150.511628,16.8682171 C148.930233,18.5116279 148.124031,20.7751938 148.124031,23.627907 C148.124031,26.2945736 148.930233,28.4651163 150.48062,30.0465116 C152.031008,31.5968992 154.139535,32.4031008 156.775194,32.4031008 C159.534884,32.4031008 161.736434,31.5658915 163.317829,29.8914729 C164.930233,28.2170543 165.705426,25.9844961 165.705426,23.2248062 C165.705426,20.496124 164.96124,18.3255814 163.44186,16.744186 C161.984496,15.1627907 159.844961,14.3875969 157.178295,14.3875969 Z M160.372093,27.5968992 C159.627907,28.5581395 158.449612,29.0232558 156.992248,29.0232558 C155.503876,29.0232558 154.356589,28.5581395 153.51938,27.5348837 C152.682171,26.5736434 152.27907,25.1782946 152.27907,23.4108527 C152.27907,21.5813953 152.713178,20.1860465 153.51938,19.1937984 C154.356589,18.2015504 155.503876,17.7054264 156.96124,17.7054264 C158.356589,17.7054264 159.503876,18.1705426 160.310078,19.1317829 C161.116279,20.0930233 161.550388,21.4883721 161.550388,23.3178295 C161.550388,25.1782946 161.147287,26.6356589 160.372093,27.5968992 Z M187.255814,18.0775194 L187.255814,14.7596899 L183.193798,14.7596899 L183.193798,9.6744186 L183.069767,9.70542636 L179.224806,10.8527132 L179.131783,10.8837209 L179.131783,14.7596899 L173.054264,14.7596899 L173.054264,12.5891473 C173.054264,11.5968992 173.302326,10.8217054 173.736434,10.3255814 C174.170543,9.82945736 174.821705,9.58139535 175.627907,9.58139535 C176.186047,9.58139535 176.775194,9.70542636 177.426357,9.98449612 L177.581395,10.0775194 L177.581395,6.57364341 L177.488372,6.54263566 C176.930233,6.35658915 176.186047,6.23255814 175.224806,6.23255814 C174.015504,6.23255814 172.96124,6.51162791 172,6.97674419 C171.03876,7.50387597 170.325581,8.21705426 169.79845,9.17829457 C169.271318,10.1085271 168.992248,11.1627907 168.992248,12.372093 L168.992248,14.7596899 L166.170543,14.7596899 L166.170543,18.0465116 L168.992248,18.0465116 L168.992248,31.9379845 L173.054264,31.9379845 L173.054264,18.0775194 L179.131783,18.0775194 L179.131783,26.9147287 C179.131783,30.5426357 180.837209,32.372093 184.248062,32.372093 C184.806202,32.372093 185.395349,32.2790698 185.953488,32.1860465 C186.542636,32.0620155 186.976744,31.9069767 187.224806,31.7829457 L187.255814,31.751938 L187.255814,28.4341085 L187.100775,28.5581395 C186.852713,28.7131783 186.635659,28.8372093 186.263566,28.9302326 C185.953488,29.0232558 185.674419,29.0542636 185.457364,29.0542636 C184.651163,29.0542636 184.093023,28.8682171 183.689922,28.4031008 C183.317829,27.9689922 183.131783,27.255814 183.131783,26.2015504 L183.131783,18.0775194 L187.255814,18.0775194 Z" id="Shape" fill="#737373" fill-rule="nonzero"></path>
                <polygon id="Path" fill="#F25022" points="0 0 19.0077519 0 19.0077519 19.0077519 0 19.0077519"></polygon>
                <polygon id="Path" fill="#7FBA00" points="20.9922481 0 40 0 40 19.0077519 20.9922481 19.0077519"></polygon>
                <polygon id="Path" fill="#00A4EF" points="0 20.9922481 19.0077519 20.9922481 19.0077519 40 0 40"></polygon>
                <polygon id="Path" fill="#FFB900" points="20.9922481 20.9922481 40 20.9922481 40 40 20.9922481 40"></polygon>
            </g>
        </g>
    </g>
</svg>