<?xml version="1.0" encoding="UTF-8"?>
<svg width="200px" height="90px" viewBox="0 0 200 90" version="1.1" xmlns="http://www.w3.org/2000/svg" xmlns:xlink="http://www.w3.org/1999/xlink">
    <!-- Generator: Sketch 52.6 (67491) - http://www.bohemiancoding.com/sketch -->
    <title>10</title>
    <desc>Created with Sketch.</desc>
    <g id="Page-1" stroke="none" stroke-width="1" fill="none" fill-rule="evenodd">
        <g id="10" fill-rule="nonzero">
            <rect id="Rectangle-Copy-8" x="0" y="0" width="200" height="90"></rect>
            <g id="company-logo-9" transform="translate(28.000000, 21.000000)" fill="#F40009">
                <path d="M119.727761,40.7154627 C119.725612,40.7154627 119.284657,41.108597 119.284657,41.108597 C118.654567,41.6718806 118.006209,42.2749254 117.223522,41.9733134 C117.007343,41.8946866 116.855284,41.6066866 116.818746,41.3831642 C116.78314,39.7708657 117.509194,38.2769194 118.213254,36.8223045 L118.393791,36.4418866 C120.419104,33.0602507 122.773254,29.0756776 126.230687,26.3103045 C126.813313,25.8899463 127.445588,25.5367164 128.11286,25.8122149 C128.266352,25.9560358 128.445099,26.2053493 128.445099,26.4541254 C128.445099,26.5331104 128.375104,26.7426627 128.334591,26.8078567 C127.369003,28.3683582 126.449337,30.0066627 125.555033,31.5793433 C123.807331,34.6860896 121.994293,37.8970746 119.72769,40.7158209 L119.727761,40.7154627 Z M100.994149,32.7460299 C100.861791,32.8382687 98.5260896,32.0514627 98.0747463,29.8888119 C97.6918209,28.0268418 98.973994,26.5719403 100.214543,25.8385433 C100.747021,25.4189015 101.549087,25.2750806 102.137409,25.4839164 C102.683499,25.8514388 102.831439,26.5073194 102.831439,27.2140657 C102.831439,27.6474985 102.773982,28.0927522 102.72326,28.4989612 C102.72326,28.4989612 102.713588,28.5779463 102.712012,28.5910209 C102.322818,30.0454925 101.727296,31.4744597 100.994185,32.7461015 L100.994149,32.7460299 Z M92.0718806,41.5414925 C91.8336716,41.1875821 91.7546866,40.8005731 91.746806,40.3821851 C91.7010985,37.8120358 94.4663284,33.209409 96.418209,30.7019463 L96.4225075,30.7019463 C97.2405134,32.492991 99.0927403,33.6442746 100.210925,34.1294328 C98.8221493,37.2230687 94.0591881,43.8483582 92.0724179,41.5414925 L92.0718806,41.5414925 Z M125.782209,41.9978507 C125.31994,42.3123582 124.670472,42.0705672 124.913337,41.3498507 C125.518173,39.5147463 127.922866,35.7750448 127.922866,35.7750448 L134.620657,23.895403 L130.032716,23.895403 C129.814746,24.2536119 129.348358,25.076203 129.348358,25.076203 C129.136119,24.7226507 128.501409,23.9363821 128.24006,23.766591 C127.119224,23.0582328 125.474687,23.3931582 124.340239,24.0352478 C119.407845,26.919403 115.809134,32.6179343 112.970687,37.0611582 C112.970687,37.0611582 109.983081,42.0008597 108.324573,42.3682388 C107.029863,42.473194 107.163403,40.7290746 107.219499,40.3227224 C107.720096,37.3861254 108.882663,34.5943881 110.054006,32.0645731 C112.436239,30.4130866 115.155045,28.2503642 117.625827,25.8779463 C122.987857,20.7523343 127.508096,14.945409 128.168633,13.6479761 C128.168633,13.6479761 127.453469,13.7923343 126.608991,13.8183045 C122.483857,19.5725731 114.042304,27.9360358 111.48326,29.1804537 C112.616991,26.4536239 119.942006,13.4378866 126.175558,7.21221493 L127.156478,6.2681194 C128.673134,4.78692537 130.244812,3.26647164 131.469457,3.01737313 C131.59877,3.00433433 131.765337,3.01737313 131.909158,3.31934328 C131.963821,4.47263284 131.534472,5.3247403 131.041934,6.29462687 L130.351666,7.71048358 C130.351666,7.71048358 131.329433,7.52690149 131.971487,7.31663284 C132.716561,5.91474627 133.541731,4.34134925 133.23754,2.46734328 C133.135988,1.86430567 132.69951,1.40561194 132.129099,1.30065672 C130.269636,0.946746269 128.243104,2.32262687 126.612537,3.43715821 L126.546627,3.47620299 C118.164537,10.0432478 111.086328,19.5074866 104.89791,32.4316657 C104.449433,32.7719642 102.716561,33.1787463 102.42197,32.9818746 C103.033075,31.7238448 103.802507,30.0325254 104.187582,28.1974925 C104.254209,27.6730746 104.316179,27.1359045 104.316179,26.6117015 C104.316179,25.4834866 104.045373,24.4221851 103.034651,23.6883582 C101.849696,23.0983881 100.385194,23.3738507 99.3977552,23.8192836 C94.9742328,25.6543881 91.6683224,30.1900299 89.2826507,33.9250746 C87.9995463,36.298209 86.7201672,38.8398448 86.3659701,41.7505075 C86.1164776,44.0308657 86.6244179,45.4989493 87.9209552,46.2332776 C89.2543522,46.9144119 90.9326328,46.2064119 91.5918806,45.8659343 C96.0732179,43.5066269 99.2045373,38.7749731 101.672597,34.4490985 C101.770746,34.436203 103.118328,34.3971582 104.137648,34.134591 C104.15126,34.134591 104.156991,34.134591 104.179558,34.1483463 C104.12117,34.3441075 103.594424,35.9175403 103.594424,35.9175403 C102.030125,40.5049075 101.306758,43.6247642 102.784299,45.4731224 C104.895725,48.0817433 108.391343,45.3817791 111.235164,41.815809 C110.624776,46.0888836 112.839367,46.7576597 114.527463,46.4302567 C116.466663,45.906197 118.627522,43.8346746 119.630364,42.7733015 C119.308334,44.0182925 119.395916,46.2468537 121.159916,46.4694448 C122.369087,46.6929672 123.273922,46.0352955 124.320896,45.4714746 C128.076501,43.4264597 132.572597,36.6122507 133.739642,34.6421015 L132.20923,34.6421015 C130.550006,37.1497075 128.438579,40.4375642 125.782603,41.9982806 L125.782209,41.9978507 Z M67.9235821,16.5521194 L72.2219463,16.5521194 L74.6478806,12.6118209 L70.3486567,12.6118209 L67.9235821,16.5521194 Z M136.585791,6.08453731 C133.308322,7.94614925 129.910925,9.15173731 125.79797,8.73241791 C124.658149,10.0173134 123.548418,11.3410388 122.525516,12.7040955 C128.297839,14.1721791 134.417337,10.908394 137.830352,7.8022209 C141.44074,4.66932537 143.292179,0.724226866 143.292179,0.724226866 C143.292179,0.724226866 140.58591,3.81736119 136.585648,6.08460896 L136.585791,6.08453731 Z M100.442507,5.08871642 C99.7590448,12.9270448 93.6660537,17.528597 92.1585672,17.8946866 C91.244991,18.0779104 89.6860657,17.6718806 91.0776358,14.3822328 C93.1271642,9.95133134 96.6261493,6.18999403 100.380322,4.26282985 C100.471666,4.59059104 100.469337,4.79978507 100.442436,5.08850149 L100.442507,5.08871642 Z M88.5700299,24.841791 C88.1335522,23.8982687 87.0972179,23.2951881 85.9929313,23.360597 C82.4066866,23.6885373 78.8989612,26.6376358 77.0570507,30.8715224 C76.090603,33.0476418 75.5631761,34.8432 75.2172896,37.7005612 C76.332394,36.4163821 78.6070209,34.3061731 81.1882746,33.152597 C81.1882746,33.152597 81.5394985,30.4131582 83.3305075,27.9750448 C84.0082388,26.9654687 85.3645612,25.340203 86.8875224,25.7726328 C88.2180537,26.218603 87.7504478,29.9019224 85.9819701,33.4662448 C84.6734328,36.088191 82.6710448,38.7104239 80.6450149,40.518806 C78.8538269,42.039403 76.2035821,43.8743642 73.8848955,42.4588657 C72.4244776,41.5941493 71.6796179,39.7848358 71.8370149,37.4516776 C72.534806,30.8325493 75.5479164,25.1959164 79.8594627,18.7732299 C84.3055522,12.809194 89.2065672,6.68797612 95.8090746,3.4232597 C97.155797,2.74176716 98.4028657,2.58447761 99.4808597,3.00397612 C99.4808597,3.00397612 93.2831284,6.41197612 90.3286209,12.7171701 C89.5770985,14.3165731 88.5318448,16.4787224 89.584406,18.3926328 C90.1344358,19.388597 91.1110925,19.467403 91.8973612,19.4149612 C95.5187104,18.5758925 97.8583164,15.1941851 99.7700776,12.1010507 C100.878376,9.75478209 101.863451,7.42155224 101.863451,4.82582687 C101.863451,4.5113194 101.847116,4.09207164 101.820466,3.77713433 C103.550615,2.85997612 107.098316,4.48495522 107.098316,4.48495522 C109.87071,5.40282985 115.774137,9.92528955 117.765063,10.790006 C118.736382,9.66293731 120.332561,7.9590806 121.231236,7.10690149 L119.930221,6.30723582 C117.847236,5.03573731 115.645469,3.8297194 113.478304,2.63702687 C108.556657,-0.0496835821 104.550304,0.893838806 102.511379,1.62795224 C101.710066,1.91613134 100.977672,2.16526567 100.977672,2.16526567 C99.464597,0.513779104 96.9830687,0.670674627 95.1546269,1.11664478 C88.5789851,3.00404776 82.4740299,7.60466866 75.9288358,15.5875701 C71.1166567,21.8401075 68.1313433,27.2408239 66.5408955,32.5752716 C65.3145313,36.1665313 64.9418507,41.4488239 67.9350448,44.5817194 C70.4799045,47.2417791 73.8544478,46.6656358 76.2376119,45.709003 C81.4006925,43.1660776 86.0410746,37.6865552 88.3536716,31.3820776 C88.9115821,29.5079284 89.5308896,26.860191 88.570209,24.8413254 L88.5700299,24.841791 Z M31.3389851,18.7602627 C31.3303881,18.7864119 30.4620896,20.7785552 30.4620896,20.7785552 C30.3365373,20.8833313 30.1380896,20.8310687 29.9106269,20.7785552 L29.5208955,20.7126448 C28.2971104,20.3327642 27.3739343,19.5199522 27.0893731,18.5501373 C26.6967761,16.6625194 28.3092896,15.181397 29.0197612,14.6442269 C29.7014328,14.1719284 30.7612299,13.9229373 31.3766328,14.4081672 C31.7561552,14.8539582 31.8999761,15.4304955 31.8999761,16.0600836 C31.9001552,16.9119045 31.6372299,17.8686806 31.3390209,18.7602627 L31.3389851,18.7602627 Z M29.473791,22.5479642 C29.473791,22.5479642 29.4343881,22.6663522 29.4149015,22.7050388 C29.4098866,22.7050388 27.4411701,25.9160239 27.4411701,25.9160239 C26.252991,27.5023164 24.7695045,29.4952478 22.9149851,30.4516657 C22.3653134,30.6352478 21.6055164,30.7534567 21.2183642,30.2688 C20.3974925,29.2855164 20.8205731,27.9223881 21.1642746,26.821397 L21.2858866,26.4280836 C22.2713194,23.7544119 23.8349015,21.3945313 25.3567164,19.2051582 C25.3757015,19.1922627 25.4183284,19.1792239 25.4337313,19.1792239 C25.4373134,19.1923343 25.443403,19.1923343 25.4460537,19.2186269 C26.4010388,21.0533731 28.1917254,21.9050507 29.5309254,22.2988657 C29.5390209,22.2988657 29.5476179,22.3119045 29.5476179,22.3382687 C29.547797,22.3773134 29.5259104,22.4301493 29.4738269,22.5476418 L29.473791,22.5479642 Z M54.1013731,20.4377552 C54.981994,19.2189851 57.545194,15.9549851 58.1700537,15.4045612 C60.2716657,13.5556299 61.1116657,14.369194 61.1843821,14.9455164 C59.2229731,18.4582567 56.9080836,22.4822328 54.731606,26.1001433 C54.7359045,26.0872478 54.0504716,27.1355104 54.0504716,27.1355104 C53.0891821,28.6033075 52.1213015,29.8616239 50.5425313,30.739809 C50.317397,30.8057194 49.9462925,30.8320478 49.6993075,30.6479284 C49.401994,30.4512716 49.2846806,30.1235104 49.3181731,29.7824955 C49.4127403,28.6555701 50.5602985,25.2088836 54.1013373,20.4375403 L54.1013731,20.4377552 Z M32.2757015,12.4683224 C29.5586866,10.6857313 24.097791,14.0937313 19.7240597,19.9391284 C15.7242985,25.1827343 13.9971582,31.2771582 15.8767522,34.0955463 C18.6727881,37.4117015 23.8633791,32.588203 26.0706627,30.0063761 L26.3554388,29.7045851 C27.8564776,28.0922866 29.0162149,26.1522269 30.1386985,24.2907582 C30.1386985,24.2907582 31.1703403,22.5867582 31.2196299,22.5079522 C31.8572418,22.3904597 32.6252418,22.2068776 33.4906746,21.9577433 C33.4783522,21.9967881 30.1795343,27.5415045 30.5161075,30.2939821 C30.6208836,31.1336239 30.5408239,34.2007522 33.5354507,35.1312358 C37.5266149,35.800191 40.7139582,32.7063045 43.5251821,29.9536836 C43.5251821,29.9536836 44.0042866,29.4953552 44.2752716,29.2336836 C44.2067104,29.5082507 44.1173015,29.8745194 44.1173015,29.8745194 C42.9488239,33.9380418 44.5238687,34.7905791 45.5091582,35.1052299 C48.4867343,35.970806 52.0439642,31.6449313 52.0554269,31.6449313 C51.9631881,33.0075582 51.6934567,34.1348418 53.1299104,35.0393194 C54.4857313,35.5246925 55.8578866,34.7848119 56.9007761,34.0900657 C60.6575284,31.4423284 63.6839642,27.2984239 66.1282388,23.7163343 L64.5689552,23.7163343 C64.5505433,23.7163343 60.7212179,29.2664239 58.2347463,30.4727284 C58.2311642,30.4727284 57.7783881,30.7050269 57.5176119,30.5212299 C57.1948657,30.2457672 57.322209,29.6733493 57.521194,29.2678567 C57.5337313,29.2413493 67.1219104,12.6118567 67.1219104,12.6118567 L62.5948657,12.6118567 C62.5948657,12.6118567 62.1003582,13.4119522 62.0600597,13.464394 C62.0296119,13.4382448 61.9570746,13.3006925 61.9067463,13.2347821 C59.1019701,9.3550209 52.750209,15.3227821 47.9681194,22.2430209 C46.1270687,24.9041552 43.7831642,27.9004299 41.3527164,30.0634388 C41.3527164,30.0634388 37.7521433,33.3639761 36.2137075,30.9926328 C35.6513194,29.9962388 35.8243343,28.5396179 36.1415284,27.5830567 C37.9327164,22.4841672 41.0192597,17.8569672 44.5314985,15.0643701 C45.5230209,14.2914985 46.6006567,14.0679761 47.1355343,14.3957731 C47.6450866,14.6977433 47.7272955,15.4442507 47.4049075,15.9555582 C46.5869015,15.929409 45.931594,16.178006 45.398794,16.7285731 C44.3492418,17.8297075 43.9845851,18.8915821 44.3182925,19.8879761 C45.939403,22.1948418 49.1723821,17.6332657 49.0159881,14.8544239 C48.9601075,13.8580299 48.4285254,12.9145075 47.6353075,12.4552836 C46.4530746,11.7478209 44.6494209,11.9310448 43.4822328,12.4950448 C41.9197254,13.0846567 39.4462925,15.1423522 38.0024955,16.7418269 C36.1849433,18.7476537 33.067809,20.9757134 32.0929075,20.7261851 C32.4122507,19.873791 35.0452657,14.4867582 32.2754149,12.4687522 L32.2757015,12.4683224 Z M55.0305672,41.6329791 C49.6989851,38.1984716 42.4631642,37.5958209 30.7941493,40.8333134 C18.3542687,43.7566567 14.206209,45.630591 8.75928358,41.8686806 C6.66662687,40.0206806 5.91632239,37.0451821 6.47663284,32.7594269 C7.77607164,25.7725612 11.2875224,19.0486209 17.5252299,11.5907104 C21.0068776,7.71094925 24.2362746,4.38139701 28.5007522,3.04456119 C31.7690507,2.2057791 31.4634985,4.77435224 31.0680358,5.1416597 C30.6507224,5.1416597 29.9497075,5.20742687 29.4079522,5.56094328 C28.9682507,5.90195821 27.7612657,7.00309254 27.6964299,8.48428657 C27.6029373,10.7517493 29.9495642,10.2797731 30.9617194,9.03485373 C32.0526806,7.63196418 33.6649075,4.94532537 32.3967045,2.44144478 C31.8651224,1.5502209 30.9466746,0.934316418 29.8062806,0.724549254 C25.9014448,0.501385075 22.2645493,2.36278209 18.9081313,4.42069254 C11.5698627,9.51943881 5.69810149,16.5847522 2.37607164,24.3184836 C0.460513433,28.9846567 -1.27178507,35.6686925 1.32494328,41.1091701 C3.33363582,44.8839761 7.50390448,46.8890866 12.4795701,46.4697672 C15.9690985,46.1031403 20.1882269,44.9753194 23.0266746,44.2943642 C25.8645493,43.6123343 40.3912119,38.6187582 45.1647045,47.3097672 C45.1647045,47.3097672 46.7519284,44.228597 50.7185194,44.1629015 C53.9796537,43.862006 58.6843701,45.106997 62.1102806,47.6232 C60.9688836,45.9066627 57.7328239,43.3768478 55.0331463,41.6332299 L55.0305672,41.6329791 Z" id="Shape"></path>
            </g>
        </g>
    </g>
</svg>