<?xml version="1.0" encoding="UTF-8"?>
<svg width="200px" height="90px" viewBox="0 0 200 90" version="1.1" xmlns="http://www.w3.org/2000/svg" xmlns:xlink="http://www.w3.org/1999/xlink">
    <!-- Generator: Sketch 52.6 (67491) - http://www.bohemiancoding.com/sketch -->
    <title>Slice</title>
    <desc>Created with Sketch.</desc>
    <g id="Page-1" stroke="none" stroke-width="1" fill="none" fill-rule="evenodd">
        <g id="9" fill-rule="nonzero">
            <rect id="Rectangle-Copy-7" x="0" y="0" width="200" height="90"></rect>
            <g id="company-logo-10" transform="translate(15.000000, 24.000000)">
                <g id="Group" transform="translate(85.117553, 21.353989) scale(-1, 1) rotate(-180.000000) translate(-85.117553, -21.353989) translate(0.343617, 0.443085)">
                    <g transform="translate(0.508644, 0.599069)" id="Shape">
                        <path d="M0,8.35685638 C0,8.35685638 4.19416223,25.543359 4.86353723,28.3329867 C5.64481383,31.588984 7.0525359,32.7873484 11.1112633,31.9791702 L13.7302128,21.3236516 C14.3939814,18.6768963 14.8391915,16.7899415 15.2658644,14.0975213 L15.3409243,14.0975213 C15.6407302,16.816391 16.0676291,18.6848085 16.6138672,21.3329202 C16.6138672,21.3329202 17.6799616,26.170234 18.2259057,28.7109654 C18.7732967,31.2507926 20.296673,32.8515505 24.2722089,31.9800745 L30.5124749,8.35866489 L25.4741903,8.35866489 L23.34381,18.5713245 C22.771032,21.5440638 22.2512661,23.8668697 21.8505453,26.5864176 L21.7794596,26.5864176 C21.4152707,23.8939973 20.952066,21.6631995 20.3697255,18.7668697 L18.1514742,8.35866489 L12.902046,8.35866489 L10.5292801,18.5046356 C9.85705665,21.5876941 9.22832793,24.0773351 8.82851144,26.7046489 L8.75610093,26.7046489 C8.34665412,24.2303803 7.80129774,21.1014309 7.2107512,18.1169362 C7.2107512,18.1169362 5.80103976,10.8600612 5.30643471,8.35866489 L0.000490558511,8.35934309 L0,8.35685638 Z M48.0295213,8.35685638 L48.0295213,31.978266 L52.8263697,31.978266 L52.8263697,26.9623617 L52.8263697,8.35572606 L48.0295213,8.35572606 L48.0295213,8.35685638 Z M115.588697,8.35685638 L115.588697,25.7827606 C115.588697,28.185367 116.04087,29.8686383 117.008219,30.8970027 C117.853359,31.7963976 119.245438,32.3787832 120.913472,32.3787832 C122.331684,32.3787832 123.727063,32.1098125 124.384682,31.8648497 L124.32287,28.1162593 C123.833532,28.2366948 123.270588,28.3330523 122.500659,28.3330523 C120.866647,28.3330523 120.318624,27.2865124 120.318624,25.1292757 L120.318624,18.4622012 L124.496283,18.4622012 L124.496283,13.9427331 L120.318624,13.9427331 L120.318624,8.35692194 L115.588464,8.35685638 L115.588697,8.35685638 Z M37.3095745,13.8328005 C34.3284707,13.8328005 31.9620346,14.6698245 30.6721144,15.4152473 L31.6161117,18.647734 C32.7966396,17.9034867 34.6763378,17.2873723 36.4561383,17.2873723 C39.4028803,17.2797992 39.8846223,18.9535758 39.8846223,20.0270399 L39.8846223,20.2809096 C33.4637314,20.2712725 29.4079202,22.493125 29.4079202,27.022133 C29.4079202,29.7873457 31.4725612,32.3787154 35.0626809,32.3787154 C37.2726809,32.3787154 39.1209787,31.4973152 40.2286915,30.0850718 L40.3373084,30.0850718 C40.3373084,30.0850718 41.0708403,33.1520798 45.1120025,31.979238 C44.8997015,30.702746 44.8307565,29.3417513 44.8307565,27.7025625 L44.8307565,21.3922168 C44.8307565,17.3703152 43.1135078,13.8328684 37.3096129,13.8328684 L37.3095745,13.8328005 Z M66.0038564,13.8328005 C63.0021809,13.8328005 61.653258,15.353984 60.835359,16.6445824 L60.7642733,16.6445824 L60.7642733,14.2333856 L56.1864807,14.2333856 L56.1864807,31.9793963 L61.0088743,31.9793963 L61.0088743,21.5720957 C61.0088743,21.0842048 61.0646285,20.5682819 61.2349382,20.1194548 C61.6344834,19.0716263 62.609361,17.8459309 64.1658557,17.8459309 C66.1116323,17.8459309 67.0221722,19.4909973 67.0221722,21.8651197 L67.0221722,31.9792154 L71.8393664,31.9792154 L71.8393664,21.4459973 C71.8393664,20.9802606 71.9032136,20.4192832 72.0402648,20.0074854 C72.436306,18.8155864 73.4872767,17.84575 74.9341078,17.84575 C76.9067408,17.84575 77.8534961,19.4621968 77.8534961,22.2558032 L77.8534961,31.9792606 L82.6740813,31.9793963 L82.6740813,21.5274255 C82.6740813,16.0153112 79.875185,13.832891 76.7157169,13.832891 C75.3164722,13.832891 74.21206,14.183742 73.213536,14.7967593 C72.3742063,15.3117779 71.6229057,16.0435239 70.9661451,17.0070532 L70.8950593,17.0070532 C70.1309636,15.0945532 68.3382774,13.832891 66.003038,13.832891 L66.0038564,13.8328005 Z M92.4849734,13.8328005 C89.5045479,13.8328005 87.1385638,14.6698245 85.8475133,15.4152473 L86.7928218,18.647734 C87.9721968,17.9034867 89.8530479,17.2873723 91.6319441,17.2873723 C94.5766516,17.2797992 95.0595239,18.9535758 95.0595239,20.0270399 L95.0595239,20.2809096 C88.6395372,20.2712725 84.5832739,22.493125 84.5832739,27.022133 C84.5832739,29.7873457 86.6489774,32.3787154 90.2409734,32.3787154 C92.4492101,32.3787154 94.298141,31.4973152 95.4038191,30.0850718 L95.5128791,30.0850718 C95.5128791,30.0850718 96.2462754,33.1520798 100.288025,31.979238 C100.075412,30.702746 100.007209,29.3417513 100.007209,27.7025625 L100.007209,21.3922168 C100.007209,17.3703152 98.2895081,13.8328684 92.484935,13.8328684 L92.4849734,13.8328005 Z M112.511064,13.8328005 C110.664439,13.8328005 108.563537,15.0247899 107.681662,17.5800346 L107.546996,17.5800346 L107.546996,14.2331596 L103.205892,14.2331596 L103.205892,31.9791702 L108.154656,31.9791702 L108.154656,22.8920824 C108.154656,22.401863 108.184378,21.9744441 108.261948,21.5824947 C108.627945,19.678992 110.083909,18.4621356 112.17353,18.4621356 C112.747167,18.4621356 113.157722,18.524267 113.601892,18.5884126 L113.601892,13.9425749 C113.229452,13.8673227 112.974723,13.8326332 112.511315,13.8326332 L112.511064,13.8328005 Z M40.0395213,23.4255931 L40.0395213,25.6394362 C40.0395213,25.9669122 40.0110169,26.3047872 39.9203088,26.6002074 C39.5490668,27.829746 38.2753327,28.868758 36.6830747,28.868758 C35.3555827,28.868758 34.3010402,28.1153551 34.3010402,26.5215372 C34.3010402,24.0836649 36.9846439,23.4097686 40.0396705,23.4255931 L40.0395213,23.4255931 Z M95.2149202,23.4255931 L95.2149202,25.6394362 C95.2149202,25.9669122 95.1858213,26.3047872 95.0957077,26.6002074 C94.7244657,27.829746 93.4511838,28.868758 91.8589258,28.868758 C90.5311399,28.868758 89.4764391,28.1153551 89.4764391,26.5215372 C89.4764391,24.0836649 92.1600428,23.4097686 95.2150694,23.4255931 L95.2149202,23.4255931 Z" fill="#007DC6" transform="translate(62.248142, 20.367255) scale(-1, 1) rotate(-180.000000) translate(-62.248142, -20.367255) "></path>
                        <path d="M150.431915,0.214421543 C148.883332,0.214421543 147.65246,1.07920612 147.65246,2.13198537 L148.592931,12.7811742 C148.696751,13.422766 149.482673,13.9176649 150.432797,13.9176649 C151.384797,13.9164215 152.167972,13.4219521 152.273973,12.7811742 L153.21892,2.13198537 C153.21892,1.07929654 151.984612,0.214511968 150.433814,0.214511968 L150.431915,0.214421543 Z M135.105918,8.75669548 C134.301967,8.77577074 133.388691,9.38445213 132.807753,10.3916795 C132.030816,11.7328936 132.168489,13.2317194 133.077537,13.7575439 L142.76912,18.2709082 C143.374564,18.4960949 144.196848,18.0661351 144.673007,17.245234 C144.673074,17.2451203 144.672941,17.2448949 144.673007,17.2447819 C145.15138,16.4198298 145.114351,15.4922673 144.610751,15.0808311 L135.857559,8.94138963 C135.63023,8.80972101 135.374506,8.75047194 135.106508,8.75682886 L135.105918,8.75669548 Z M165.757912,8.75669548 C165.489981,8.7503363 165.234642,8.80958763 165.007742,8.94125625 L156.25342,15.0806977 C155.752802,15.4921113 155.715682,16.419719 156.191608,17.2446485 L156.19206,17.2451007 C156.669981,18.0660063 157.489598,18.495957 158.095065,18.2707749 L167.790943,13.7576366 C168.703766,13.2318121 168.834589,11.7330541 168.06292,10.3917722 C167.479359,9.38452221 166.564569,8.77586795 165.760686,8.75678816 L165.757912,8.75669548 Z M143.131184,22.8067886 C143.005806,22.8050931 142.884254,22.8244622 142.770453,22.8672787 L133.078871,27.3752176 C132.169846,27.9033479 132.032173,29.4027388 132.809086,30.7453771 C133.583672,32.0839463 134.948984,32.720316 135.858235,32.1953731 L144.612105,26.060679 C145.115775,25.6442242 145.15294,24.7169104 144.674361,23.8927721 L144.678339,23.8945806 C144.291409,23.223284 143.674526,22.8140407 143.131204,22.8066484 L143.131184,22.8067886 Z M157.736941,22.8067886 C157.194253,22.8141809 156.57859,23.2234242 156.19071,23.8947207 L156.194237,23.8929122 C155.718011,24.7170505 155.754882,25.6443644 156.255609,26.0608191 L165.00993,32.1955133 C165.917486,32.7204561 167.284132,32.0841068 168.062244,30.7455173 C168.833913,29.4028338 168.70309,27.9034428 167.790267,27.3753577 L158.097328,22.8674189 C157.983534,22.8246024 157.862267,22.8052219 157.737027,22.8069287 L157.736941,22.8067886 Z M150.430559,27.2202327 C149.48204,27.221363 148.697915,27.7141596 148.594242,28.3540785 L147.653771,39.0028152 C147.653771,40.0573577 148.884621,40.920379 150.433226,40.920379 C151.984702,40.920379 153.21788,40.0573351 153.21788,39.0028152 L152.275217,28.3540785 C152.169213,27.7141596 151.38604,27.2214535 150.43404,27.2202327 L150.430513,27.2202327 L150.430559,27.2202327 Z" fill="#FFC220" transform="translate(150.434410, 20.567400) scale(-1, 1) rotate(-180.000000) translate(-150.434410, -20.567400) "></path>
                    </g>
                </g>
            </g>
        </g>
    </g>
</svg>