<?xml version="1.0" encoding="UTF-8"?>
<svg width="200px" height="90px" viewBox="0 0 200 90" version="1.1" xmlns="http://www.w3.org/2000/svg" xmlns:xlink="http://www.w3.org/1999/xlink">
    <!-- Generator: Sketch 52.6 (67491) - http://www.bohemiancoding.com/sketch -->
    <title>Slice</title>
    <desc>Created with Sketch.</desc>
    <g id="Page-1" stroke="none" stroke-width="1" fill="none" fill-rule="evenodd">
        <g id="6" fill-rule="nonzero">
            <rect id="Rectangle-Copy-4" x="0" y="0" width="200" height="90"></rect>
            <g id="Group-2" transform="translate(5.000000, 26.000000)">
                <path d="M22.0493827,7.03703704 L11.0246914,14.0740741 L22.0493827,21.1111111 L11.0246914,28.1481481 L-4.26325641e-14,21.0524691 L11.0246914,14.0154321 L-4.26325641e-14,7.03703704 L11.0246914,-2.13162821e-14 L22.0493827,7.03703704 Z M10.9660494,30.3765432 L21.9907407,23.3395062 L33.0154321,30.3765432 L21.9907407,37.4135802 L10.9660494,30.3765432 Z M22.0493827,21.0524691 L33.0740741,14.0154321 L22.0493827,7.03703704 L33.0154321,-2.13162821e-14 L44.0401235,7.03703704 L33.0154321,14.0740741 L44.0401235,21.1111111 L33.0154321,28.1481481 L22.0493827,21.0524691 Z" id="Shape" fill="#0061FF"></path>
                <path d="M52.6604938,7.03703704 L61.5740741,7.03703704 C67.2623457,7.03703704 71.9537037,10.3209877 71.9537037,17.8271605 L71.9537037,19.4104938 C71.9537037,26.9753086 67.5555556,30.3765432 61.75,30.3765432 L52.6604938,30.3765432 L52.6604938,7.03703704 Z M57.6450617,11.2592593 L57.6450617,26.095679 L61.4567901,26.095679 C64.6820988,26.095679 66.8518519,23.9845679 66.8518519,19.2932099 L66.8518519,18.0617284 C66.8518519,13.3703704 64.5648148,11.2592593 61.2808642,11.2592593 L57.6450617,11.2592593 Z M74.5925926,11.4938272 L78.5802469,11.4938272 L79.2253086,15.8919753 C79.9876543,12.9012346 81.9228395,11.3179012 85.441358,11.3179012 L86.6728395,11.3179012 L86.6728395,16.3611111 L84.6203704,16.3611111 C80.5740741,16.3611111 79.5771605,17.7685185 79.5771605,21.7561728 L79.5771605,30.4351852 L74.6512346,30.4351852 L74.6512346,11.4938272 L74.5925926,11.4938272 Z M87.6697531,21.345679 L87.6697531,20.8179012 C87.6697531,14.4845679 91.7160494,11.0246914 97.2283951,11.0246914 C102.858025,11.0246914 106.787037,14.4845679 106.787037,20.8179012 L106.787037,21.345679 C106.787037,27.5617284 102.975309,30.904321 97.2283951,30.904321 C91.1296296,30.845679 87.6697531,27.5617284 87.6697531,21.345679 Z M101.743827,21.287037 L101.743827,20.8179012 C101.743827,17.2993827 99.9845679,15.1882716 97.1697531,15.1882716 C94.4135802,15.1882716 92.595679,17.1234568 92.595679,20.8179012 L92.595679,21.287037 C92.595679,24.6882716 94.3549383,26.6234568 97.1697531,26.6234568 C99.9845679,26.5648148 101.743827,24.6882716 101.743827,21.287037 Z M109.367284,11.4938272 L113.472222,11.4938272 L113.941358,15.0709877 C114.938272,12.6666667 117.049383,11.0246914 120.157407,11.0246914 C124.966049,11.0246914 128.132716,14.4845679 128.132716,20.8765432 L128.132716,21.404321 C128.132716,27.6203704 124.614198,30.904321 120.157407,30.904321 C117.166667,30.904321 115.114198,29.5555556 114.117284,27.3858025 L114.117284,36.9444444 L109.308642,36.9444444 L109.367284,11.4938272 Z M123.148148,21.287037 L123.148148,20.8765432 C123.148148,17.1234568 121.212963,15.2469136 118.632716,15.2469136 C115.876543,15.2469136 114.058642,17.3580247 114.058642,20.8765432 L114.058642,21.2283951 C114.058642,24.5709877 115.817901,26.6820988 118.574074,26.6820988 C121.388889,26.6234568 123.148148,24.8055556 123.148148,21.287037 Z M135.404321,26.9166667 L134.993827,30.3765432 L130.771605,30.3765432 L130.771605,5.16049383 L135.580247,5.16049383 L135.580247,14.8364198 C136.635802,12.3734568 138.746914,11.0246914 141.737654,11.0246914 C146.253086,11.0833333 149.595679,14.191358 149.595679,20.4660494 L149.595679,21.0524691 C149.595679,27.3271605 146.429012,30.904321 141.62037,30.904321 C138.453704,30.845679 136.401235,29.3796296 135.404321,26.9166667 Z M144.552469,21.0524691 L144.552469,20.5833333 C144.552469,17.1234568 142.675926,15.1882716 140.037037,15.1882716 C137.339506,15.1882716 135.462963,17.3580247 135.462963,20.6419753 L135.462963,21.0524691 C135.462963,24.5709877 137.280864,26.6234568 139.978395,26.6234568 C142.851852,26.6234568 144.552469,24.8055556 144.552469,21.0524691 Z M151.70679,21.345679 L151.70679,20.8179012 C151.70679,14.4845679 155.753086,11.0246914 161.265432,11.0246914 C166.895062,11.0246914 170.824074,14.4845679 170.824074,20.8179012 L170.824074,21.345679 C170.824074,27.5617284 166.953704,30.904321 161.265432,30.904321 C155.166667,30.845679 151.70679,27.5617284 151.70679,21.345679 Z M165.839506,21.287037 L165.839506,20.8179012 C165.839506,17.2993827 164.080247,15.1882716 161.265432,15.1882716 C158.509259,15.1882716 156.691358,17.1234568 156.691358,20.8179012 L156.691358,21.287037 C156.691358,24.6882716 158.450617,26.6234568 161.265432,26.6234568 C164.080247,26.5648148 165.839506,24.6882716 165.839506,21.287037 Z M177.274691,20.5833333 L170.648148,11.4938272 L176.33642,11.4938272 L180.148148,17.1820988 L184.018519,11.4938272 L189.648148,11.4938272 L182.904321,20.5246914 L190,30.3765432 L184.429012,30.3765432 L180.089506,24.1018519 L175.867284,30.3765432 L170.061728,30.3765432 L177.274691,20.5833333 Z" id="Shape" fill="#000000"></path>
            </g>
        </g>
    </g>
</svg>