<?xml version="1.0" encoding="UTF-8"?>
<svg width="114px" height="38px" viewBox="0 0 114 38" version="1.1" xmlns="http://www.w3.org/2000/svg" xmlns:xlink="http://www.w3.org/1999/xlink">
    <!-- Generator: Sketch 52.6 (67491) - http://www.bohemiancoding.com/sketch -->
    <title>company-logo-9</title>
    <desc>Created with Sketch.</desc>
    <g id="Page-1" stroke="none" stroke-width="1" fill="none" fill-rule="evenodd">
        <g id="company-logo-9" fill="#FFFFFF" fill-rule="nonzero">
            <path d="M94.7844775,32.2330746 C94.7827762,32.2330746 94.4336868,32.544306 94.4336868,32.544306 C93.9348655,32.9902388 93.4215821,33.4676493 92.8019549,33.2288731 C92.6308132,33.1666269 92.5104332,32.9386269 92.4815072,32.7616717 C92.4533192,31.4852687 93.0281119,30.3025612 93.5854928,29.1509911 L93.7284179,28.8498269 C95.3317907,26.1726985 97.1954927,23.0182448 99.9326272,20.8289911 C100.393873,20.4962075 100.894424,20.2165671 101.422681,20.4346701 C101.544195,20.5485283 101.685703,20.7459015 101.685703,20.9428493 C101.685703,21.0053791 101.630291,21.1712746 101.598218,21.2228866 C100.833794,22.4582836 100.105725,23.7552746 99.3977345,25.0003134 C98.014137,27.4598209 96.5788153,30.0018507 94.7844212,32.2333582 L94.7844775,32.2330746 Z M79.9537013,25.9239403 C79.8489179,25.9969627 77.9998209,25.3740746 77.6425075,23.6619761 C77.3393582,22.1879164 78.3544119,21.0361194 79.3365132,20.4555134 C79.7580583,20.123297 80.3930272,20.0094388 80.8587821,20.1747671 C81.2911034,20.4657224 81.4082225,20.9849612 81.4082225,21.5444687 C81.4082225,21.887603 81.3627357,22.2400955 81.3225808,22.5616776 C81.3225808,22.5616776 81.3149238,22.6242075 81.3136762,22.6345582 C81.0055642,23.7860149 80.5341093,24.9172806 79.9537298,25.923997 L79.9537013,25.9239403 Z M72.8902388,32.8870149 C72.7016567,32.6068358 72.6391269,32.3004537 72.6328881,31.9692299 C72.596703,29.9345283 74.7858433,26.2907821 76.3310821,24.3057075 L76.3344851,24.3057075 C76.9820731,25.7236179 78.4484194,26.6350507 79.333649,27.0191343 C78.2342015,29.4682627 74.4635239,34.7132836 72.8906642,32.8870149 L72.8902388,32.8870149 Z M99.5775821,33.2482985 C99.2116192,33.4972836 98.697457,33.3058657 98.8897251,32.7352985 C99.3685536,31.2825075 101.272269,28.3219105 101.272269,28.3219105 L106.574687,18.917194 L102.942567,18.917194 C102.770007,19.2007761 102.400783,19.851994 102.400783,19.851994 C102.232761,19.5720985 101.730282,18.9496358 101.523381,18.8152179 C100.636052,18.2544343 99.3341272,18.5195836 98.4360225,19.0279045 C94.5312106,21.311194 91.6822311,25.8225313 89.4351272,29.3400836 C89.4351272,29.3400836 87.0699391,33.2506806 85.7569536,33.5415224 C84.7319749,33.6246119 84.837694,32.2438507 84.8821034,31.9221552 C85.2784093,29.5973493 86.1987749,27.3872239 87.1260881,25.3844537 C89.0120225,24.0770269 91.1644106,22.3648717 93.1204464,20.4867075 C97.3653868,16.4289313 100.943909,11.8317821 101.466834,10.8046477 C101.466834,10.8046477 100.900663,10.9189313 100.232118,10.9394911 C96.9663868,15.4949537 90.2834907,22.1160283 88.2575808,23.1011925 C89.1551179,20.9424523 94.9540881,10.6383269 99.8889834,5.70967015 L100.665545,4.96226119 C101.866231,3.78964925 103.110476,2.58595671 104.079987,2.38875373 C104.18236,2.37843134 104.314225,2.38875373 104.428083,2.62781343 C104.471358,3.54083433 104.131457,4.2154194 103.741531,4.98324627 L103.195069,6.10413283 C103.195069,6.10413283 103.969134,5.95879701 104.477427,5.79233433 C105.067277,4.68250746 105.720537,3.43690149 105.479719,1.95331343 C105.399324,1.47590866 105.053779,1.11277612 104.602203,1.02968657 C103.130128,0.749507463 101.525791,1.83874627 100.234925,2.72108358 L100.182746,2.75199403 C93.5469251,7.95090451 87.943343,15.4434269 83.0441788,25.6750687 C82.6891345,25.9444717 81.3172775,26.2665075 81.0840596,26.1106507 C81.567851,25.1147105 82.1769847,23.7757493 82.4818358,22.3230149 C82.5345821,21.9078507 82.5836417,21.4825911 82.5836417,21.067597 C82.5836417,20.1744269 82.3692536,19.3342299 81.5690987,18.7532836 C80.6310093,18.2862239 79.4716119,18.5042985 78.6898895,18.8569328 C75.1879343,20.3097239 72.5707552,23.9004403 70.6820985,26.8573507 C69.6663075,28.7360821 68.6534657,30.7482105 68.3730597,33.0524851 C68.1755448,34.8577687 68.5776642,36.0200015 69.6040895,36.6013448 C70.6596955,37.1405761 71.9883343,36.5800761 72.5102388,36.3105313 C76.0579642,34.4427463 78.5369254,30.6968537 80.490806,27.272203 C80.5685073,27.261994 81.635343,27.2310836 82.4423047,27.0232179 C82.4530808,27.0232179 82.4576179,27.0232179 82.4754834,27.0341075 C82.4292596,27.1890851 82.0122523,28.4347194 82.0122523,28.4347194 C80.773849,32.0663851 80.2011834,34.5362717 81.3709034,35.9995552 C83.042449,38.0647134 85.8098132,35.9272418 88.0611715,33.1041821 C87.5779477,36.4870328 89.3311655,37.0164806 90.6675749,36.7572866 C92.2027749,36.342406 93.9134549,34.7024507 94.7073715,33.862197 C94.4524311,34.8478149 94.5217668,36.6120925 95.9182668,36.7883105 C96.8755272,36.9652657 97.5918549,36.4446089 98.4207093,35.9982507 C101.393897,34.3792806 104.953306,28.9846985 105.877217,27.424997 L104.66564,27.424997 C103.352088,29.4101851 101.680542,32.0130717 99.577894,33.2486388 L99.5775821,33.2482985 Z M53.7728358,13.1037612 L57.1757075,13.1037612 L59.0962388,9.98435821 L55.6926866,9.98435821 L53.7728358,13.1037612 Z M108.130418,4.81692537 C105.535755,6.29070149 102.846149,7.24512537 99.5900596,6.91316418 C98.6877013,7.93037311 97.8091642,8.97832238 96.9993668,10.0574089 C101.569123,11.2196418 106.413725,8.63581192 109.115695,6.17675821 C111.973919,3.69654925 113.439642,0.573346269 113.439642,0.573346269 C113.439642,0.573346269 111.297179,3.02207761 108.130305,4.81698209 L108.130418,4.81692537 Z M79.5169847,4.02856717 C78.9759105,10.2339105 74.1522925,13.876806 72.9588657,14.1666269 C72.2356179,14.3116791 71.0014687,13.9902388 72.1031283,11.3859343 C73.7256717,7.87813731 76.4957015,4.90041194 79.4677549,3.3747403 C79.5400689,3.63421791 79.5382251,3.79982985 79.5169285,4.02839701 L79.5169847,4.02856717 Z M70.1179403,19.6664179 C69.7723955,18.9194627 68.9519642,18.4420239 68.0777373,18.493806 C65.2386269,18.7534254 62.4616776,21.0881283 61.0034985,24.4399552 C60.238394,26.1627164 59.8208477,27.5842 59.5470209,29.8462776 C60.4298119,28.8296358 62.2305582,27.1590537 64.2740507,26.245806 C64.2740507,26.245806 64.552103,24.0770836 65.9699851,22.1469105 C66.5065224,21.3476627 67.5802776,20.060994 68.7859552,20.4033343 C69.8392925,20.756394 69.4691045,23.6723552 68.0690597,26.4941105 C67.0331343,28.5698179 65.4479105,30.6457523 63.8439701,32.0773881 C62.4259463,33.281194 60.3278358,34.7338717 58.4922089,33.6132687 C57.3360448,32.9287015 56.7463642,31.4963283 56.8709701,29.6492448 C57.4233881,24.4091015 59.8087672,19.9467671 63.2220746,14.8621403 C66.7418955,10.1406119 70.6218657,5.29464776 75.8488507,2.7100806 C76.915006,2.17056567 77.9022687,2.04604477 78.7556806,2.37814776 C78.7556806,2.37814776 73.8491433,5.07614776 71.5101582,10.0677597 C70.915203,11.3339537 70.0877105,13.0456552 70.9209881,14.5608343 C71.3564283,15.349306 72.1296149,15.411694 72.7520776,15.3701776 C75.6189791,14.7059149 77.4711671,12.0287299 78.9846448,9.57999847 C79.8620477,7.72253582 80.6418987,5.87539552 80.6418987,3.82044627 C80.6418987,3.57146119 80.6289668,3.23955672 80.6078689,2.99023134 C81.9775702,2.26414776 84.7861668,3.55058955 84.7861668,3.55058955 C86.9809788,4.2772403 91.6545251,7.85752089 93.2306749,8.54208808 C93.9996357,7.64982537 95.2632775,6.30093881 95.9747285,5.62629701 L94.9447583,4.99322836 C93.2957285,3.98662537 91.552663,3.03186119 89.8369907,2.08764627 C85.9406868,-0.0393328358 82.7689907,0.707622388 81.1548417,1.28879552 C80.5204689,1.51693731 79.940657,1.71416866 79.940657,1.71416866 C78.742806,0.406741791 76.7782627,0.530950746 75.3307463,0.884010451 C70.1250299,2.37820448 65.2919403,6.02036269 60.1103283,12.3401597 C56.3006866,17.2900851 53.9373134,21.5656523 52.6782089,25.7887567 C51.7073373,28.6318373 51.4122985,32.8136523 53.7819105,35.2938612 C55.7965911,37.3997418 58.4681045,36.9436283 60.3547761,36.186294 C64.4422149,34.1731448 68.1158507,29.8351895 69.9466567,24.8441448 C70.3883358,23.3604433 70.8786209,21.2643179 70.1180821,19.6660493 L70.1179403,19.6664179 Z M24.8100299,14.8518746 C24.8032239,14.8725761 24.1158209,16.4496895 24.1158209,16.4496895 C24.0164254,16.5326373 23.8593209,16.4912627 23.6792463,16.4496895 L23.3707089,16.3975105 C22.4018791,16.0967717 21.6710313,15.4532955 21.4457537,14.6855254 C21.1349477,13.1911612 22.4115209,12.018606 22.9739776,11.5933463 C23.5136343,11.2194433 24.3526403,11.0223254 24.8398343,11.4064657 C25.1402895,11.7593836 25.2541477,12.2158089 25.2541477,12.7142329 C25.2542895,13.3885911 25.0461403,14.1460388 24.8100582,14.8518746 L24.8100299,14.8518746 Z M23.3334179,17.8504717 C23.3334179,17.8504717 23.3022239,17.9441955 23.286797,17.9748224 C23.2828269,17.9748224 21.7242597,20.5168523 21.7242597,20.5168523 C20.7836179,21.7726672 19.6091911,23.3504045 18.1410299,24.1075687 C17.7058731,24.2529045 17.1043672,24.3464866 16.7978717,23.9628 C16.1480149,23.1843672 16.4829537,22.1052239 16.7550507,21.233606 L16.8513269,20.9222329 C17.6314612,18.8055761 18.869297,16.9373373 20.0740672,15.2040836 C20.089097,15.1938746 20.1228433,15.1835523 20.1350373,15.1835523 C20.1378731,15.1939313 20.142694,15.1939313 20.1447925,15.2147463 C20.9008224,16.6672537 22.3184493,17.3414985 23.3786493,17.6532687 C23.3850582,17.6532687 23.3918642,17.6635911 23.3918642,17.6844627 C23.392006,17.7153731 23.3746791,17.7572015 23.3334463,17.8502164 L23.3334179,17.8504717 Z M42.8302537,16.1798895 C43.5274119,15.2150299 45.5566119,12.6310299 46.0512925,12.1952776 C47.7150687,10.7315403 48.3800687,11.3756119 48.4376358,11.8318672 C46.8848537,14.6127866 45.0522328,17.7984343 43.3291881,20.6626134 C43.3325911,20.6524045 42.7899567,21.4822791 42.7899567,21.4822791 C42.0289358,22.6442851 41.262697,23.6404523 40.0128373,24.3356821 C39.834606,24.3878612 39.5408149,24.4087045 39.3452851,24.2629433 C39.1099119,24.1072567 39.0170388,23.8477791 39.0435537,23.5778089 C39.1184194,22.6856597 40.026903,19.9570328 42.8302254,16.1797194 L42.8302537,16.1798895 Z M25.551597,9.87075523 C23.4006269,8.45953728 19.0774179,11.1575373 15.6148806,15.7851433 C12.448403,19.9363313 11.0810836,24.7610836 12.5690955,26.9923075 C14.7826239,29.617597 18.8918418,25.798994 20.6392746,23.7550477 L20.8647224,23.5161299 C22.0530448,22.2397269 22.9711701,20.7038463 23.859803,19.2301836 C23.859803,19.2301836 24.6765194,17.8811836 24.7155403,17.8187955 C25.2203164,17.7257806 25.8283164,17.5804448 26.5134507,17.3832134 C26.5036955,17.4141239 23.8921313,21.8036911 24.1585851,23.9827358 C24.2415329,24.6474523 24.1781523,27.0755955 26.5488985,27.8122283 C29.7085701,28.3418179 32.2318836,25.8924911 34.4574358,23.7133328 C34.4574358,23.7133328 34.8367269,23.3504895 35.0512567,23.1433328 C34.9969791,23.3606985 34.926197,23.6506612 34.926197,23.6506612 C34.0011523,26.8676164 35.2480627,27.5425418 36.0280836,27.7916403 C38.3853313,28.4768881 41.2014717,25.0522373 41.2105463,25.0522373 C41.1375239,26.1309836 40.9239866,27.0234164 42.0611791,27.7394612 C43.1345373,28.1237149 44.2208269,27.5379761 45.0464477,26.9879687 C48.0205433,24.8918433 50.4164717,21.6112523 52.3515224,18.7754313 L51.1170895,18.7754313 C51.1025134,18.7754313 48.0709642,23.1692523 46.1025075,24.1242433 C46.0996717,24.1242433 45.7412239,24.3081463 45.5347761,24.1626403 C45.2792687,23.9445657 45.3800821,23.4914015 45.5376119,23.1703866 C45.5475373,23.1494015 53.1381791,9.98438655 53.1381791,9.98438655 L49.5542687,9.98438655 C49.5542687,9.98438655 49.1627836,10.6177955 49.1308806,10.6593119 C49.1067761,10.6386105 49.0493507,10.5297149 49.0095075,10.4775358 C46.7890597,7.40605821 41.7605821,12.1305358 37.9747612,17.6090582 C36.5172627,19.7157895 34.6616717,22.0878403 32.7375672,23.8002224 C32.7375672,23.8002224 29.8871134,26.4131477 28.6691851,24.5358343 C28.2239612,23.7470224 28.3609313,22.5938642 28.6120433,21.8365866 C30.0300672,17.7999657 32.4735806,14.1367657 35.254103,11.9259597 C36.0390582,11.314103 36.8921866,11.1371477 37.3156313,11.3966537 C37.7190269,11.6357134 37.7841089,12.2266985 37.5288851,12.6314836 C36.881297,12.6107821 36.3625119,12.8075881 35.9407119,13.2434537 C35.1098164,14.1151851 34.8211299,14.9558358 35.0853149,15.7446477 C36.368694,17.5709164 38.9281358,13.9596687 38.8043239,11.7597523 C38.7600851,10.9709403 38.3392493,10.2239851 37.7112851,9.86043285 C36.7753507,9.30035821 35.3474582,9.44541047 34.4234343,9.89191047 C33.1864493,10.3586866 31.2283149,11.9876955 30.0853089,13.2539463 C28.6464134,14.8418925 26.1786821,16.6057731 25.4068851,16.4082299 C25.6596985,15.7334179 27.7441687,11.4686836 25.5513701,9.87109549 L25.551597,9.87075523 Z M43.5658657,32.9594418 C39.3450299,30.2404567 33.6166717,29.7633582 24.3787015,32.3263731 C14.5304627,34.6406866 11.2465821,36.1242179 6.93443283,33.1460388 C5.27774627,31.6830388 4.68375523,29.3274358 5.12733433,25.9345463 C6.15605672,20.4032776 8.93595523,15.0801582 13.8741403,9.17597907 C16.6304448,6.10450149 19.1870507,3.46860597 22.5630955,2.41027761 C25.1504985,1.74624179 24.908603,3.77969552 24.5955283,4.0704806 C24.2651552,4.0704806 23.7101851,4.12254627 23.2812955,4.40241343 C22.9331985,4.67238358 21.9776687,5.54411493 21.9263403,6.71672687 C21.8523254,8.51180153 23.7100717,8.1381537 24.5113612,7.15259254 C25.3750388,6.04197164 26.6513851,3.91504925 25.6473911,1.93281045 C25.2265552,1.22725821 24.4994507,0.739667164 23.5966388,0.573601493 C20.5053105,0.396929851 17.6261015,1.87053582 14.9689373,3.49971493 C9.15947464,7.53622239 4.51099701,13.1295955 1.88105672,19.2521328 C0.364573134,22.9461866 -1.00682985,28.2377149 1.04891343,32.5447597 C2.63912836,35.5331477 5.94059105,37.1205269 9.87965966,36.7885657 C12.642203,36.4983194 15.9823463,35.6054612 18.2294507,35.0663717 C20.4761015,34.5264313 31.9763761,30.5731836 35.7553911,37.4535657 C35.7553911,37.4535657 37.0119433,35.014306 40.1521612,34.962297 C42.7338925,34.7240881 46.4584597,35.709706 49.1706388,37.7017 C48.2670329,36.3427746 45.7051523,34.3400045 43.5679075,32.9596403 L43.5658657,32.9594418 Z" id="Shape"></path>
        </g>
    </g>
</svg>