<?xml version="1.0" encoding="UTF-8"?>
<svg width="138px" height="37px" viewBox="0 0 138 37" version="1.1" xmlns="http://www.w3.org/2000/svg" xmlns:xlink="http://www.w3.org/1999/xlink">
    <!-- Generator: Sketch 52.6 (67491) - http://www.bohemiancoding.com/sketch -->
    <title>company-logo-5</title>
    <desc>Created with Sketch.</desc>
    <g id="Page-1" stroke="none" stroke-width="1" fill="none" fill-rule="evenodd">
        <g id="company-logo-5" transform="translate(0.000000, -1.000000)" fill="#FFFFFF">
            <g id="g10" transform="translate(69.048780, 19.300240) scale(-1, 1) rotate(-180.000000) translate(-69.048780, -19.300240) translate(0.000000, 0.763654)">
                <g id="g12">
                    <path d="M16.5035332,36.6466334 L5.80645482,36.6466334 C5.07432498,36.6466334 4.45184816,36.1146857 4.33762624,35.3918241 L0.0112182239,7.96162659 C-0.0748306939,7.42060632 0.344450876,6.93248712 0.893378564,6.93248712 L6.00033838,6.93248712 C6.73233769,6.93248712 7.3548145,7.46420646 7.46903641,8.18840604 L8.63586225,15.5866901 C8.74855032,16.3110529 9.37256098,16.8429028 10.1030264,16.8429028 L13.4894126,16.8429028 C20.5358606,16.8429028 24.6025851,20.2527207 25.664751,27.0097956 C26.1433081,29.9660546 25.6850172,32.288741 24.3007128,33.9154242 C22.7803864,35.701855 20.0838028,36.6466334 16.5035332,36.6466334 Z M17.7376847,26.6280986 C17.1526726,22.7896874 14.219878,22.7896874 11.3840742,22.7896874 L9.76992271,22.7896874 L10.9023188,29.9581243 C10.9696444,30.3914496 11.344945,30.7105204 11.7829697,30.7105204 L12.5227361,30.7105204 C14.4544246,30.7105204 16.2767537,30.7105204 17.2183012,29.6094865 C17.7798814,28.9524493 17.951965,27.976472 17.7376847,26.6280986 Z" id="path14" fill-rule="nonzero"></path>
                    <path d="M48.479045,26.7516541 L43.3566816,26.7516541 C42.9203538,26.7516541 42.5434215,26.4325507 42.4758674,25.999258 L42.2493817,24.5665235 L41.8910512,25.0858742 C40.7821196,26.6954242 38.3090519,27.2333769 35.8408794,27.2333769 C30.180335,27.2333769 25.3455497,22.9461061 24.4039694,16.9319959 C23.9144469,13.9320062 24.6104827,11.0633391 26.312226,9.06292167 C27.8732154,7.22352456 30.1067761,6.4570955 32.7643936,6.4570955 C37.325438,6.4570955 39.8546375,9.38966162 39.8546375,9.38966162 L39.6261938,7.96632601 C39.5400378,7.42200962 39.9593954,6.93402095 40.5053761,6.93402095 L45.1192889,6.93402095 C45.8529199,6.93402095 46.4723291,7.46587083 46.5881828,8.18993988 L49.3565957,25.7224819 C49.4443834,26.2621315 49.0266575,26.7516541 48.479045,26.7516541 Z M41.3388698,16.7818103 C40.8447784,13.8554123 38.521831,11.8906647 35.5595672,11.8906647 C34.0720714,11.8906647 32.8831845,12.3678513 32.1198231,13.271934 C31.3628255,14.169751 31.0749862,15.4476331 31.3159292,16.8710667 C31.7772878,19.7724991 34.1392992,21.8010804 37.0562006,21.8010804 C38.5110615,21.8010804 39.6934215,21.3178238 40.4724149,20.4060718 C41.2530402,19.4847905 41.5624184,18.1990106 41.3388698,16.7818103 Z" id="path16" fill-rule="nonzero"></path>
                    <path d="M75.7607867,26.7516541 L70.6132944,26.7516541 C70.1221402,26.7516541 69.6606836,26.5076434 69.3823085,26.0993164 L62.2826005,15.6415166 L59.2733425,25.6911199 C59.0840604,26.3199931 58.5038131,26.7516541 57.8468739,26.7516541 L52.7884747,26.7516541 C52.1736345,26.7516541 51.7467709,26.1510752 51.9422535,25.5723291 L57.6122295,8.93303504 L52.2816558,1.40788629 C51.8622981,0.815234455 52.2845929,0 53.0090862,0 L58.1503779,0 C58.6382686,0 59.0951563,0.237877258 59.3718997,0.638291653 L76.4927859,25.3516524 C76.9026795,25.9430282 76.4820165,26.7516541 75.7607867,26.7516541" id="path18"></path>
                    <path d="M92.803676,36.6466334 L82.1049983,36.6466334 C81.3746307,36.6466334 80.7519581,36.1146857 80.6377361,35.3918241 L76.3113363,7.96162659 C76.2255067,7.42060632 76.6445379,6.93248712 77.1905187,6.93248712 L82.6806768,6.93248712 C83.1904328,6.93248712 83.627087,7.30458949 83.7067159,7.81144108 L84.9344383,15.5866901 C85.0470285,16.3110529 85.6713329,16.8429028 86.4017004,16.8429028 L89.7865854,16.8429028 C96.8344037,16.8429028 100.899725,20.2527207 101.963294,27.0097956 C102.443679,29.9660546 101.982223,32.288741 100.597853,33.9154242 C99.0790275,35.701855 96.3840434,36.6466334 92.803676,36.6466334 Z M94.0379253,26.6280986 C93.454414,22.7896874 90.5218482,22.7896874 87.6842494,22.7896874 L86.0717623,22.7896874 L87.2058228,29.9581243 C87.2730505,30.3914496 87.6450876,30.7105204 88.0846788,30.7105204 L88.8245104,30.7105204 C90.7548609,30.7105204 92.5784953,30.7105204 93.5200103,29.6094865 C94.0816559,28.9524493 94.2520099,27.976472 94.0379253,26.6280986 Z" id="path20" fill-rule="nonzero"></path>
                    <path d="M124.77798,26.7516541 L119.658554,26.7516541 C119.218963,26.7516541 118.844968,26.4325507 118.779371,25.999258 L118.552559,24.5665235 L118.192924,25.0858742 C117.083992,26.6954242 114.612555,27.2333769 112.144383,27.2333769 C106.483545,27.2333769 101.650652,22.9461061 100.708811,16.9319959 C100.220921,13.9320062 100.913758,11.0633391 102.615664,9.06292167 C104.179852,7.22352456 106.410116,6.4570955 109.067571,6.4570955 C113.628616,6.4570955 116.157815,9.38966162 116.157815,9.38966162 L115.929371,7.96632601 C115.843542,7.42200962 116.262573,6.93402095 116.811817,6.93402095 L121.424424,6.93402095 C122.154793,6.93402095 122.777465,7.46587083 122.891687,8.18993988 L125.661731,25.7224819 C125.745929,26.2621315 125.326898,26.7516541 124.77798,26.7516541 Z M117.637479,16.7818103 C117.146324,13.8554123 114.820439,11.8906647 111.858176,11.8906647 C110.373617,11.8906647 109.181793,12.3678513 108.418465,13.271934 C107.661663,14.169751 107.37676,15.4476331 107.614668,16.8710667 C108.079062,19.7724991 110.437908,21.8010804 113.355135,21.8010804 C114.809671,21.8010804 115.99203,21.3178238 116.771024,20.4060718 C117.554586,19.4847905 117.86429,18.1990106 117.637479,16.7818103 Z" id="path22" fill-rule="nonzero"></path>
                    <path d="M130.817056,35.8940742 L126.426365,7.96162659 C126.340536,7.42060632 126.759567,6.93248712 127.305548,6.93248712 L131.719409,6.93248712 C132.45304,6.93248712 133.075713,7.46420646 133.188303,8.18840604 L137.51764,35.6170044 C137.603796,36.1584164 137.184765,36.6479389 136.638784,36.6479389 L131.695912,36.6479389 C131.259584,36.6466334 130.884284,36.3271384 130.817056,35.8940742" id="path24"></path>
                </g>
            </g>
        </g>
    </g>
</svg>