<?xml version="1.0" encoding="UTF-8"?>
<svg width="120px" height="36px" viewBox="0 0 120 36" version="1.1" xmlns="http://www.w3.org/2000/svg" xmlns:xlink="http://www.w3.org/1999/xlink">
    <!-- Generator: Sketch 52.6 (67491) - http://www.bohemiancoding.com/sketch -->
    <title>logo-4</title>
    <desc>Created with Sketch.</desc>
    <g id="Page-1" stroke="none" stroke-width="1" fill="none" fill-rule="evenodd">
        <g id="logo-4" fill="#FFFFFF">
            <path d="M74.0656149,28.1446322 C67.1551026,33.2542231 57.1034483,35.9765462 48.4338964,35.9765462 C36.2881474,35.9765462 25.3988553,31.4951835 17.1062404,24.0402066 C16.478012,23.4538601 17.0224767,22.6581041 17.8182326,23.1188049 C26.7390758,28.3121597 37.7540137,31.4114198 49.1458886,31.4114198 C56.810275,31.4114198 65.2704174,29.8199079 73.0604495,26.5112383 C74.2331426,26.0505375 75.1964261,27.3069943 74.0656149,28.1446322 Z" id="Path"></path>
            <path d="M76.9554656,24.8359626 C76.0759458,23.7051515 71.0920005,24.291498 68.8722603,24.5846712 C68.2021499,24.668435 68.0765043,24.0820885 68.7047326,23.6632695 C72.6835125,20.8571828 79.1752059,21.6948206 79.92908,22.6162222 C80.6829541,23.5376239 79.7196705,30.0711993 75.992182,33.1704593 C75.4058355,33.6311601 74.8613709,33.3798687 75.1126623,32.7516404 C75.9503001,30.6575457 77.8349853,26.0086556 76.9554656,24.8359626 Z" id="Path"></path>
            <path d="M68.9979059,3.97877984 L68.9979059,1.25645679 C68.9979059,0.837637861 69.2910791,0.586346503 69.6680162,0.586346503 L81.8137652,0.586346503 C82.1907022,0.586346503 82.5257574,0.879519754 82.5257574,1.25645679 L82.5257574,3.55996091 C82.5257574,3.93689795 82.1907022,4.43948067 81.6043557,5.27711853 L75.3220718,14.2398436 C77.6674578,14.1979617 80.1384895,14.5330169 82.2325841,15.7057099 C82.6932849,15.9570013 82.8189306,16.3758202 82.8608125,16.7527572 L82.8608125,19.6426078 C82.8608125,20.0614268 82.4419935,20.5221276 81.9812927,20.2708362 C78.2538043,18.3023872 73.269859,18.0929778 69.1654335,20.3127182 C68.7466145,20.5221276 68.2859137,20.1033087 68.2859137,19.6844897 L68.2859137,16.9202848 C68.2859137,16.5014659 68.2859137,15.7475918 68.7466145,15.0774815 L76.0340639,4.64889013 L69.7098981,4.64889013 C69.3329611,4.64889013 68.9979059,4.35571688 68.9979059,3.97877984 Z M24.7287449,20.8571828 L21.0431384,20.8571828 C20.7080832,20.8153009 20.4149099,20.5640095 20.373028,20.2289543 L20.373028,1.29833869 C20.373028,0.921401649 20.7080832,0.628228396 21.0850203,0.628228396 L24.5193355,0.628228396 C24.8962725,0.628228396 25.1475639,0.921401649 25.1894457,1.25645679 L25.1894457,3.72748848 L25.2732095,3.72748848 C26.1527293,1.34022057 27.8698869,0.209409465 30.1315091,0.209409465 C32.4350133,0.209409465 33.9008795,1.34022057 34.9060449,3.72748848 C35.7855647,1.34022057 37.8377775,0.209409465 40.0156359,0.209409465 C41.565266,0.209409465 43.2405417,0.837637861 44.287589,2.30350412 C45.460282,3.89501606 45.2089906,6.19852017 45.2089906,8.25073293 L45.2089906,20.2289543 C45.2089906,20.6058914 44.8739355,20.8990647 44.4969985,20.8990647 L40.8532737,20.8990647 C40.4763368,20.8571828 40.1831635,20.5640095 40.1831635,20.2289543 L40.1831635,10.1773 C40.1831635,9.38154403 40.2669273,7.37121318 40.0993997,6.6173391 C39.8062264,5.36088231 39.0104705,4.98394527 37.9215412,4.98394527 C37.0420215,4.98394527 36.078738,5.57029178 35.7018009,6.53357532 C35.3248639,7.49685885 35.3667458,9.08837083 35.3667458,10.1773 L35.3667458,20.2289543 C35.3667458,20.6058914 35.0316906,20.8990647 34.6547536,20.8990647 L30.969147,20.8990647 C30.5922099,20.8571828 30.2990367,20.5640095 30.2990367,20.2289543 L30.2990367,10.1773 C30.2990367,8.08320536 30.6340918,4.94206338 28.0374145,4.94206338 C25.3988553,4.94206338 25.482619,7.95755968 25.482619,10.1773 L25.482619,20.2289543 C25.4407371,20.5640095 25.1475639,20.8571828 24.7287449,20.8571828 Z M92.9962303,0.209409465 C98.4827589,0.209409465 101.456373,4.90018149 101.456373,10.8892922 C101.456373,16.6689934 98.1895851,21.2760017 92.9962303,21.2760017 C87.6353486,21.2760017 84.7036158,16.5852297 84.7036158,10.7217646 C84.6617339,4.81641771 87.6353486,0.209409465 92.9962303,0.209409465 Z M92.9962303,4.10442552 C90.2739077,4.10442552 90.10638,7.831914 90.10638,10.1354181 C90.10638,12.4389222 90.0644983,17.3809857 92.9543486,17.3809857 C95.8023171,17.3809857 95.9698449,13.4022057 95.9698449,10.9730559 C95.9698449,9.38154403 95.8860814,7.45497697 95.42538,5.94722882 C95.0065611,4.60700823 94.1689234,4.10442552 92.9962303,4.10442552 Z M108.534413,20.8571828 L104.848806,20.8571828 C104.47187,20.8153009 104.178696,20.5221276 104.178696,20.1870724 L104.178696,1.2145749 C104.220578,0.879519754 104.513751,0.586346503 104.890689,0.586346503 L108.325004,0.586346503 C108.660058,0.586346503 108.91135,0.837637861 108.995114,1.13081111 L108.995114,4.02066173 L109.078877,4.02066173 C110.125925,1.42398436 111.549909,0.209409465 114.104705,0.209409465 C115.738099,0.209409465 117.371493,0.795755968 118.41854,2.4291498 C119.381823,3.93689795 119.381823,6.49169343 119.381823,8.33449672 L119.381823,20.2708362 C119.339942,20.6058914 119.046768,20.8571828 118.669831,20.8571828 L114.984225,20.8571828 C114.649169,20.8153009 114.355996,20.5640095 114.314115,20.2708362 L114.314115,9.96789051 C114.314115,7.87379589 114.565406,4.85829959 112.01061,4.85829959 C111.131091,4.85829959 110.293453,5.44464609 109.874633,6.36604774 C109.372051,7.53874075 109.288287,8.66955189 109.288287,9.96789051 L109.288287,20.1870724 C109.246405,20.5640095 108.91135,20.8571828 108.534413,20.8571828 Z M63.0506771,20.8153009 C62.7993857,21.0247103 62.4643306,21.0665922 62.1711573,20.8990647 C60.9565824,19.8938992 60.7052911,19.3913165 60.0351808,18.428033 C58.0248499,20.4802457 56.5589836,21.1084741 53.9623063,21.1084741 C50.8630462,21.1084741 48.4338964,19.181907 48.4338964,15.3706547 C48.4338964,12.3551584 50.0672902,10.3448276 52.3707944,9.33966214 C54.3811252,8.4601424 57.1872121,8.29261483 59.3231886,8.04132347 L59.3231886,7.58062264 C59.3231886,6.70110289 59.4069524,5.65405557 58.8624878,4.90018149 C58.4017869,4.2300712 57.5641491,3.93689795 56.810275,3.93689795 C55.3862907,3.93689795 54.1298338,4.64889013 53.8366606,6.15663828 C53.7528969,6.49169343 53.5434873,6.82674857 53.2084323,6.82674857 L49.6484713,6.44981153 C49.3552981,6.36604774 49.0202429,6.15663828 49.1040067,5.69593746 C49.9416446,1.34022057 53.8366606,0.0418818931 57.3547396,0.0418818931 C59.1556611,0.0418818931 61.5010471,0.502582717 62.9250314,1.88468519 C64.7259528,3.55996091 64.5584253,5.82158313 64.5584253,8.25073293 L64.5584253,13.9885523 C64.5584253,15.7057099 65.2704174,16.459584 65.9405277,17.4228675 C66.1918191,17.7579226 66.2337009,18.1767416 65.9405277,18.3861511 C65.1447717,19.0143795 63.8045511,20.1870724 63.0506771,20.8153009 Z M59.3231886,11.8106938 L59.3231886,11.0149379 C56.6427475,11.0149379 53.8366606,11.6012844 53.8366606,14.7424263 C53.8366606,16.3339383 54.6742985,17.4228675 56.0982828,17.4228675 C57.1453302,17.4228675 58.0667319,16.7946391 58.6530783,15.7475918 C59.3650705,14.4492531 59.3231886,13.2346782 59.3231886,11.8106938 Z M14.6352087,20.8153009 C14.3839173,21.0247103 14.0488622,21.0665922 13.755689,20.8990647 C12.541114,19.8938992 12.2898227,19.3913165 11.6197124,18.428033 C9.60938151,20.4802457 8.14351528,21.1084741 5.54683791,21.1084741 C2.44757783,21.1084741 0.018428033,19.181907 0.018428033,15.3706547 C0.018428033,12.3551584 1.65182187,10.3448276 3.95532598,9.33966214 C5.96565685,8.4601424 8.77174371,8.29261483 10.9077202,8.04132347 L10.9077202,7.58062264 C10.9077202,6.70110289 10.991484,5.65405557 10.4470194,4.90018149 C9.98631857,4.2300712 9.14868069,3.93689795 8.39480665,3.93689795 C6.97082228,3.93689795 5.71436549,4.64889013 5.42119224,6.15663828 C5.33742845,6.49169343 5.12801899,6.82674857 4.79296384,6.82674857 L1.23300293,6.44981153 C0.93982968,6.36604774 0.604774536,6.15663828 0.688538322,5.69593746 C1.52617618,1.34022057 5.42119224,0.0418818931 8.93927126,0.0418818931 C10.7401927,0.0418818931 13.0855786,0.502582717 14.509563,1.88468519 C16.3104844,3.55996091 16.1429569,5.82158313 16.1429569,8.25073293 L16.1429569,13.9885523 C16.1429569,15.7057099 16.854949,16.459584 17.5250594,17.4228675 C17.7763507,17.7579226 17.8182326,18.1767416 17.5250594,18.3861511 C16.7293034,19.0143795 15.3890828,20.1870724 14.6352087,20.8153009 Z M10.9496021,11.8106938 L10.9496021,11.0149379 C8.26916097,11.0149379 5.46307413,11.6012844 5.46307413,14.7424263 C5.46307413,16.3339383 6.30071199,17.4228675 7.72469636,17.4228675 C8.77174371,17.4228675 9.69314537,16.7946391 10.2794919,15.7475918 C10.991484,14.4492531 10.9496021,13.2346782 10.9496021,11.8106938 Z" id="Shape" fill-rule="nonzero"></path>
        </g>
    </g>
</svg>