<?xml version="1.0" encoding="UTF-8"?>
<svg width="165px" height="38px" viewBox="0 0 165 38" version="1.1" xmlns="http://www.w3.org/2000/svg" xmlns:xlink="http://www.w3.org/1999/xlink">
    <!-- Generator: Sketch 52.6 (67491) - http://www.bohemiancoding.com/sketch -->
    <title>Shape</title>
    <desc>Created with Sketch.</desc>
    <g id="Page-1" stroke="none" stroke-width="1" fill="none" fill-rule="evenodd">
        <path d="M0,2.24354243 L10.6568266,2.24354243 C17.4575645,2.24354243 23.0664206,6.16974167 23.0664206,15.1439114 L23.0664206,17.0369004 C23.0664206,26.0811808 17.808118,30.1476014 10.8671586,30.1476014 L0,30.1476014 L0,2.24354243 Z M5.95940958,7.29151284 L5.95940958,25.0295203 L10.5166051,25.0295203 C14.3726937,25.0295203 16.9667896,22.505535 16.9667896,16.8966789 L16.9667896,15.4243542 C16.9667896,9.81549819 14.2324722,7.29151284 10.3062731,7.29151284 L5.95940958,7.29151284 Z M26.2214021,7.57195573 L30.9889298,7.57195573 L31.7601475,12.8302583 C32.6715866,9.25461254 34.9852398,7.36162357 39.1918818,7.36162357 L40.6642065,7.36162357 L40.6642065,13.3911439 L38.210332,13.3911439 C33.3726937,13.3911439 32.1808117,15.0738007 32.1808117,19.8413284 L32.1808117,30.2177122 L26.2915128,30.2177122 L26.2915128,7.57195573 L26.2214021,7.57195573 Z M41.8560885,19.3505534 L41.8560885,18.7195572 C41.8560885,11.1476014 46.6937268,7.01107008 53.2841328,7.01107008 C60.0147605,7.01107008 64.7121773,11.1476014 64.7121773,18.7195572 L64.7121773,19.3505534 C64.7121773,26.7822878 60.1549817,30.7785978 53.2841328,30.7785978 C45.9926198,30.7084871 41.8560885,26.7822878 41.8560885,19.3505534 Z M58.6826573,19.2804427 L58.6826573,18.7195572 C58.6826573,14.5129152 56.5793357,11.9889299 53.214022,11.9889299 C49.9188191,11.9889299 47.7453874,14.302583 47.7453874,18.7195572 L47.7453874,19.2804427 C47.7453874,23.3468634 49.8487084,25.6605166 53.214022,25.6605166 C56.5793357,25.5904059 58.6826573,23.3468634 58.6826573,19.2804427 Z M67.7970474,7.57195573 L72.7047966,7.57195573 L73.2656826,11.8487085 C74.4575646,8.97416978 76.9815499,7.01107008 80.6974171,7.01107008 C86.4464948,7.01107008 90.232472,11.1476014 90.232472,18.7896679 L90.232472,19.4206642 C90.232472,26.8523985 86.02583,30.7785978 80.6974171,30.7785978 C77.1217711,30.7785978 74.667897,29.1660516 73.476015,26.5719556 L73.476015,38 L67.7269374,38 L67.7970474,7.57195573 Z M84.2730631,19.2804427 L84.2730631,18.7896679 C84.2730631,14.302583 81.9594091,12.0590405 78.8745391,12.0590405 C75.5793355,12.0590405 73.4059038,14.5830258 73.4059038,18.7896679 L73.4059038,19.2103321 C73.4059038,23.206642 75.5092255,25.7306272 78.8044279,25.7306272 C82.1697415,25.6605166 84.2730631,23.4870849 84.2730631,19.2804427 Z M98.9261997,26.0110701 L98.4354237,30.1476014 L93.3874533,30.1476014 L93.3874533,0 L99.1365309,0 L99.1365309,11.5682656 C100.398524,8.62361618 102.922509,7.01107008 106.498155,7.01107008 C111.896678,7.0811808 115.892989,10.7970479 115.892989,18.298893 L115.892989,19 C115.892989,26.501845 112.107011,30.7785978 106.357933,30.7785978 C102.571956,30.7084871 100.118081,28.9557195 98.9261997,26.0110701 Z M109.863469,19 L109.863469,18.4391143 C109.863469,14.302583 107.619926,11.9889299 104.464945,11.9889299 C101.239853,11.9889299 98.9963097,14.5830258 98.9963097,18.509225 L98.9963097,19 C98.9963097,23.206642 101.169741,25.6605166 104.394834,25.6605166 C107.830259,25.6605166 109.863469,23.4870849 109.863469,19 Z M118.416974,19.3505534 L118.416974,18.7195572 C118.416974,11.1476014 123.254612,7.01107008 129.845018,7.01107008 C136.575646,7.01107008 141.273063,11.1476014 141.273063,18.7195572 L141.273063,19.3505534 C141.273063,26.7822878 136.645756,30.7785978 129.845018,30.7785978 C122.553505,30.7084871 118.416974,26.7822878 118.416974,19.3505534 Z M135.313652,19.2804427 L135.313652,18.7195572 C135.313652,14.5129152 133.210332,11.9889299 129.845018,11.9889299 C126.549815,11.9889299 124.376383,14.302583 124.376383,18.7195572 L124.376383,19.2804427 C124.376383,23.3468634 126.479705,25.6605166 129.845018,25.6605166 C133.210332,25.5904059 135.313652,23.3468634 135.313652,19.2804427 Z M148.985239,18.4391143 L141.06273,7.57195573 L147.863469,7.57195573 L152.420664,14.3726937 L157.04797,7.57195573 L163.778597,7.57195573 L155.715867,18.3690037 L164.199262,30.1476014 L157.538745,30.1476014 L152.350553,22.6457565 L147.302583,30.1476014 L140.361623,30.1476014 L148.985239,18.4391143 Z" id="Shape" fill="#FFFFFF" fill-rule="nonzero"></path>
    </g>
</svg>