<?xml version="1.0" encoding="UTF-8"?>
<svg width="300px" height="300px" viewBox="0 0 300 300" version="1.1" xmlns="http://www.w3.org/2000/svg" xmlns:xlink="http://www.w3.org/1999/xlink">
    <!-- Generator: Sketch 52.6 (67491) - http://www.bohemiancoding.com/sketch -->
    <title>Slice</title>
    <desc>Created with Sketch.</desc>
    <g id="Page-1" stroke="none" stroke-width="1" fill="none" fill-rule="evenodd">
        <g id="app-logo">
            <g id="Group" transform="translate(60.000000, 48.000000)">
                <path d="M157.170732,39.6585366 C157.02439,38.6341463 156.146341,38.0487805 155.414634,38.0487805 C154.682927,38.0487805 140.195122,37.7560976 140.195122,37.7560976 C140.195122,37.7560976 128.04878,26.0487805 126.878049,24.7317073 C125.707317,23.5609756 123.365854,23.8536585 122.487805,24.1463415 C122.487805,24.1463415 120.146341,24.8780488 116.341463,26.0487805 C115.756098,24 114.731707,21.5121951 113.414634,18.8780488 C109.170732,10.6829268 102.731707,6.29268293 95.1219512,6.29268293 C95.1219512,6.29268293 95.1219512,6.29268293 95.1219512,6.29268293 C94.5365854,6.29268293 94.097561,6.29268293 93.5121951,6.43902439 C93.2195122,6.14634146 93.0731707,5.85365854 92.7804878,5.70731707 C89.4146341,2.19512195 85.1707317,0.43902439 80.0487805,0.585365854 C70.2439024,0.87804878 60.4390244,8.04878049 52.3902439,20.6341463 C46.8292683,29.5609756 42.5853659,40.6829268 41.2682927,49.3170732 C30,52.8292683 22.097561,55.3170732 21.804878,55.3170732 C16.097561,57.0731707 15.9512195,57.2195122 15.2195122,62.6341463 C14.9268293,66.7317073 0,182.195122 0,182.195122 L125.268293,203.853659 L179.560976,190.390244 C179.414634,190.390244 157.317073,40.6829268 157.170732,39.6585366 Z M110.04878,28.097561 C107.121951,28.9756098 103.902439,30 100.390244,31.1707317 C100.390244,26.195122 99.6585366,19.1707317 97.4634146,13.3170732 C104.926829,14.4878049 108.585366,22.9756098 110.04878,28.097561 Z M93.804878,33.0731707 C87.2195122,35.1219512 80.0487805,37.3170732 72.8780488,39.5121951 C74.9268293,31.7560976 78.7317073,24.1463415 83.4146341,19.0243902 C85.1707317,17.1219512 87.6585366,15.0731707 90.4390244,13.902439 C93.3658537,19.6097561 93.9512195,27.6585366 93.804878,33.0731707 Z M80.3414634,7.17073171 C82.6829268,7.17073171 84.5853659,7.6097561 86.195122,8.7804878 C83.5609756,10.097561 80.9268293,12.1463415 78.5853659,14.7804878 C72.2926829,21.5121951 67.4634146,31.902439 65.5609756,42 C59.5609756,43.902439 53.7073171,45.6585366 48.4390244,47.2682927 C51.9512195,31.3170732 65.2682927,7.6097561 80.3414634,7.17073171 Z" id="Shape" fill="#95BF47" fill-rule="nonzero"></path>
                <g transform="translate(32.195122, 23.414634)" id="Path">
                    <path d="M123.219512,14.6341463 C122.487805,14.6341463 108,14.3414634 108,14.3414634 C108,14.3414634 95.8536585,2.63414634 94.6829268,1.31707317 C94.2439024,0.87804878 93.6585366,0.585365854 93.0731707,0.585365854 L93.0731707,180.439024 L147.365854,166.97561 C147.365854,166.97561 125.268293,17.2682927 125.121951,16.2439024 C124.829268,15.2195122 123.95122,14.6341463 123.219512,14.6341463 Z" fill="#5E8E3E"></path>
                    <path d="M62.9268293,42.5853659 L56.6341463,66.1463415 C56.6341463,66.1463415 49.6097561,62.9268293 41.2682927,63.5121951 C28.9756098,64.2439024 28.9756098,72 28.9756098,73.902439 C29.7073171,84.4390244 57.3658537,86.7804878 58.9756098,111.512195 C60.1463415,130.97561 48.7317073,144.292683 32.0487805,145.317073 C12.1463415,146.341463 1.17073171,134.634146 1.17073171,134.634146 L5.41463415,116.634146 C5.41463415,116.634146 16.5365854,124.97561 25.3170732,124.390244 C31.0243902,124.097561 33.2195122,119.268293 32.9268293,116.04878 C32.0487805,102.292683 9.51219512,103.170732 8.04878049,80.4878049 C6.87804878,61.4634146 19.3170732,42.2926829 46.8292683,40.5365854 C57.5121951,39.804878 62.9268293,42.5853659 62.9268293,42.5853659 Z" fill="#FFFFFF"></path>
                </g>
            </g>
        </g>
    </g>
</svg>