<?xml version="1.0" encoding="UTF-8"?>
<svg width="300px" height="300px" viewBox="0 0 300 300" version="1.1" xmlns="http://www.w3.org/2000/svg" xmlns:xlink="http://www.w3.org/1999/xlink">
    <!-- Generator: Sketch 52.6 (67491) - http://www.bohemiancoding.com/sketch -->
    <title>Slice</title>
    <desc>Created with Sketch.</desc>
    <g id="Page-1" stroke="none" stroke-width="1" fill="none" fill-rule="evenodd">
        <g id="app-logo">
            <g id="Group" transform="translate(50.000000, 50.000000)">
                <g transform="translate(0.000000, 103.937008)" fill="#E01E5A" id="Path">
                    <path d="M42.8346457,22.0472441 C42.8346457,33.5433071 33.5433071,42.8346457 22.0472441,42.8346457 C10.5511811,42.8346457 1.25984252,33.5433071 1.25984252,22.0472441 C1.25984252,10.5511811 10.5511811,1.25984252 22.0472441,1.25984252 L42.8346457,1.25984252 L42.8346457,22.0472441 Z"></path>
                    <path d="M53.2283465,22.0472441 C53.2283465,10.5511811 62.519685,1.25984252 74.015748,1.25984252 C85.511811,1.25984252 94.8031496,10.5511811 94.8031496,22.0472441 L94.8031496,74.015748 C94.8031496,85.511811 85.511811,94.8031496 74.015748,94.8031496 C62.519685,94.8031496 53.2283465,85.511811 53.2283465,74.015748 L53.2283465,22.0472441 Z"></path>
                </g>
                <g fill="#36C5F0" id="Path">
                    <path d="M74.015748,42.519685 C62.519685,42.519685 53.2283465,33.2283465 53.2283465,21.7322835 C53.2283465,10.2362205 62.519685,0.94488189 74.015748,0.94488189 C85.511811,0.94488189 94.8031496,10.2362205 94.8031496,21.7322835 L94.8031496,42.519685 L74.015748,42.519685 Z"></path>
                    <path d="M74.015748,53.0708661 C85.511811,53.0708661 94.8031496,62.3622047 94.8031496,73.8582677 C94.8031496,85.3543307 85.511811,94.6456693 74.015748,94.6456693 L21.8897638,94.6456693 C10.3937008,94.6456693 1.1023622,85.3543307 1.1023622,73.8582677 C1.1023622,62.3622047 10.3937008,53.0708661 21.8897638,53.0708661 L74.015748,53.0708661 Z"></path>
                </g>
                <g transform="translate(103.937008, 0.000000)" fill="#2EB67D" id="Path">
                    <path d="M53.3858268,73.8582677 C53.3858268,62.3622047 62.6771654,53.0708661 74.1732283,53.0708661 C85.6692913,53.0708661 94.9606299,62.3622047 94.9606299,73.8582677 C94.9606299,85.3543307 85.6692913,94.6456693 74.1732283,94.6456693 L53.3858268,94.6456693 L53.3858268,73.8582677 Z"></path>
                    <path d="M42.992126,73.8582677 C42.992126,85.3543307 33.7007874,94.6456693 22.2047244,94.6456693 C10.7086614,94.6456693 1.41732283,85.3543307 1.41732283,73.8582677 L1.41732283,21.7322835 C1.41732283,10.2362205 10.7086614,0.94488189 22.2047244,0.94488189 C33.7007874,0.94488189 42.992126,10.2362205 42.992126,21.7322835 L42.992126,73.8582677 Z"></path>
                </g>
                <g transform="translate(103.937008, 103.937008)" fill="#ECB22E" id="Path">
                    <path d="M22.2047244,53.2283465 C33.7007874,53.2283465 42.992126,62.519685 42.992126,74.015748 C42.992126,85.511811 33.7007874,94.8031496 22.2047244,94.8031496 C10.7086614,94.8031496 1.41732283,85.511811 1.41732283,74.015748 L1.41732283,53.2283465 L22.2047244,53.2283465 Z"></path>
                    <path d="M22.2047244,42.8346457 C10.7086614,42.8346457 1.41732283,33.5433071 1.41732283,22.0472441 C1.41732283,10.5511811 10.7086614,1.25984252 22.2047244,1.25984252 L74.3307087,1.25984252 C85.8267717,1.25984252 95.1181102,10.5511811 95.1181102,22.0472441 C95.1181102,33.5433071 85.8267717,42.8346457 74.3307087,42.8346457 L22.2047244,42.8346457 Z"></path>
                </g>
            </g>
        </g>
    </g>
</svg>