<?xml version="1.0" encoding="UTF-8"?>
<svg width="300px" height="300px" viewBox="0 0 300 300" version="1.1" xmlns="http://www.w3.org/2000/svg" xmlns:xlink="http://www.w3.org/1999/xlink">
    <!-- Generator: Sketch 52.6 (67491) - http://www.bohemiancoding.com/sketch -->
    <title>Slice</title>
    <desc>Created with Sketch.</desc>
    <g id="Page-1" stroke="none" stroke-width="1" fill="none" fill-rule="evenodd">
        <g id="app-logo" fill="#6772E5">
            <g id="Stripe-logo---blue" transform="translate(30.000000, 100.000000)">
                <path d="M240,51.6 C240,34.5333333 231.733333,21.0666667 215.933333,21.0666667 C200.066667,21.0666667 190.466667,34.5333333 190.466667,51.4666667 C190.466667,71.5333333 201.8,81.6666667 218.066667,81.6666667 C226,81.6666667 232,79.8666667 236.533333,77.3333333 L236.533333,64 C232,66.2666667 226.8,67.6666667 220.2,67.6666667 C213.733333,67.6666667 208,65.4 207.266667,57.5333333 L239.866667,57.5333333 C239.866667,56.6666667 240,53.2 240,51.6 Z M207.066667,45.2666667 C207.066667,37.7333333 211.666667,34.6 215.866667,34.6 C219.933333,34.6 224.266667,37.7333333 224.266667,45.2666667 L207.066667,45.2666667 Z" id="Shape"></path>
                <path d="M164.733333,21.0666667 C158.2,21.0666667 154,24.1333333 151.666667,26.2666667 L150.8,22.1333333 L136.133333,22.1333333 L136.133333,99.8666667 L152.8,96.3333333 L152.866667,77.4666667 C155.266667,79.2 158.8,81.6666667 164.666667,81.6666667 C176.6,81.6666667 187.466667,72.0666667 187.466667,50.9333333 C187.4,31.6 176.4,21.0666667 164.733333,21.0666667 Z M160.733333,67 C156.8,67 154.466667,65.6 152.866667,63.8666667 L152.8,39.1333333 C154.533333,37.2 156.933333,35.8666667 160.733333,35.8666667 C166.8,35.8666667 171,42.6666667 171,51.4 C171,60.3333333 166.866667,67 160.733333,67 Z" id="Shape"></path>
                <polygon id="Path" points="113.2 17.1333333 129.933333 13.5333333 129.933333 0 113.2 3.53333333"></polygon>
                <rect id="Rectangle" x="113.2" y="22.2" width="16.7333333" height="58.3333333"></rect>
                <path d="M95.2666667,27.1333333 L94.2,22.2 L79.8,22.2 L79.8,80.5333333 L96.4666667,80.5333333 L96.4666667,41 C100.4,35.8666667 107.066667,36.8 109.133333,37.5333333 L109.133333,22.2 C107,21.4 99.2,19.9333333 95.2666667,27.1333333 Z" id="Path"></path>
                <path d="M61.9333333,7.73333333 L45.6666667,11.2 L45.6,64.6 C45.6,74.4666667 53,81.7333333 62.8666667,81.7333333 C68.3333333,81.7333333 72.3333333,80.7333333 74.5333333,79.5333333 L74.5333333,66 C72.4,66.8666667 61.8666667,69.9333333 61.8666667,60.0666667 L61.8666667,36.4 L74.5333333,36.4 L74.5333333,22.2 L61.8666667,22.2 L61.9333333,7.73333333 Z" id="Path"></path>
                <path d="M16.8666667,39.1333333 C16.8666667,36.5333333 19,35.5333333 22.5333333,35.5333333 C27.6,35.5333333 34,37.0666667 39.0666667,39.8 L39.0666667,24.1333333 C33.5333333,21.9333333 28.0666667,21.0666667 22.5333333,21.0666667 C9,21.0666667 0,28.1333333 0,39.9333333 C0,58.3333333 25.3333333,55.4 25.3333333,63.3333333 C25.3333333,66.4 22.6666667,67.4 18.9333333,67.4 C13.4,67.4 6.33333333,65.1333333 0.733333333,62.0666667 L0.733333333,77.9333333 C6.93333333,80.6 13.2,81.7333333 18.9333333,81.7333333 C32.8,81.7333333 42.3333333,74.8666667 42.3333333,62.9333333 C42.2666667,43.0666667 16.8666667,46.6 16.8666667,39.1333333 Z" id="Path"></path>
            </g>
        </g>
    </g>
</svg>