<?xml version="1.0" encoding="UTF-8"?>
<svg width="300px" height="300px" viewBox="0 0 300 300" version="1.1" xmlns="http://www.w3.org/2000/svg" xmlns:xlink="http://www.w3.org/1999/xlink">
    <!-- Generator: Sketch 52.6 (67491) - http://www.bohemiancoding.com/sketch -->
    <title>Slice</title>
    <desc>Created with Sketch.</desc>
    <g id="Page-1" stroke="none" stroke-width="1" fill="none" fill-rule="evenodd">
        <g id="app-logo">
            <rect id="Rectangle" fill="#3875BA" fill-rule="nonzero" x="0" y="0" width="300" height="300"></rect>
            <g id="trello-logo" transform="translate(49.000000, 120.000000)" fill="#FFFFFF">
                <path d="M170.454177,44.9594937 C167.221266,46.2767089 164.669367,50.8278481 160.789367,53.4151899 C160.548861,53.5751899 160.308354,53.6556962 160.147848,53.6556962 C159.827089,53.6556962 159.426329,53.3346835 159.426329,51.8911392 C159.426329,46.918481 161.030127,44.5124051 162.393418,40.9835443 C167.12557,28.7126582 175.225823,18.2063291 182.444051,6.73696203 C183.00557,5.85493671 183.326329,4.89265823 183.326329,3.84987342 C183.326329,2.9678481 183.005316,2.24582278 182.604304,1.36379747 C182.283544,0.641518987 180.84,0 179.235949,0 C178.353924,0 177.551899,0.0802531646 176.509367,0.0802531646 C172.739747,0.0802531646 171.937722,5.61443038 171.055443,7.05746835 C165.040253,17.2435443 158.142532,29.835443 154.613671,38.7377215 C153.839747,40.7334177 153.003544,42.7293671 152.368608,44.7774684 C148.881266,45.7875949 146.268608,50.6908861 142.182278,53.415443 C141.941772,53.575443 141.701266,53.6559494 141.540759,53.6559494 C141.22,53.6559494 140.819241,53.3349367 140.819241,51.8913924 C140.819241,46.9187342 142.423038,44.5126582 143.786329,40.9837975 C148.518481,28.7129114 156.619241,18.2065823 163.836962,6.73721519 C164.398481,5.85518987 164.719494,4.89291139 164.719494,3.85012658 C164.719494,2.96810127 164.398481,2.24607595 163.997468,1.36405063 C163.676709,0.641518987 162.232911,0 160.629114,0 C159.746835,0 158.94481,0.0802531646 157.902532,0.0802531646 C154.132911,0.0802531646 153.33038,5.61443038 152.448354,7.05746835 C146.433165,17.2435443 139.535949,29.835443 136.007089,38.7377215 C135.726582,39.4612658 135.437975,40.1848101 135.153418,40.9108861 C135.065823,40.9577215 134.976203,41.0086076 134.884304,41.0637975 C130.793924,43.4698734 127.345063,47.7205063 122.372911,50.6081013 C121.41038,51.1691139 118.442785,53.2544304 116.036709,53.2544304 C115.47519,53.2544304 114.994177,53.0941772 114.512658,52.8534177 C113.791139,52.5329114 113.069114,51.0091139 113.069114,50.5278481 C113.069114,50.1268354 113.149367,50.0468354 113.951392,49.5653165 C121.00962,45.3146835 126.783797,39.2192405 131.756456,33.1237975 C133.601013,30.8782278 136.007089,26.4670886 136.007089,23.2589873 C136.007089,21.1736709 135.28557,18.7678481 132.798987,17.8853165 C131.03443,17.2437975 129.029367,16.9232911 127.42557,16.9232911 C123.174937,16.9232911 120.046835,18.8478481 118.282278,20.6924051 C116.486076,22.6101266 114.748608,24.5792405 113.134177,26.6177215 C111.447342,25.1612658 109.068354,24.5417722 106.813165,24.5417722 C104.166582,24.5417722 99.1939241,27.8303797 96.6273418,29.7551899 C96.2263291,30.0759494 95.9858228,30.2362025 95.8253165,30.2362025 C95.7453165,30.2362025 95.6650633,30.1562025 95.6650633,29.9956962 C95.6650633,29.915443 95.8253165,29.1936709 95.8253165,27.9103797 C95.8253165,26.7875949 95.5848101,25.3440506 94.5422785,23.5794937 C94.3017722,23.1782278 92.8579747,22.2959494 91.0934177,22.2959494 C88.9278481,22.2959494 86.9227848,23.3389873 86.9227848,24.461519 C86.9227848,25.2635443 87.6443038,25.5843038 87.6443038,26.3060759 C87.6443038,26.7070886 87.3237975,28.5516456 86.8425316,30.3162025 C85.4787342,35.4493671 83.7944304,40.5020253 82.0298734,45.5546835 C81.0678481,48.3617722 77.8594937,50.8483544 77.8594937,53.8959494 C77.8594937,54.8579747 78.5012658,56.141519 79.3835443,57.1040506 C80.8270886,58.7081013 81.7093671,59.2693671 82.9924051,59.2693671 C83.5539241,59.2693671 84.195443,59.1091139 84.756962,58.6278481 C85.96,57.5853165 86.601519,56.5427848 86.9225316,55.0992405 C89.0075949,45.6351899 95.0227848,39.2189873 101.679494,34.9683544 C103.925063,33.524557 106.973165,32.0007595 107.374177,32.0007595 C107.785316,32.0007595 108.428354,32.1906329 109.076456,32.375443 C107.215696,35.4108861 105.707848,38.6113924 104.727089,42.0260759 C104.406582,43.1488608 104.246076,44.1916456 104.246076,45.3146835 C104.246076,47.1589873 104.647089,49.0843038 105.289114,50.9286076 C106.171139,53.4951899 107.614684,55.7407595 109.619747,56.7832911 C113.309114,58.7083544 115.955696,59.7508861 118.361519,59.7508861 C119.725316,59.7508861 120.767848,59.5103797 121.890633,58.8686076 C127.162278,55.8863291 130.39443,53.6235443 132.727848,51.6139241 C132.791899,53.6518987 133.193671,54.7805063 134.643038,56.3025316 C136.086582,57.8265823 138.332152,59.1896203 141.299747,59.8316456 C141.780759,59.9116456 142.262278,59.9916456 142.743291,59.9916456 C146.138228,59.9916456 149.406076,57.2321519 151.92557,54.4964557 C152.217215,55.0934177 152.641266,55.6635443 153.24962,56.3025316 C154.693671,57.8265823 156.939241,59.1896203 159.906835,59.8316456 C160.387848,59.9116456 160.868861,59.9916456 161.35038,59.9916456 C165.327595,59.9916456 169.129367,56.2050633 171.758987,53.1055696 C172.635443,54.9187342 175.08481,56.7106329 178.032405,58.1470886 C178.83443,58.5481013 179.796962,58.7886076 180.679241,58.7886076 C184.127848,58.7886076 186.614177,55.981519 188.538987,53.8964557 C193.511899,48.4425316 196.238734,41.7055696 198.323797,33.2040506 C198.484304,32.5625316 198.725063,32.3217722 199.045823,32.3217722 C199.847848,32.3217722 200.89038,32.3217722 202.013418,32.161519 C204.178734,31.8407595 205.863038,31.118481 207.868101,30.7979747 C209.071139,30.5574684 208.910633,30.1567089 210.033671,29.7556962 C210.835696,29.4349367 211.477215,29.1139241 211.477215,28.3118987 C211.477215,26.9486076 208.991139,25.5048101 205.221519,25.5048101 C202.253924,25.5048101 200.489367,25.7453165 199.286329,25.7453165 C197.441772,25.7453165 196.960506,25.1840506 195.757215,22.0562025 C195.757215,22.0562025 196.960506,25.1840506 195.757215,22.0562025 C195.516709,21.4146835 195.276203,21.0936709 194.554684,20.4521519 C192.870127,19.0086076 190.785063,18.5273418 189.100759,18.5273418 C185.090633,18.5273418 181.641519,22.6179747 179.235443,26.0665823 C178.674177,26.8686076 177.872152,27.5101266 177.310633,28.3924051 C174.006835,33.3481013 170.843544,38.9367089 170.453418,44.9602532 L170.454177,44.9594937 Z M67.9149367,17.644557 C69.92,17.644557 71.0427848,17.4840506 71.2835443,17.4840506 C71.5240506,17.4840506 71.684557,17.5643038 71.684557,17.8050633 C71.684557,17.9653165 71.6043038,18.2060759 71.0427848,19.4091139 C66.1501266,29.915443 62.7820253,40.5825316 59.8141772,52.3721519 C59.7339241,52.6931646 59.4934177,53.8962025 59.4934177,55.0992405 C59.4934177,56.2220253 59.8141772,57.4250633 60.936962,58.0663291 C63.1025316,59.3498734 64.8670886,59.9113924 66.0701266,59.9113924 C67.8346835,59.9113924 68.7167089,58.7883544 68.7167089,56.9437975 C68.7167089,55.3397468 68.796962,53.6551899 69.0374684,52.3721519 C71.283038,40.5822785 74.6513924,31.3594937 79.864557,21.7349367 C82.3506329,17.1632911 82.6716456,16.9227848 82.6716456,16.5217722 C82.6716456,16.361519 82.5913924,16.1210127 82.4311392,15.8802532 C85.6392405,15.1587342 89.4888608,14.6772152 93.0177215,14.6772152 C93.4187342,14.6772152 95.0227848,15.2387342 95.2632911,15.4792405 C95.8248101,16.0407595 96.3863291,16.6022785 97.3488608,16.6022785 C98.1508861,16.6022785 99.5141772,16.0407595 99.995443,15.72 C101.118228,14.9179747 101.679747,14.0356962 101.679747,12.5921519 C101.679747,11.2286076 96.6265823,7.86 93.0979747,7.86 C88.7668354,7.86 84.8372152,8.42151899 81.1475949,9.1435443 C79.5435443,9.46405063 73.7688608,10.3460759 69.5982278,10.3460759 C65.5881013,10.3460759 65.8286076,9.78506329 64.144557,9.78506329 C63.1825316,9.78506329 62.7010127,10.2660759 62.3,10.6670886 C61.8989873,11.0681013 61.658481,12.6721519 61.658481,14.1159494 C61.658481,14.8374684 61.658481,15.3994937 62.0594937,15.8805063 C63.2625316,17.3240506 65.5886076,17.6450633 67.9141772,17.6450633 C67.9141772,17.6450633 65.5883544,17.6450633 67.9141772,17.6450633 L67.9149367,17.644557 Z M127.345316,24.1407595 C127.345316,24.8627848 127.104304,25.3440506 126.142025,26.8678481 C125.18,28.3918987 125.580759,28.3918987 124.377468,29.9956962 C122.051899,33.1235443 119.16481,36.2513924 115.39519,39.7002532 C114.352152,40.6627848 114.192152,40.6627848 114.031646,40.6627848 C113.951392,40.6627848 113.791139,40.5825316 113.791139,40.4222785 C113.791139,40.1817722 113.871139,39.8607595 114.673165,38.1767089 C117.159241,32.9632911 120.207342,29.5144304 123.575696,26.1463291 C125.420506,24.3012658 126.543291,23.6597468 126.944304,23.6597468 C127.18481,23.6597468 127.345063,23.74 127.345063,24.1407595 C127.345063,24.1407595 127.345063,23.74 127.345063,24.1407595 L127.345316,24.1407595 Z M189.020759,26.2263291 C189.101013,26.2263291 189.181266,26.3063291 189.261266,26.4668354 C189.341519,26.7073418 189.501772,26.9478481 189.903038,27.2688608 C190.223797,27.5093671 190.223797,28.6324051 190.223797,29.5144304 C190.223797,37.2941772 185.812658,43.7103797 181.482025,50.2068354 C180.519241,51.6503797 179.957975,51.8911392 179.476962,51.8911392 C179.075696,51.8911392 178.433924,50.8481013 178.193418,50.2068354 C177.872658,49.324557 177.792405,48.2820253 177.792405,47.8810127 C177.792405,41.6253165 183.727342,32.321519 187.657215,27.1886076 C188.298987,26.3063291 188.780253,26.2265823 189.020759,26.2265823 C189.020759,26.2265823 188.780253,26.2265823 189.020759,26.2265823 L189.020759,26.2263291 Z" id="Shape"></path>
                <path d="M6.32911392,8.86075949 C2.83367089,8.86075949 0,11.6962025 0,15.1898734 L0,53.164557 C0,56.6597468 2.83544304,59.4936709 6.32911392,59.4936709 L44.3037975,59.4936709 C47.7989873,59.4936709 50.6329114,56.6582278 50.6329114,53.164557 L50.6329114,15.1898734 C50.6329114,11.6944304 47.7974684,8.86075949 44.3037975,8.86075949 L6.32911392,8.86075949 Z M31.6448101,15.443038 C29.9670886,15.443038 28.6075949,16.803038 28.6075949,18.4825316 L28.6075949,34.6820253 C28.6075949,36.3605063 29.9678481,37.721519 31.6448101,37.721519 L41.0134177,37.721519 C42.6908861,37.721519 44.0506329,36.361519 44.0506329,34.6820253 L44.0506329,18.4825316 C44.0506329,16.8040506 42.6903797,15.443038 41.0134177,15.443038 L31.6448101,15.443038 Z M9.61949367,15.443038 C7.94177215,15.443038 6.58227848,16.8017722 6.58227848,18.4822785 L6.58227848,47.3405063 C6.58227848,49.0189873 7.94253165,50.3797468 9.61949367,50.3797468 L18.9881013,50.3797468 C20.6655696,50.3797468 22.0253165,49.0210127 22.0253165,47.3405063 L22.0253165,18.4822785 C22.0253165,16.8037975 20.6650633,15.443038 18.9881013,15.443038 L9.61949367,15.443038 Z" id="Shape"></path>
            </g>
        </g>
    </g>
</svg>